SplineFontDB: 3.0
FontName: Jost-ThinItalic
FullName: Jost* 200 Thin Italic
FamilyName: Jost* Thin
Weight: Thin
Copyright: This typeface is licensed under the SIL open font license.
UComments: "2018-6-8: Created with FontForge (http://fontforge.org)"
Version: 003.200
ItalicAngle: -10
UnderlinePosition: -100
UnderlineWidth: 50
Ascent: 800
Descent: 200
InvalidEm: 0
LayerCount: 2
Layer: 0 0 "Back" 1
Layer: 1 0 "Fore" 0
XUID: [1021 69 1495626776 760146]
FSType: 0
OS2Version: 0
OS2_WeightWidthSlopeOnly: 0
OS2_UseTypoMetrics: 0
CreationTime: 1528480336
ModificationTime: 1533318245
PfmFamily: 17
TTFWeight: 200
TTFWidth: 5
LineGap: 100
VLineGap: 0
OS2TypoAscent: 825
OS2TypoAOffset: 0
OS2TypoDescent: -225
OS2TypoDOffset: 0
OS2TypoLinegap: 100
OS2WinAscent: 900
OS2WinAOffset: 0
OS2WinDescent: 300
OS2WinDOffset: 0
HheadAscent: 1030
HheadAOffset: 0
HheadDescent: -350
HheadDOffset: 0
OS2CapHeight: 700
OS2XHeight: 460
OS2Vendor: 'PfEd'
Lookup: 1 0 0 "alt a" { "alt a"  } ['ss01' ('DFLT' <'dflt' > 'latn' <'dflt' > ) ]
Lookup: 1 0 0 "Tabular Numbers lookup" { "Tabular Numbers lookup"  } ['tnum' ('DFLT' <'dflt' > 'grek' <'dflt' > 'latn' <'dflt' > ) ]
Lookup: 258 0 0 "Lets get our kern on" { "kernin like nobodys business" [150,0,4] } ['kern' ('DFLT' <'dflt' > 'latn' <'dflt' > ) ]
MarkAttachClasses: 1
DEI: 91125
KernClass2: 16 14 "kernin like nobodys business"
 15 slash seven V W
 175 quotedbl quotesingle asterisk grave dieresis ordfeminine macron degree acute ordmasculine circumflex breve dotaccent ring tilde quoteleft quoteright quotedblleft quotedblright
 17 nine question F P
 107 A L backslash Agrave Aacute Acircumflex Atilde Adieresis Aring Amacron Abreve Aogonek Lacute uni013B Lslash
 26 three eight B C germandbls
 5 K X Z
 125 at D G O Ograve Oacute Ocircumflex Otilde Odieresis Oslash Dcaron Dcroat Gcircumflex Gbreve Gdotaccent uni0122 Omacron Obreve

StartChar: H
Encoding: 72 72 0
Width: 667
VWidth: 0
Flags: HMW
LayerCount: 2
Fore
SplineSet
168 366 m 1
 173 397 l 1
 639 397 l 1
 634 366 l 1
 168 366 l 1
670 700 m 1
 703 700 l 1
 580 0 l 1
 547 0 l 1
 670 700 l 1
210 700 m 1
 243 700 l 1
 120 0 l 1
 87 0 l 1
 210 700 l 1
EndSplineSet
EndChar

StartChar: O
Encoding: 79 79 1
Width: 778
VWidth: 0
Flags: HMW
LayerCount: 2
Fore
SplineSet
144 350 m 0
 111 162 214 24 394 24 c 0
 574 24 726 162 759 350 c 0
 792 538 689 676 509 676 c 0
 329 676 177 538 144 350 c 0
109 350 m 0
 146 558 318 708 515 708 c 0
 712 708 831 558 794 350 c 0
 757 142 586 -8 389 -8 c 0
 192 -8 72 142 109 350 c 0
EndSplineSet
EndChar

StartChar: I
Encoding: 73 73 2
Width: 199
VWidth: 0
Flags: HMW
LayerCount: 2
Fore
SplineSet
207 700 m 1
 239 700 l 1
 116 0 l 1
 84 0 l 1
 207 700 l 1
EndSplineSet
EndChar

StartChar: C
Encoding: 67 67 3
Width: 685
VWidth: 0
Flags: HMW
LayerCount: 2
Fore
SplineSet
144 350 m 0
 111 161 216 26 388 26 c 0
 487 26 562 58 628 116 c 1
 620 70 l 1
 552 18 484 -8 382 -8 c 0
 188 -8 72 141 109 350 c 0
 146 559 314 708 508 708 c 0
 610 708 669 682 719 630 c 1
 711 586 l 1
 667 644 598 674 502 674 c 0
 330 674 178 541 144 350 c 0
EndSplineSet
EndChar

StartChar: E
Encoding: 69 69 4
Width: 522
VWidth: 0
Flags: HMW
LayerCount: 2
Fore
SplineSet
102 0 m 1
 107 31 l 1
 450 31 l 1
 445 0 l 1
 102 0 l 1
220 669 m 1
 225 700 l 1
 568 700 l 1
 563 669 l 1
 220 669 l 1
167 371 m 1
 173 402 l 1
 496 402 l 1
 490 371 l 1
 167 371 l 1
210 700 m 1
 243 700 l 1
 120 0 l 1
 87 0 l 1
 210 700 l 1
EndSplineSet
EndChar

StartChar: F
Encoding: 70 70 6
Width: 465
VWidth: 0
Flags: HMW
LayerCount: 2
Fore
SplineSet
221 668 m 1
 226 700 l 1
 528 700 l 1
 523 668 l 1
 221 668 l 1
167 363 m 1
 172 394 l 1
 464 394 l 1
 459 363 l 1
 167 363 l 1
210 700 m 1
 243 700 l 1
 120 0 l 1
 87 0 l 1
 210 700 l 1
EndSplineSet
EndChar

StartChar: G
Encoding: 71 71 7
Width: 768
VWidth: 0
Flags: HMW
LayerCount: 2
Fore
SplineSet
471 314 m 1
 477 344 l 1
 777 344 l 1
 747 314 l 1
 471 314 l 1
777 344 m 1
 744 157 591 -8 391 -8 c 0
 194 -8 72 141 109 350 c 0
 146 559 320 708 517 708 c 0
 646 708 728 648 772 558 c 1
 743 537 l 1
 709 617 629 676 511 676 c 0
 333 676 178 541 144 350 c 0
 111 161 217 24 396 24 c 0
 578 24 714 176 743 342 c 1
 777 344 l 1
EndSplineSet
EndChar

StartChar: T
Encoding: 84 84 8
Width: 441
VWidth: 0
Flags: HMW
LayerCount: 2
Fore
SplineSet
135 668 m 1
 140 700 l 1
 547 700 l 1
 542 668 l 1
 355 668 l 1
 237 0 l 1
 204 0 l 1
 322 668 l 1
 135 668 l 1
EndSplineSet
EndChar

StartChar: L
Encoding: 76 76 9
Width: 436
VWidth: 0
Flags: HMW
LayerCount: 2
Fore
SplineSet
106 0 m 1
 111 31 l 1
 424 31 l 1
 419 0 l 1
 106 0 l 1
210 700 m 1
 243 700 l 1
 120 0 l 1
 87 0 l 1
 210 700 l 1
EndSplineSet
EndChar

StartChar: D
Encoding: 68 68 10
Width: 648
VWidth: 0
Flags: HMW
LayerCount: 2
Fore
SplineSet
222 667 m 1
 227 700 l 1
 385 700 l 2
 589 700 701 559 664 350 c 1
 630 350 l 1
 664 541 568 667 380 667 c 2
 222 667 l 1
262 0 m 2
 104 0 l 1
 110 33 l 1
 268 33 l 2
 456 33 596 158 630 350 c 1
 664 350 l 1
 627 141 466 0 262 0 c 2
210 700 m 1
 243 700 l 1
 120 0 l 1
 87 0 l 1
 210 700 l 1
EndSplineSet
EndChar

StartChar: Q
Encoding: 81 81 11
Width: 776
VWidth: 0
Flags: HMW
LayerCount: 2
Fore
SplineSet
144 350 m 0
 111 162 214 24 394 24 c 0
 574 24 726 162 759 350 c 0
 792 538 689 676 509 676 c 0
 329 676 177 538 144 350 c 0
109 350 m 0
 146 558 318 708 515 708 c 0
 712 708 831 558 794 350 c 0
 757 142 586 -8 389 -8 c 0
 192 -8 72 142 109 350 c 0
447 300 m 1
 491 300 l 1
 752 0 l 1
 708 0 l 1
 447 300 l 1
EndSplineSet
EndChar

StartChar: A
Encoding: 65 65 12
Width: 618
VWidth: 0
Flags: HMW
LayerCount: 2
Fore
SplineSet
178 254 m 1
 192 284 l 1
 526 284 l 1
 531 254 l 1
 178 254 l 1
423 644 m 1
 207 273 l 1
 203 265 l 1
 49 0 l 1
 12 0 l 1
 436 721 l 1
 606 0 l 1
 569 0 l 1
 510 263 l 1
 508 271 l 1
 423 644 l 1
EndSplineSet
EndChar

StartChar: R
Encoding: 82 82 13
Width: 495
VWidth: 0
Flags: HMW
LayerCount: 2
Fore
SplineSet
258 326 m 1
 295 326 l 1
 468 0 l 1
 427 0 l 1
 258 326 l 1
210 700 m 1
 243 700 l 1
 120 0 l 1
 87 0 l 1
 210 700 l 1
220 670 m 1
 225 700 l 1
 347 700 l 2
 482 700 573 631 550 502 c 0
 527 373 413 304 278 304 c 2
 156 304 l 1
 161 334 l 1
 283 334 l 2
 403 334 497 390 517 502 c 0
 537 614 460 670 342 670 c 2
 220 670 l 1
EndSplineSet
EndChar

StartChar: V
Encoding: 86 86 14
Width: 618
VWidth: 0
Flags: HMW
LayerCount: 2
Fore
SplineSet
319 58 m 1
 691 700 l 1
 729 700 l 1
 305 -21 l 1
 135 700 l 1
 173 700 l 1
 319 58 l 1
EndSplineSet
EndChar

StartChar: M
Encoding: 77 77 15
Width: 824
VWidth: 0
Flags: HMW
LayerCount: 2
Fore
SplineSet
780 624 m 1
 819 721 l 1
 770 0 l 1
 737 0 l 1
 780 624 l 1
259 721 m 1
 264 624 l 1
 87 0 l 1
 54 0 l 1
 259 721 l 1
819 721 m 1
 800 642 l 1
 428 93 l 1
 250 642 l 1
 259 721 l 1
 440 160 l 1
 819 721 l 1
EndSplineSet
EndChar

StartChar: W
Encoding: 87 87 16
Width: 962
VWidth: 0
Flags: HMW
LayerCount: 2
Fore
SplineSet
284 34 m 1
 260 -21 l 1
 140 700 l 1
 176 700 l 1
 284 34 l 1
694 -21 m 1
 690 34 l 1
 1032 700 l 1
 1068 700 l 1
 694 -21 l 1
260 -21 m 1
 259 38 l 1
 608 721 l 1
 717 38 l 1
 694 -21 l 1
 591 626 l 1
 260 -21 l 1
EndSplineSet
EndChar

StartChar: N
Encoding: 78 78 17
Width: 698
VWidth: 0
Flags: HMW
LayerCount: 2
Fore
SplineSet
184 656 m 1
 186 721 l 1
 623 40 l 1
 621 -21 l 1
 184 656 l 1
715 700 m 1
 748 700 l 1
 621 -21 l 1
 598 34 l 1
 715 700 l 1
186 721 m 1
 209 662 l 1
 92 0 l 1
 59 0 l 1
 186 721 l 1
EndSplineSet
EndChar

StartChar: a
Encoding: 97 97 18
Width: 549
VWidth: 0
Flags: HMW
LayerCount: 2
Fore
SplineSet
524 460 m 5
 554 460 l 5
 473 0 l 5
 443 0 l 5
 524 460 l 5
83 230 m 4
 109 378 221 470 343 470 c 4
 464 470 520 358 497 230 c 4
 474 102 379 -10 258 -10 c 4
 136 -10 57 82 83 230 c 4
114 230 m 4
 91 100 162 20 269 20 c 4
 366 20 463 117 483 230 c 4
 503 343 440 440 343 440 c 4
 236 440 137 360 114 230 c 4
EndSplineSet
Substitution2: "alt a" a.alt
EndChar

StartChar: X
Encoding: 88 88 19
Width: 516
VWidth: 0
Flags: HMW
LayerCount: 2
Fore
SplineSet
567 700 m 1
 607 700 l 1
 343 367 l 1
 500 0 l 1
 460 0 l 1
 319 337 l 1
 57 0 l 1
 17 0 l 1
 309 367 l 1
 165 700 l 1
 205 700 l 1
 332 396 l 1
 567 700 l 1
EndSplineSet
EndChar

StartChar: K
Encoding: 75 75 20
Width: 487
VWidth: 0
Flags: HMW
LayerCount: 2
Fore
SplineSet
207 700 m 1
 239 700 l 1
 116 0 l 1
 84 0 l 1
 207 700 l 1
541 700 m 1
 583 700 l 1
 215 372 l 1
 476 0 l 1
 432 0 l 1
 174 372 l 1
 541 700 l 1
EndSplineSet
EndChar

StartChar: Y
Encoding: 89 89 21
Width: 523
VWidth: 0
Flags: HMW
LayerCount: 2
Fore
SplineSet
295 300 m 1
 327 300 l 1
 274 0 l 1
 242 0 l 1
 295 300 l 1
597 700 m 1
 634 700 l 1
 302 248 l 1
 135 700 l 1
 173 700 l 1
 313 310 l 1
 597 700 l 1
EndSplineSet
EndChar

StartChar: B
Encoding: 66 66 22
Width: 513
VWidth: 0
Flags: HMW
LayerCount: 2
Fore
SplineSet
175 392 m 1
 304 392 l 2
 404 392 516 331 493 202 c 0
 468 63 363 0 228 0 c 2
 106 0 l 1
 111 30 l 1
 233 30 l 2
 351 30 439 85 460 203 c 0
 479 310 391 372 294 372 c 2
 172 372 l 1
 175 392 l 1
173 381 m 1
 177 401 l 1
 289 401 l 2
 380 401 463 440 480 534 c 0
 495 620 441 670 336 670 c 2
 224 670 l 1
 229 700 l 1
 341 700 l 2
 466 700 533 641 514 536 c 0
 495 430 403 381 292 381 c 2
 173 381 l 1
210 700 m 1
 243 700 l 1
 120 0 l 1
 87 0 l 1
 210 700 l 1
EndSplineSet
EndChar

StartChar: Z
Encoding: 90 90 23
Width: 538
VWidth: 0
Flags: HMW
LayerCount: 2
Fore
SplineSet
156 668 m 1
 161 700 l 1
 645 700 l 1
 81 32 l 1
 514 32 l 1
 508 0 l 1
 18 0 l 1
 583 668 l 1
 156 668 l 1
EndSplineSet
EndChar

StartChar: o
Encoding: 111 111 24
Width: 553
VWidth: 0
Flags: HMW
LayerCount: 2
Fore
SplineSet
83 230 m 0
 108 369 226 470 359 470 c 0
 492 470 577 369 552 230 c 0
 527 91 407 -10 274 -10 c 0
 141 -10 58 91 83 230 c 0
115 230 m 0
 93 108 166 20 280 20 c 0
 394 20 499 108 521 230 c 0
 543 352 468 440 354 440 c 0
 240 440 137 352 115 230 c 0
EndSplineSet
EndChar

StartChar: J
Encoding: 74 74 25
Width: 209
VWidth: 0
Flags: HMW
LayerCount: 2
Fore
SplineSet
-134 -142 m 1
 -117 -166 -84 -188 -41 -188 c 0
 31 -188 64 -151 82 -50 c 2
 214 700 l 1
 246 700 l 1
 112 -60 l 2
 93 -169 46 -220 -48 -220 c 0
 -101 -220 -145 -186 -156 -166 c 1
 -134 -142 l 1
EndSplineSet
EndChar

StartChar: t
Encoding: 116 116 26
Width: 205
VWidth: 0
Flags: HMW
LayerCount: 2
Fore
SplineSet
93 460 m 1
 274 460 l 1
 269 430 l 1
 88 430 l 1
 93 460 l 1
196 620 m 1
 227 620 l 1
 118 0 l 1
 87 0 l 1
 196 620 l 1
EndSplineSet
EndChar

StartChar: d
Encoding: 100 100 27
Width: 549
VWidth: 0
Flags: HMW
LayerCount: 2
Fore
SplineSet
580 780 m 1
 610 780 l 1
 472 0 l 1
 442 0 l 1
 580 780 l 1
83 230 m 0
 109 378 221 470 343 470 c 0
 463 470 521 368 497 230 c 4
 473 92 378 -10 258 -10 c 0
 136 -10 57 82 83 230 c 0
115 230 m 0
 92 100 162 20 268 20 c 0
 366 20 463 117 483 230 c 0
 503 343 440 440 342 440 c 0
 236 440 138 360 115 230 c 0
EndSplineSet
EndChar

StartChar: l
Encoding: 108 108 28
Width: 195
VWidth: 0
Flags: HMW
LayerCount: 2
Fore
SplineSet
220 780 m 1
 251 780 l 1
 113 0 l 1
 82 0 l 1
 220 780 l 1
EndSplineSet
EndChar

StartChar: i
Encoding: 105 105 29
Width: 211
VWidth: 0
Flags: HMW
LayerCount: 2
Fore
SplineSet
202 682 m 0
 204 695 216 705 230 705 c 0
 244 705 251 695 249 682 c 0
 247 669 236 658 222 658 c 0
 208 658 200 669 202 682 c 0
171 460 m 1
 202 460 l 1
 121 0 l 1
 90 0 l 1
 171 460 l 1
EndSplineSet
EndChar

StartChar: r
Encoding: 114 114 30
Width: 305
VWidth: 0
Flags: HMW
LayerCount: 2
Fore
SplineSet
194 460 m 1
 113 0 l 1
 82 0 l 1
 163 460 l 1
 194 460 l 1
350 420 m 1
 334 433 318 440 296 440 c 0
 222 440 177 367 162 280 c 1
 147 280 l 1
 166 389 218 470 307 470 c 4
 333 470 356 461 372 445 c 1
 350 420 l 1
EndSplineSet
EndChar

StartChar: c
Encoding: 99 99 31
Width: 485
VWidth: 0
Flags: HMW
LayerCount: 2
Fore
SplineSet
109 230 m 0
 87 108 162 20 276 20 c 0
 350 20 418 58 444 88 c 1
 436 48 l 1
 406 19 340 -10 270 -10 c 0
 137 -10 53 91 78 230 c 0
 103 369 222 470 355 470 c 0
 425 470 481 440 501 412 c 1
 494 372 l 1
 478 402 424 440 350 440 c 0
 236 440 131 352 109 230 c 0
EndSplineSet
EndChar

StartChar: b
Encoding: 98 98 32
Width: 549
VWidth: 0
Flags: HMW
LayerCount: 2
Fore
SplineSet
246 780 m 1
 108 0 l 1
 77 0 l 1
 215 780 l 1
 246 780 l 1
549 230 m 0
 523 82 410 -10 288 -10 c 0
 168 -10 111 92 135 230 c 4
 159 368 253 470 373 470 c 0
 495 470 575 378 549 230 c 0
517 230 m 0
 540 360 469 440 363 440 c 0
 265 440 169 343 149 230 c 0
 129 117 191 20 289 20 c 0
 395 20 494 100 517 230 c 0
EndSplineSet
EndChar

StartChar: p
Encoding: 112 112 33
Width: 549
VWidth: 0
Flags: HMW
LayerCount: 2
Fore
SplineSet
69 -220 m 1
 38 -220 l 5
 158 460 l 5
 189 460 l 1
 69 -220 l 1
549 230 m 0
 523 82 410 -10 288 -10 c 0
 168 -10 111 92 135 230 c 4
 159 368 253 470 373 470 c 0
 495 470 575 378 549 230 c 0
517 230 m 0
 540 360 469 440 363 440 c 0
 265 440 169 343 149 230 c 0
 129 117 191 20 289 20 c 0
 395 20 494 100 517 230 c 0
EndSplineSet
EndChar

StartChar: q
Encoding: 113 113 34
Width: 549
VWidth: 0
Flags: HMW
LayerCount: 2
Fore
SplineSet
403 -220 m 1
 523 460 l 1
 553 460 l 1
 433 -220 l 1
 403 -220 l 1
83 230 m 0
 109 378 221 470 343 470 c 0
 463 470 521 368 497 230 c 4
 473 92 378 -10 258 -10 c 0
 136 -10 57 82 83 230 c 0
115 230 m 0
 92 100 162 20 268 20 c 0
 366 20 463 117 483 230 c 0
 503 343 440 440 342 440 c 0
 236 440 138 360 115 230 c 0
EndSplineSet
EndChar

StartChar: h
Encoding: 104 104 35
Width: 490
VWidth: 0
Flags: HMW
LayerCount: 2
Fore
SplineSet
251 780 m 1
 113 0 l 1
 82 0 l 1
 220 780 l 1
 251 780 l 1
431 308 m 2
 445 388 422 440 340 440 c 0
 256 440 177 366 162 280 c 1
 146 280 l 5
 165 389 256 470 351 470 c 0
 446 470 480 409 463 311 c 2
 408 0 l 1
 377 0 l 1
 431 308 l 2
EndSplineSet
EndChar

StartChar: n
Encoding: 110 110 36
Width: 490
VWidth: 0
Flags: HMW
LayerCount: 2
Fore
SplineSet
194 460 m 1
 113 0 l 1
 82 0 l 1
 163 460 l 1
 194 460 l 1
431 308 m 2
 445 388 422 440 340 440 c 0
 256 440 177 366 162 280 c 1
 146 280 l 5
 165 389 256 470 351 470 c 0
 446 470 480 409 463 311 c 2
 408 0 l 1
 377 0 l 1
 431 308 l 2
EndSplineSet
EndChar

StartChar: m
Encoding: 109 109 37
Width: 717
VWidth: 0
Flags: HMW
LayerCount: 2
Fore
SplineSet
397 308 m 2
 411 388 390 440 322 440 c 0
 252 440 177 367 162 280 c 1
 146 280 l 5
 165 389 252 470 333 470 c 0
 414 470 446 409 429 311 c 2
 374 0 l 1
 343 0 l 1
 397 308 l 2
194 460 m 1
 113 0 l 1
 82 0 l 1
 163 460 l 1
 194 460 l 1
690 311 m 2
 635 0 l 1
 604 0 l 1
 658 308 l 2
 672 388 652 440 584 440 c 0
 514 440 438 366 423 280 c 1
 401 280 l 5
 420 389 514 470 595 470 c 0
 676 470 707 409 690 311 c 2
EndSplineSet
EndChar

StartChar: k
Encoding: 107 107 38
Width: 392
VWidth: 0
Flags: HMW
LayerCount: 2
Fore
SplineSet
215 780 m 1
 246 780 l 1
 108 0 l 1
 77 0 l 1
 215 780 l 1
407 460 m 1
 448 460 l 1
 186 270 l 1
 386 0 l 1
 346 0 l 1
 146 270 l 1
 407 460 l 1
EndSplineSet
EndChar

StartChar: u
Encoding: 117 117 39
Width: 490
VWidth: 0
Flags: HMW
LayerCount: 2
Fore
SplineSet
377 0 m 1
 458 460 l 1
 489 460 l 1
 408 0 l 1
 377 0 l 1
141 159 m 2
 126 73 150 20 232 20 c 0
 316 20 394 94 409 180 c 1
 425 180 l 5
 406 71 315 -10 220 -10 c 0
 125 -10 91 51 110 156 c 2
 163 460 l 1
 194 460 l 1
 141 159 l 2
EndSplineSet
EndChar

StartChar: e
Encoding: 101 101 40
Width: 505
VWidth: 0
Flags: HMW
LayerCount: 2
Fore
SplineSet
104 222 m 1
 109 250 l 1
 498 250 l 1
 501 222 l 1
 104 222 l 1
477 252 m 2
 496 361 432 442 335 442 c 0
 239 442 138 366 116 240 c 1
 115 232 l 1
 93 108 154 20 258 20 c 0
 360 20 414 74 453 124 c 1
 475 107 l 1
 430 53 372 -10 249 -10 c 0
 131 -10 58 93 83 232 c 0
 87 256 93 278 103 300 c 0
 145 400 237 470 341 470 c 0
 453 470 531 379 508 248 c 0
 507 240 503 230 501 222 c 1
 474 230 l 1
 477 252 l 2
EndSplineSet
EndChar

StartChar: g
Encoding: 103 103 41
Width: 549
VWidth: 0
Flags: HMW
LayerCount: 2
Fore
SplineSet
50 -30 m 1
 81 -30 l 1
 63 -131 121 -200 223 -200 c 0
 319 -200 419 -134 444 10 c 2
 523 460 l 1
 553 460 l 1
 474 10 l 2
 446 -149 332 -230 217 -230 c 0
 96 -230 29 -149 50 -30 c 1
83 230 m 0
 109 378 221 470 343 470 c 0
 463 470 521 368 497 230 c 4
 473 92 378 -10 258 -10 c 0
 136 -10 57 82 83 230 c 0
115 230 m 0
 92 100 162 20 268 20 c 0
 366 20 463 118 483 234 c 0
 502 340 440 440 342 440 c 0
 236 440 138 360 115 230 c 0
EndSplineSet
EndChar

StartChar: f
Encoding: 102 102 42
Width: 280
VWidth: 0
Flags: HMW
LayerCount: 2
Fore
SplineSet
128 460 m 1
 333 460 l 1
 328 430 l 1
 123 430 l 1
 128 460 l 1
403 718 m 1
 391 739 370 758 340 758 c 0
 275 758 246 700 236 641 c 2
 123 0 l 1
 92 0 l 1
 206 644 l 2
 220 725 263 788 347 788 c 0
 390 788 414 763 425 743 c 1
 403 718 l 1
EndSplineSet
EndChar

StartChar: s
Encoding: 115 115 43
Width: 403
VWidth: 0
Flags: HMW
LayerCount: 2
Fore
SplineSet
91 151 m 1
 93 85 121 20 206 20 c 0
 272 20 322 59 333 119 c 0
 344 180 294 206 234 226 c 0
 168 248 111 274 126 358 c 0
 138 428 205 468 277 468 c 0
 360 468 393 411 402 360 c 1
 374 351 l 1
 364 394 337 439 271 439 c 0
 213 439 167 411 157 357 c 0
 145 291 200 268 260 248 c 0
 322 226 377 191 365 121 c 0
 351 39 283 -10 198 -10 c 0
 99 -10 61 64 61 142 c 1
 91 151 l 1
EndSplineSet
EndChar

StartChar: y
Encoding: 121 121 44
Width: 429
VWidth: 0
Flags: HMW
LayerCount: 2
Fore
SplineSet
503 460 m 1
 83 -220 l 1
 49 -220 l 1
 206 34 l 1
 88 460 l 1
 125 460 l 1
 235 44 l 1
 218 45 l 1
 469 460 l 1
 503 460 l 1
EndSplineSet
EndChar

StartChar: w
Encoding: 119 119 45
Width: 638
VWidth: 0
Flags: HMW
LayerCount: 2
Fore
SplineSet
673 460 m 1
 707 460 l 1
 459 -21 l 1
 461 41 l 1
 673 460 l 1
379 421 m 1
 399 481 l 1
 476 41 l 1
 459 -21 l 1
 379 421 l 1
399 481 m 1
 397 421 l 1
 171 -21 l 1
 176 41 l 1
 399 481 l 1
93 460 m 1
 127 460 l 1
 191 41 l 1
 171 -21 l 1
 93 460 l 1
EndSplineSet
EndChar

StartChar: v
Encoding: 118 118 46
Width: 426
VWidth: 0
Flags: HMW
LayerCount: 2
Fore
SplineSet
88 460 m 1
 123 460 l 1
 221 48 l 1
 465 460 l 1
 500 460 l 1
 209 -21 l 1
 88 460 l 1
EndSplineSet
EndChar

StartChar: x
Encoding: 120 120 47
Width: 392
VWidth: 0
Flags: HMW
LayerCount: 2
Fore
SplineSet
419 460 m 1
 455 460 l 1
 256 237 l 1
 385 0 l 1
 348 0 l 1
 233 212 l 1
 44 0 l 1
 7 0 l 1
 220 237 l 1
 98 460 l 1
 135 460 l 1
 242 262 l 1
 419 460 l 1
EndSplineSet
EndChar

StartChar: z
Encoding: 122 122 48
Width: 439
VWidth: 0
Flags: HMW
LayerCount: 2
Fore
SplineSet
432 430 m 1
 118 430 l 1
 123 460 l 1
 495 460 l 1
 81 30 l 1
 419 30 l 1
 414 0 l 1
 18 0 l 1
 432 430 l 1
EndSplineSet
EndChar

StartChar: j
Encoding: 106 106 49
Width: 201
VWidth: 0
Flags: HMW
LayerCount: 2
Fore
SplineSet
192 682 m 0
 194 695 206 705 220 705 c 0
 234 705 241 695 239 682 c 0
 237 669 226 658 212 658 c 0
 198 658 190 669 192 682 c 0
-98 -150 m 1
 -86 -171 -66 -189 -36 -189 c 0
 29 -189 57 -131 67 -72 c 2
 161 460 l 1
 192 460 l 1
 98 -76 l 2
 84 -157 41 -220 -43 -220 c 0
 -86 -220 -110 -194 -121 -174 c 1
 -98 -150 l 1
EndSplineSet
EndChar

StartChar: P
Encoding: 80 80 50
Width: 500
VWidth: 0
Flags: HMW
LayerCount: 2
Fore
SplineSet
210 700 m 1
 243 700 l 1
 120 0 l 1
 87 0 l 1
 210 700 l 1
224 669 m 1
 229 700 l 1
 355 700 l 2
 483 700 564 624 541 495 c 0
 518 366 411 290 283 290 c 2
 157 290 l 1
 163 321 l 1
 289 321 l 2
 400 321 487 383 507 495 c 0
 527 607 461 669 350 669 c 2
 224 669 l 1
EndSplineSet
EndChar

StartChar: U
Encoding: 85 85 51
Width: 591
VWidth: 0
Flags: HMW
LayerCount: 2
Fore
SplineSet
205 700 m 1
 238 700 l 1
 154 223 l 2
 132 99 186 22 300 22 c 0
 414 22 493 99 515 223 c 2
 599 700 l 1
 632 700 l 1
 548 223 l 2
 523 84 432 -10 294 -10 c 0
 156 -10 96 84 121 223 c 2
 205 700 l 1
EndSplineSet
EndChar

StartChar: S
Encoding: 83 83 52
Width: 506
VWidth: 0
Flags: HMW
LayerCount: 2
Fore
SplineSet
104 206 m 1
 120 116 160 23 271 23 c 0
 386 23 442 88 458 178 c 0
 475 277 397 325 324 353 c 0
 252 381 154 435 174 546 c 0
 191 645 285 708 385 708 c 0
 498 708 546 624 554 553 c 1
 523 538 l 1
 512 602 478 676 380 676 c 0
 296 676 223 622 209 544 c 0
 193 454 276 408 355 376 c 0
 430 347 513 294 493 180 c 0
 474 75 404 -8 265 -8 c 0
 143 -8 90 88 74 190 c 1
 104 206 l 1
EndSplineSet
EndChar

StartChar: at
Encoding: 64 64 53
Width: 770
VWidth: 0
Flags: HMW
LayerCount: 2
Fore
SplineSet
287 320 m 0
 273 243 309 191 375 191 c 0
 449 191 528 264 547 370 c 0
 559 440 530 500 466 500 c 0
 394 500 308 438 287 320 c 0
256 319 m 0
 281 458 386 528 471 528 c 0
 549 528 583 454 568 368 c 0
 547 250 453 162 365 162 c 0
 291 162 239 220 256 319 c 0
91 320 m 0
 130 539 316 708 540 708 c 0
 747 708 832 549 804 390 c 0
 775 224 658 152 583 152 c 0
 522 152 500 204 527 284 c 1
 524 284 l 9
 604 520 l 1
 636 520 l 1
 553 289 l 2
 551 282 546 264 545 256 c 0
 540 225 540 179 591 179 c 0
 651 179 750 250 775 390 c 0
 801 537 724 682 535 682 c 0
 325 682 156 526 120 320 c 0
 88 136 177 18 361 18 c 0
 463 18 538 45 602 78 c 1
 611 53 l 1
 546 22 476 -8 357 -8 c 0
 150 -8 56 121 91 320 c 0
EndSplineSet
EndChar

StartChar: period
Encoding: 46 46 54
Width: 272
VWidth: 0
Flags: HMW
LayerCount: 2
Fore
SplineSet
114 12 m 0
 116 26 130 37 143 37 c 0
 156 37 164 26 162 12 c 0
 160 -2 147 -12 134 -12 c 0
 121 -12 112 -2 114 12 c 0
EndSplineSet
EndChar

StartChar: comma
Encoding: 44 44 55
Width: 285
VWidth: 0
Flags: HMW
LayerCount: 2
Fore
SplineSet
184 99 m 1
 213 86 l 1
 59 -164 l 1
 39 -156 l 1
 184 99 l 1
EndSplineSet
EndChar

StartChar: colon
Encoding: 58 58 56
Width: 300
VWidth: 0
Flags: HMW
LayerCount: 2
Fore
SplineSet
114 12 m 0
 116 26 130 37 143 37 c 0
 156 37 164 26 162 12 c 0
 160 -2 147 -12 134 -12 c 0
 121 -12 112 -2 114 12 c 0
177 370 m 0
 179 384 192 394 205 394 c 0
 218 394 227 384 225 370 c 0
 223 356 210 346 197 346 c 0
 184 346 175 356 177 370 c 0
EndSplineSet
EndChar

StartChar: semicolon
Encoding: 59 59 57
Width: 292
VWidth: 0
Flags: HMW
LayerCount: 2
Fore
SplineSet
207 370 m 0
 209 384 222 394 235 394 c 0
 248 394 257 384 255 370 c 0
 253 356 240 346 227 346 c 0
 214 346 205 356 207 370 c 0
184 99 m 1
 213 86 l 1
 59 -164 l 1
 39 -156 l 1
 184 99 l 1
EndSplineSet
EndChar

StartChar: quotedbl
Encoding: 34 34 58
Width: 421
VWidth: 0
Flags: HMW
LayerCount: 2
Fore
SplineSet
260 700 m 1
 297 700 l 1
 181 414 l 1
 160 414 l 1
 260 700 l 1
440 700 m 1
 477 700 l 1
 361 414 l 1
 340 414 l 1
 440 700 l 1
EndSplineSet
EndChar

StartChar: exclam
Encoding: 33 33 59
Width: 273
VWidth: 0
Flags: HMW
LayerCount: 2
Fore
SplineSet
240 700 m 1
 279 700 l 1
 183 200 l 1
 161 200 l 1
 240 700 l 1
114 12 m 0
 116 26 130 37 143 37 c 0
 156 37 165 26 163 12 c 0
 161 -2 147 -12 134 -12 c 0
 121 -12 112 -2 114 12 c 0
EndSplineSet
EndChar

StartChar: quotesingle
Encoding: 39 39 60
Width: 241
VWidth: 0
Flags: HMW
LayerCount: 2
Fore
SplineSet
260 700 m 1
 297 700 l 1
 181 414 l 1
 160 414 l 1
 260 700 l 1
EndSplineSet
EndChar

StartChar: numbersign
Encoding: 35 35 61
Width: 581
VWidth: 0
Flags: HMW
LayerCount: 2
Fore
SplineSet
154 450 m 1
 159 477 l 1
 630 477 l 1
 625 450 l 1
 502 450 l 0
 495 450 l 0
 292 450 l 0
 285 450 l 0
 154 450 l 1
75 228 m 1
 80 255 l 1
 203 255 l 0
 211 255 l 0
 413 255 l 0
 424 255 l 0
 551 255 l 1
 546 228 l 1
 75 228 l 1
589 700 m 1
 619 700 l 1
 326 0 l 1
 296 0 l 1
 396 239 l 0
 399 246 l 0
 488 459 l 0
 490 467 l 0
 589 700 l 1
379 700 m 1
 409 700 l 1
 312 468 l 0
 309 460 l 0
 217 244 l 0
 216 238 l 0
 116 0 l 1
 86 0 l 1
 379 700 l 1
EndSplineSet
EndChar

StartChar: hyphen
Encoding: 45 45 62
Width: 210
VWidth: 0
Flags: HMW
LayerCount: 2
Fore
SplineSet
48 246 m 1
 53 275 l 1
 253 275 l 1
 248 246 l 1
 48 246 l 1
EndSplineSet
EndChar

StartChar: dollar
Encoding: 36 36 63
Width: 580
VWidth: 0
Flags: HMW
LayerCount: 2
Fore
SplineSet
396 818 m 1
 424 818 l 1
 402 690 l 1
 374 690 l 1
 396 818 l 1
254 13 m 1
 284 13 l 1
 262 -112 l 1
 232 -112 l 1
 254 13 l 1
527 538 m 1
 516 602 483 676 385 676 c 0
 298 676 228 623 214 545 c 0
 198 452 280 407 360 376 c 0
 435 347 518 294 498 180 c 0
 479 75 408 -8 269 -8 c 0
 147 -8 94 88 78 190 c 1
 109 206 l 1
 124 112 165 23 276 23 c 0
 391 23 447 88 463 178 c 0
 480 277 401 324 328 352 c 0
 256 380 159 433 179 547 c 0
 196 643 290 708 390 708 c 0
 503 708 550 624 558 553 c 1
 527 538 l 1
EndSplineSet
EndChar

StartChar: bar
Encoding: 124 124 64
Width: 229
VWidth: 0
Flags: HMW
LayerCount: 2
Fore
SplineSet
238 785 m 1
 267 785 l 1
 91 -215 l 1
 62 -215 l 1
 238 785 l 1
EndSplineSet
EndChar

StartChar: zero
Encoding: 48 48 65
Width: 565
VWidth: 0
Flags: HMW
LayerCount: 2
Fore
SplineSet
146 350 m 0
 114 170 161 21 286 21 c 0
 411 21 512 170 544 350 c 0
 576 530 527 679 402 679 c 0
 277 679 178 530 146 350 c 0
112 350 m 0
 148 552 263 710 407 710 c 0
 551 710 612 552 576 350 c 0
 540 148 424 -10 280 -10 c 0
 136 -10 76 148 112 350 c 0
EndSplineSet
Substitution2: "Tabular Numbers lookup" uniFF10
EndChar

StartChar: one
Encoding: 49 49 66
Width: 422
VWidth: 0
Flags: HMW
LayerCount: 2
Fore
SplineSet
200 626 m 1
 206 660 l 1
 412 706 l 1
 288 0 l 1
 256 0 l 1
 373 666 l 1
 200 626 l 1
EndSplineSet
Substitution2: "Tabular Numbers lookup" uniFF11
EndChar

StartChar: two
Encoding: 50 50 67
Width: 530
VWidth: 0
Flags: HMW
LayerCount: 2
Fore
SplineSet
24 0 m 1
 407 340 l 2
 464 390 513 439 526 515 c 0
 539 589 508 680 392 680 c 0
 281 680 193 590 170 460 c 1
 137 460 l 1
 163 609 266 711 397 711 c 0
 537 711 574 600 559 513 c 0
 545 434 492 376 430 322 c 2
 99 31 l 1
 495 31 l 1
 490 0 l 1
 24 0 l 1
EndSplineSet
Substitution2: "Tabular Numbers lookup" uniFF12
EndChar

StartChar: four
Encoding: 52 52 68
Width: 562
VWidth: 0
Flags: HMW
LayerCount: 2
Fore
SplineSet
49 140 m 1
 82 170 l 1
 430 170 l 0
 436 170 l 0
 558 170 l 1
 553 140 l 1
 49 140 l 1
84 140 m 1
 49 140 l 1
 531 700 l 25
 542 700 l 1
 419 0 l 1
 386 0 l 1
 413 152 l 0
 414 159 l 0
 495 620 l 1
 84 140 l 1
EndSplineSet
Substitution2: "Tabular Numbers lookup" uniFF14
EndChar

StartChar: slash
Encoding: 47 47 69
Width: 487
VWidth: 0
Flags: HMW
LayerCount: 2
Fore
SplineSet
563 700 m 1
 595 700 l 1
 22 -150 l 1
 -11 -150 l 1
 563 700 l 1
EndSplineSet
EndChar

StartChar: backslash
Encoding: 92 92 70
Width: 459
VWidth: 0
Flags: HMW
LayerCount: 2
Fore
SplineSet
138 700 m 1
 173 700 l 1
 444 0 l 1
 410 0 l 1
 138 700 l 1
EndSplineSet
EndChar

StartChar: eight
Encoding: 56 56 71
Width: 525
VWidth: 0
Flags: HMW
LayerCount: 2
Fore
SplineSet
179 538 m 0
 195 630 284 710 387 710 c 0
 490 710 553 630 537 538 c 0
 519 436 420 364 326 364 c 0
 232 364 161 436 179 538 c 0
209 535 m 0
 194 448 263 386 330 386 c 0
 397 386 489 448 504 535 c 0
 518 615 468 680 382 680 c 0
 296 680 223 615 209 535 c 0
95 186 m 0
 115 301 225 378 329 378 c 0
 433 378 516 301 496 186 c 0
 477 77 385 -10 260 -10 c 0
 135 -10 76 77 95 186 c 0
128 190 m 0
 110 90 164 20 266 20 c 0
 368 20 448 90 466 190 c 0
 483 287 409 356 325 356 c 0
 241 356 145 287 128 190 c 0
EndSplineSet
Substitution2: "Tabular Numbers lookup" uniFF18
EndChar

StartChar: nine
Encoding: 57 57 72
Width: 548
VWidth: 0
Flags: HMW
LayerCount: 2
Fore
SplineSet
550 477 m 0
 571 594 508 680 394 680 c 0
 280 680 187 594 166 477 c 0
 147 367 216 282 316 282 c 0
 441 282 532 374 550 477 c 0
218 0 m 1
 178 0 l 1
 470 328 l 1
 471 326 l 1
 425 280 368 257 302 257 c 0
 188 257 112 355 134 477 c 0
 158 614 264 710 399 710 c 0
 534 710 606 614 582 477 c 0
 572 420 537 359 503 322 c 2
 218 0 l 1
EndSplineSet
Substitution2: "Tabular Numbers lookup" uniFF19
EndChar

StartChar: three
Encoding: 51 51 73
Width: 549
VWidth: 0
Flags: HMW
LayerCount: 2
Fore
SplineSet
313 357 m 1
 317 379 l 1
 407 379 515 438 531 530 c 0
 545 608 504 680 404 680 c 0
 308 680 234 615 218 526 c 1
 187 526 l 1
 206 635 294 710 409 710 c 0
 529 710 580 623 564 531 c 0
 545 425 427 357 313 357 c 1
278 -10 m 0
 143 -10 78 76 97 185 c 1
 129 185 l 1
 112 91 169 21 284 21 c 0
 392 21 473 87 490 181 c 0
 510 295 402 350 312 350 c 1
 316 372 l 1
 430 372 544 310 521 178 c 0
 501 66 403 -10 278 -10 c 0
EndSplineSet
Substitution2: "Tabular Numbers lookup" uniFF13
EndChar

StartChar: five
Encoding: 53 53 74
Width: 559
VWidth: 0
Flags: HMW
LayerCount: 2
Fore
SplineSet
541 230 m 0
 513 71 394 -10 266 -10 c 0
 151 -10 96 50 72 137 c 1
 103 155 l 1
 123 75 176 21 272 21 c 0
 386 21 483 96 507 230 c 0
 527 344 460 422 360 422 c 0
 279 422 216 391 148 327 c 1
 182 369 l 1
 225 415 298 452 378 452 c 0
 491 452 564 362 541 230 c 0
324 670 m 1
 200 376 l 1
 148 327 l 1
 305 700 l 1
 635 700 l 1
 630 670 l 1
 324 670 l 1
EndSplineSet
Substitution2: "Tabular Numbers lookup" uniFF15
EndChar

StartChar: six
Encoding: 54 54 75
Width: 548
VWidth: 0
Flags: HMW
LayerCount: 2
Fore
SplineSet
121 223 m 0
 100 106 164 20 278 20 c 0
 392 20 484 106 505 223 c 0
 524 333 456 418 356 418 c 0
 231 418 139 326 121 223 c 0
453 700 m 1
 493 700 l 1
 202 372 l 1
 200 374 l 1
 246 420 303 443 369 443 c 0
 483 443 559 345 537 223 c 0
 513 86 407 -10 272 -10 c 0
 137 -10 65 86 89 223 c 0
 99 280 135 341 169 378 c 2
 453 700 l 1
EndSplineSet
Substitution2: "Tabular Numbers lookup" uniFF16
EndChar

StartChar: seven
Encoding: 55 55 76
Width: 518
VWidth: 0
Flags: HMW
LayerCount: 2
Fore
SplineSet
152 669 m 1
 157 700 l 1
 633 700 l 1
 150 0 l 1
 116 0 l 1
 578 669 l 1
 152 669 l 1
EndSplineSet
Substitution2: "Tabular Numbers lookup" uniFF17
EndChar

StartChar: plus
Encoding: 43 43 77
Width: 569
VWidth: 0
Flags: HMW
LayerCount: 2
Fore
SplineSet
107 240 m 1
 113 270 l 1
 546 270 l 1
 540 240 l 1
 107 240 l 1
351 486 m 1
 384 486 l 1
 302 24 l 1
 269 24 l 1
 351 486 l 1
EndSplineSet
EndChar

StartChar: equal
Encoding: 61 61 78
Width: 615
VWidth: 0
Flags: HMW
LayerCount: 2
Fore
SplineSet
95 172 m 1
 100 201 l 1
 585 201 l 1
 580 172 l 1
 95 172 l 1
119 304 m 1
 124 334 l 1
 609 334 l 1
 604 304 l 1
 119 304 l 1
EndSplineSet
EndChar

StartChar: percent
Encoding: 37 37 79
Width: 716
VWidth: 0
Flags: HMW
LayerCount: 2
Fore
SplineSet
133 557 m 0
 148 643 219 710 311 710 c 0
 403 710 450 643 435 557 c 0
 420 471 349 404 257 404 c 0
 165 404 118 471 133 557 c 0
162 557 m 0
 150 489 186 430 262 430 c 0
 338 430 394 489 406 557 c 0
 418 625 383 684 307 684 c 0
 231 684 174 625 162 557 c 0
404 143 m 0
 419 229 490 296 582 296 c 0
 674 296 721 229 706 143 c 0
 691 57 620 -10 528 -10 c 0
 436 -10 389 57 404 143 c 0
433 143 m 0
 421 75 457 16 533 16 c 0
 609 16 665 75 677 143 c 0
 689 211 654 270 578 270 c 0
 502 270 445 211 433 143 c 0
693 700 m 1
 724 700 l 1
 146 0 l 1
 115 0 l 1
 693 700 l 1
EndSplineSet
EndChar

StartChar: ampersand
Encoding: 38 38 80
Width: 675
VWidth: 0
Flags: HMW
LayerCount: 2
Fore
SplineSet
71 176 m 1
 103 178 l 1
 85 76 154 19 255 19 c 0
 413 19 534 178 658 316 c 1
 680 301 l 1
 551 161 428 -10 249 -10 c 0
 134 -10 50 57 71 176 c 1
218 570 m 1
 232 650 299 711 399 711 c 0
 497 711 533 638 521 568 c 1
 490 568 l 1
 500 622 474 682 394 682 c 0
 311 682 261 632 250 570 c 1
 218 570 l 1
268 414 m 2
 242 452 205 496 218 570 c 1
 250 570 l 1
 239 507 268 470 294 432 c 2
 596 0 l 1
 558 0 l 1
 268 414 l 2
521 568 m 1
 509 501 448 447 345 391 c 0
 265 347 126 306 103 178 c 1
 71 176 l 1
 97 323 251 370 326 410 c 0
 420 460 480 512 490 568 c 1
 521 568 l 1
EndSplineSet
EndChar

StartChar: question
Encoding: 63 63 81
Width: 546
VWidth: 0
Flags: HMW
LayerCount: 2
Fore
SplineSet
210 12 m 0
 212 26 226 37 239 37 c 0
 252 37 260 26 258 12 c 0
 256 -2 243 -12 230 -12 c 0
 217 -12 208 -2 210 12 c 0
276 345 m 1
 311 345 l 1
 278 170 l 1
 254 170 l 1
 276 345 l 1
532 514 m 0
 549 610 497 680 386 680 c 0
 302 680 243 640 192 576 c 1
 169 593 l 1
 227 663 288 710 393 710 c 0
 518 710 583 626 563 514 c 0
 544 409 426 323 300 323 c 1
 283 345 l 1
 410 345 516 424 532 514 c 0
EndSplineSet
EndChar

StartChar: parenleft
Encoding: 40 40 82
Width: 261
VWidth: 0
Flags: HMW
LayerCount: 2
Fore
SplineSet
343 780 m 1
 369 780 l 1
 267 623 205 460 175 290 c 0
 145 120 150 -43 196 -200 c 1
 170 -200 l 1
 116 -50 111 120 141 290 c 0
 171 460 237 630 343 780 c 1
EndSplineSet
EndChar

StartChar: parenright
Encoding: 41 41 83
Width: 261
VWidth: 0
Flags: HMW
LayerCount: 2
Fore
SplineSet
21 -200 m 1
 -5 -200 l 1
 97 -43 158 120 188 290 c 0
 218 460 214 623 168 780 c 1
 194 780 l 1
 248 630 252 460 222 290 c 0
 192 120 127 -50 21 -200 c 1
EndSplineSet
EndChar

StartChar: asterisk
Encoding: 42 42 84
Width: 592
VWidth: 0
Flags: HMW
LayerCount: 2
Fore
SplineSet
568 589 m 1
 571 560 l 1
 389 510 l 1
 385 528 l 1
 568 589 l 1
481 382 m 1
 454 364 l 1
 378 512 l 1
 397 525 l 1
 481 382 l 1
266 364 m 1
 245 382 l 1
 381 525 l 1
 394 512 l 1
 266 364 l 1
219 560 m 1
 232 589 l 1
 393 528 l 1
 383 510 l 1
 219 560 l 1
405 700 m 1
 433 700 l 1
 398 519 l 1
 378 519 l 1
 405 700 l 1
EndSplineSet
EndChar

StartChar: less
Encoding: 60 60 85
Width: 640
VWidth: 0
Flags: HMW
LayerCount: 2
Fore
SplineSet
161 258 m 1
 587 67 l 1
 581 36 l 1
 109 248 l 1
 112 266 l 1
 659 479 l 1
 654 448 l 1
 161 258 l 1
EndSplineSet
EndChar

StartChar: greater
Encoding: 62 62 86
Width: 640
VWidth: 0
Flags: HMW
LayerCount: 2
Fore
SplineSet
569 256 m 1
 144 448 l 1
 149 479 l 1
 622 266 l 1
 619 249 l 1
 71 36 l 1
 77 67 l 1
 569 256 l 1
EndSplineSet
EndChar

StartChar: bracketleft
Encoding: 91 91 87
Width: 272
VWidth: 0
Flags: HMW
LayerCount: 2
Fore
SplineSet
264 750 m 1
 98 -190 l 1
 218 -190 l 1
 213 -220 l 1
 61 -220 l 1
 238 780 l 1
 390 780 l 1
 384 750 l 1
 264 750 l 1
EndSplineSet
EndChar

StartChar: bracketright
Encoding: 93 93 88
Width: 272
Flags: HMW
LayerCount: 2
Fore
SplineSet
106 -190 m 1
 272 750 l 1
 152 750 l 1
 158 780 l 1
 310 780 l 1
 133 -220 l 1
 -19 -220 l 1
 -14 -190 l 1
 106 -190 l 1
EndSplineSet
EndChar

StartChar: asciicircum
Encoding: 94 94 89
Width: 510
VWidth: 0
Flags: HMW
LayerCount: 2
Fore
SplineSet
373 672 m 1
 181 460 l 1
 146 460 l 1
 374 710 l 1
 386 710 l 1
 526 460 l 1
 491 460 l 1
 373 672 l 1
EndSplineSet
EndChar

StartChar: underscore
Encoding: 95 95 90
Width: 500
Flags: HMW
LayerCount: 2
Fore
SplineSet
-20 -116 m 1
 -16 -92 l 1
 484 -92 l 1
 480 -116 l 1
 -20 -116 l 1
EndSplineSet
EndChar

StartChar: grave
Encoding: 96 96 91
Width: 359
VWidth: 0
Flags: HMW
LayerCount: 2
Fore
SplineSet
212 682 m 1
 243 700 l 1
 379 540 l 1
 361 528 l 1
 212 682 l 1
EndSplineSet
EndChar

StartChar: braceleft
Encoding: 123 123 92
Width: 290
VWidth: 0
Flags: HMW
LayerCount: 2
Fore
SplineSet
271 646 m 2
 236 448 l 2
 220 359 179 286 126 286 c 1
 128 294 l 1
 181 294 196 221 180 132 c 2
 145 -66 l 2
 132 -141 146 -172 200 -172 c 2
 224 -172 l 1
 219 -200 l 1
 187 -200 l 2
 122 -200 98 -159 115 -60 c 2
 152 150 l 2
 165 226 148 268 120 278 c 1
 124 302 l 1
 156 312 189 354 202 430 c 2
 239 640 l 2
 256 739 295 780 360 780 c 2
 392 780 l 1
 387 752 l 1
 363 752 l 2
 309 752 284 721 271 646 c 2
EndSplineSet
EndChar

StartChar: braceright
Encoding: 125 125 93
Width: 290
VWidth: 0
Flags: HMW
LayerCount: 2
Fore
SplineSet
124 -66 m 2
 159 132 l 2
 175 221 216 294 269 294 c 1
 267 286 l 1
 214 286 199 359 215 448 c 2
 250 646 l 2
 263 721 250 752 196 752 c 2
 171 752 l 1
 176 780 l 1
 208 780 l 2
 273 780 296 739 279 640 c 2
 242 430 l 2
 229 354 247 312 275 302 c 1
 271 278 l 1
 239 268 205 226 192 150 c 2
 155 -60 l 2
 138 -159 100 -200 35 -200 c 2
 3 -200 l 1
 8 -172 l 1
 33 -172 l 2
 87 -172 111 -141 124 -66 c 2
EndSplineSet
EndChar

StartChar: asciitilde
Encoding: 126 126 94
Width: 575
VWidth: 0
Flags: HMW
LayerCount: 2
Fore
SplineSet
135 178 m 1
 107 181 l 1
 106 188 106 196 108 205 c 0
 113 235 126 264 148 286 c 0
 174 312 207 327 245 327 c 0
 298 327 325 290 351 258 c 0
 372 231 397 202 436 202 c 0
 486 202 516 239 525 292 c 0
 526 300 527 312 525 322 c 1
 555 318 l 1
 556 310 556 300 554 290 c 0
 549 262 538 232 518 210 c 0
 494 184 465 172 431 172 c 0
 383 172 358 204 332 236 c 0
 311 262 285 298 239 298 c 0
 184 298 145 258 135 200 c 0
 134 193 133 186 135 178 c 1
EndSplineSet
EndChar

StartChar: exclamdown
Encoding: 161 161 95
Width: 300
VWidth: 0
Flags: HMW
LayerCount: 2
Fore
SplineSet
140 -245 m 1
 101 -245 l 1
 197 255 l 1
 219 255 l 1
 140 -245 l 1
266 442 m 0
 264 428 251 418 238 418 c 0
 225 418 215 428 217 442 c 0
 219 456 233 466 246 466 c 0
 259 466 268 456 266 442 c 0
EndSplineSet
EndChar

StartChar: cent
Encoding: 162 162 96
Width: 580
VWidth: 0
Flags: HMW
LayerCount: 2
Fore
SplineSet
306 8 m 1
 328 8 l 1
 310 -112 l 1
 282 -112 l 1
 306 8 l 1
157 230 m 0
 136 110 207 20 323 20 c 0
 397 20 466 57 492 88 c 1
 484 48 l 1
 454 19 387 -10 317 -10 c 0
 184 -10 100 91 125 230 c 0
 150 369 269 470 402 470 c 0
 472 470 530 440 549 412 c 1
 542 372 l 1
 526 403 471 440 397 440 c 0
 281 440 178 350 157 230 c 0
404 578 m 1
 432 578 l 1
 407 452 l 1
 385 452 l 1
 404 578 l 1
EndSplineSet
EndChar

StartChar: sterling
Encoding: 163 163 97
Width: 580
VWidth: 0
Flags: HMW
LayerCount: 2
Fore
SplineSet
138 324 m 1
 463 324 l 1
 458 295 l 1
 133 295 l 1
 138 324 l 1
559 492 m 1
 569 569 544 678 434 678 c 0
 344 678 271 612 257 532 c 0
 236 411 343 372 324 264 c 0
 305 158 170 54 124 15 c 1
 124 31 l 1
 508 31 l 1
 503 0 l 1
 85 0 l 1
 187 102 276 172 292 260 c 0
 310 360 201 403 224 532 c 0
 241 630 327 710 439 710 c 0
 572 710 597 581 588 501 c 1
 559 492 l 1
EndSplineSet
EndChar

StartChar: currency
Encoding: 164 164 98
Width: 566
VWidth: 0
Flags: HMW
LayerCount: 2
Fore
SplineSet
142 517 m 1
 168 539 l 1
 227 466 l 1
 202 445 l 1
 142 517 l 1
84 61 m 1
 66 83 l 1
 151 155 l 1
 169 134 l 1
 84 61 l 1
527 445 m 1
 509 466 l 1
 595 539 l 1
 612 517 l 1
 527 445 l 1
451 134 m 1
 476 155 l 1
 536 83 l 1
 511 61 l 1
 451 134 l 1
105 300 m 0
 130 439 250 540 378 540 c 0
 506 540 592 439 567 300 c 0
 542 161 422 60 294 60 c 0
 166 60 80 161 105 300 c 0
137 300 m 0
 116 180 188 90 299 90 c 0
 410 90 514 180 535 300 c 0
 556 420 484 510 373 510 c 0
 262 510 158 420 137 300 c 0
EndSplineSet
EndChar

StartChar: yen
Encoding: 165 165 99
Width: 569
VWidth: 0
Flags: HMW
LayerCount: 2
Fore
SplineSet
308 300 m 1
 341 300 l 1
 288 0 l 1
 255 0 l 1
 308 300 l 1
611 700 m 1
 647 700 l 1
 316 248 l 1
 149 700 l 1
 186 700 l 1
 327 310 l 1
 611 700 l 1
59 144 m 1
 65 173 l 1
 545 173 l 1
 539 144 l 1
 59 144 l 1
83 276 m 1
 88 306 l 1
 568 306 l 1
 563 276 l 1
 83 276 l 1
EndSplineSet
EndChar

StartChar: brokenbar
Encoding: 166 166 100
Width: 229
VWidth: 0
Flags: HMW
LayerCount: 2
Fore
SplineSet
223 695 m 1
 252 695 l 1
 209 455 l 1
 180 455 l 1
 223 695 l 1
172 245 m 1
 130 5 l 1
 101 5 l 1
 143 245 l 1
 172 245 l 1
EndSplineSet
EndChar

StartChar: section
Encoding: 167 167 101
Width: 401
VWidth: 0
Flags: HMW
LayerCount: 2
Fore
SplineSet
450 605 m 1
 438 651 381 680 325 680 c 0
 271 680 205 655 195 596 c 0
 185 537 271 511 318 490 c 0
 378 463 447 430 435 363 c 0
 420 278 347 240 248 240 c 1
 250 250 l 1
 330 260 392 300 403 361 c 0
 413 418 340 448 291 469 c 0
 232 494 150 519 164 596 c 0
 177 672 255 710 329 710 c 0
 402 710 467 671 476 620 c 1
 450 605 l 1
80 137 m 1
 81 74 141 20 219 20 c 0
 276 20 346 39 358 107 c 0
 371 178 300 203 244 228 c 0
 187 254 110 289 122 359 c 0
 133 421 195 480 309 480 c 1
 307 472 l 1
 217 459 162 410 154 362 c 0
 143 298 223 269 270 248 c 0
 330 221 404 190 390 109 c 0
 375 24 297 -10 212 -10 c 0
 127 -10 53 48 52 123 c 1
 80 137 l 1
EndSplineSet
EndChar

StartChar: dieresis
Encoding: 168 168 102
Width: 436
VWidth: 0
Flags: HMW
LayerCount: 2
Fore
SplineSet
414 680 m 0
 416 694 429 704 442 704 c 0
 455 704 464 694 462 680 c 0
 460 666 447 656 434 656 c 0
 421 656 412 666 414 680 c 0
214 680 m 0
 216 694 229 704 242 704 c 0
 255 704 264 694 262 680 c 0
 260 666 247 656 234 656 c 0
 221 656 212 666 214 680 c 0
EndSplineSet
EndChar

StartChar: copyright
Encoding: 169 169 103
Width: 800
VWidth: 0
Flags: HMW
LayerCount: 2
Fore
SplineSet
272 350 m 0
 252 236 313 155 418 155 c 0
 477 155 524 174 563 209 c 1
 558 182 l 1
 518 151 476 134 415 134 c 0
 299 134 229 225 251 350 c 0
 273 475 375 566 491 566 c 0
 552 566 587 549 617 518 c 1
 613 492 l 1
 587 527 544 545 487 545 c 0
 382 545 292 465 272 350 c 0
126 350 m 0
 91 154 215 12 402 12 c 0
 589 12 763 154 798 350 c 0
 833 546 708 688 521 688 c 0
 334 688 161 546 126 350 c 0
102 350 m 0
 139 559 321 710 525 710 c 0
 729 710 859 559 822 350 c 0
 785 141 602 -10 398 -10 c 0
 194 -10 65 141 102 350 c 0
EndSplineSet
EndChar

StartChar: registered
Encoding: 174 174 104
Width: 800
VWidth: 0
Flags: HMW
LayerCount: 2
Fore
SplineSet
421 345 m 1
 444 345 l 1
 547 150 l 1
 522 150 l 1
 421 345 l 1
393 570 m 1
 413 570 l 1
 338 150 l 1
 318 150 l 1
 393 570 l 1
399 552 m 1
 403 570 l 1
 475 570 l 2
 556 570 611 528 597 451 c 0
 583 374 514 332 433 332 c 2
 361 332 l 1
 364 350 l 1
 436 350 l 2
 508 350 565 383 577 451 c 0
 589 519 543 552 471 552 c 2
 399 552 l 1
126 350 m 0
 91 154 215 12 402 12 c 0
 589 12 763 154 798 350 c 0
 833 546 708 688 521 688 c 0
 334 688 161 546 126 350 c 0
102 350 m 0
 139 559 321 710 525 710 c 0
 729 710 859 559 822 350 c 0
 785 141 602 -10 398 -10 c 0
 194 -10 65 141 102 350 c 0
EndSplineSet
EndChar

StartChar: ordfeminine
Encoding: 170 170 105
Width: 238
VWidth: 0
Flags: HMW
LayerCount: 2
Fore
SplineSet
133 529 m 0
 126 488 151 470 187 470 c 0
 229 470 270 500 278 543 c 1
 281 536 l 1
 273 492 232 455 182 455 c 0
 143 455 108 478 117 529 c 0
 125 577 176 604 223 604 c 0
 263 604 281 588 289 580 c 1
 287 568 l 1
 274 580 253 592 221 592 c 0
 181 592 140 569 133 529 c 0
168 657 m 1
 162 670 l 1
 181 685 210 702 248 702 c 0
 295 702 316 672 308 628 c 2
 278 460 l 1
 263 460 l 1
 293 628 l 2
 300 665 282 688 245 688 c 0
 212 688 187 672 168 657 c 1
EndSplineSet
EndChar

StartChar: ordmasculine
Encoding: 186 186 106
Width: 278
VWidth: 0
Flags: HMW
LayerCount: 2
Fore
SplineSet
122 580 m 0
 134 650 194 700 262 700 c 0
 330 700 372 650 360 580 c 0
 348 510 288 460 220 460 c 0
 152 460 110 510 122 580 c 0
141 580 m 0
 130 520 167 478 223 478 c 0
 279 478 330 520 341 580 c 0
 352 640 315 682 259 682 c 0
 203 682 152 640 141 580 c 0
EndSplineSet
EndChar

StartChar: guillemotleft
Encoding: 171 171 107
Width: 492
VWidth: 0
Flags: HMW
LayerCount: 2
Fore
SplineSet
112 249 m 1
 85 255 l 1
 328 490 l 1
 345 472 l 1
 112 249 l 1
85 255 m 1
 115 264 l 1
 269 38 l 1
 246 20 l 1
 85 255 l 1
272 249 m 1
 245 255 l 1
 488 490 l 1
 505 472 l 1
 272 249 l 1
245 255 m 1
 275 264 l 1
 429 38 l 1
 406 20 l 1
 245 255 l 1
EndSplineSet
EndChar

StartChar: guillemotright
Encoding: 187 187 108
Width: 492
VWidth: 0
Flags: HMW
LayerCount: 2
Fore
SplineSet
470 261 m 1
 497 255 l 1
 254 20 l 1
 237 38 l 1
 470 261 l 1
497 255 m 1
 467 246 l 1
 313 472 l 1
 336 490 l 1
 497 255 l 1
310 261 m 1
 337 255 l 1
 94 20 l 1
 77 38 l 1
 310 261 l 1
337 255 m 1
 307 246 l 1
 153 472 l 1
 176 490 l 1
 337 255 l 1
EndSplineSet
EndChar

StartChar: uni00AD
Encoding: 173 173 109
Width: 210
VWidth: 0
Flags: HMW
LayerCount: 2
Fore
SplineSet
48 246 m 1
 53 275 l 1
 253 275 l 1
 248 246 l 1
 48 246 l 1
EndSplineSet
EndChar

StartChar: logicalnot
Encoding: 172 172 110
Width: 620
VWidth: 0
Flags: HMW
LayerCount: 2
Fore
SplineSet
126 346 m 1
 131 375 l 1
 621 375 l 1
 616 346 l 1
 126 346 l 1
592 375 m 1
 621 375 l 1
 586 175 l 1
 557 175 l 1
 592 375 l 1
EndSplineSet
EndChar

StartChar: macron
Encoding: 175 175 111
Width: 510
VWidth: 0
Flags: HMW
LayerCount: 2
Fore
SplineSet
194 646 m 1
 199 675 l 1
 549 675 l 1
 544 646 l 1
 194 646 l 1
EndSplineSet
EndChar

StartChar: degree
Encoding: 176 176 112
Width: 278
VWidth: 0
Flags: HMW
LayerCount: 2
Fore
SplineSet
126 600 m 0
 138 670 198 720 266 720 c 0
 334 720 376 670 364 600 c 0
 352 530 292 480 224 480 c 0
 156 480 114 530 126 600 c 0
145 600 m 0
 134 540 171 498 227 498 c 0
 283 498 334 540 345 600 c 0
 356 660 319 702 263 702 c 0
 207 702 156 660 145 600 c 0
EndSplineSet
EndChar

StartChar: plusminus
Encoding: 177 177 113
Width: 611
VWidth: 0
Flags: HMW
LayerCount: 2
Fore
SplineSet
65 0 m 1
 70 31 l 1
 551 31 l 1
 546 0 l 1
 65 0 l 1
130 370 m 1
 136 400 l 1
 617 400 l 1
 611 370 l 1
 130 370 l 1
399 620 m 1
 431 620 l 1
 348 150 l 1
 316 150 l 1
 399 620 l 1
EndSplineSet
EndChar

StartChar: uni00B2
Encoding: 178 178 114
Width: 336
VWidth: 0
Flags: HMW
LayerCount: 2
Fore
SplineSet
78 282 m 1
 308 486 l 2
 341 516 372 547 380 592 c 0
 388 636 370 690 300 690 c 0
 234 690 180 636 166 558 c 1
 146 558 l 1
 162 647 225 709 303 709 c 0
 387 709 408 642 399 590 c 0
 391 543 359 507 322 475 c 2
 123 300 l 1
 361 300 l 1
 358 282 l 1
 78 282 l 1
EndSplineSet
EndChar

StartChar: uni00B3
Encoding: 179 179 115
Width: 309
VWidth: 0
Flags: HMW
LayerCount: 2
Fore
SplineSet
227 494 m 1
 230 508 l 1
 284 508 349 542 359 598 c 0
 367 645 343 688 283 688 c 0
 226 688 181 650 171 596 c 1
 151 596 l 1
 162 661 217 706 286 706 c 0
 358 706 388 653 378 598 c 0
 367 535 295 494 227 494 c 1
206 274 m 0
 125 274 86 326 97 391 c 1
 117 391 l 1
 107 334 140 292 209 292 c 0
 274 292 324 332 334 388 c 0
 346 456 280 490 226 490 c 1
 229 503 l 1
 297 503 367 466 353 387 c 0
 341 320 281 274 206 274 c 0
EndSplineSet
EndChar

StartChar: acute
Encoding: 180 180 116
Width: 359
VWidth: 0
Flags: HMW
LayerCount: 2
Fore
SplineSet
387 682 m 1
 185 528 l 1
 170 540 l 1
 362 700 l 1
 387 682 l 1
EndSplineSet
EndChar

StartChar: mu
Encoding: 181 181 117
Width: 490
VWidth: 0
Flags: HMW
LayerCount: 2
Fore
SplineSet
377 0 m 1
 458 460 l 1
 489 460 l 1
 408 0 l 1
 377 0 l 1
141 159 m 2
 126 73 150 20 232 20 c 0
 316 20 394 94 409 180 c 1
 424 180 l 1
 405 71 315 -10 220 -10 c 0
 125 -10 91 51 110 156 c 2
 163 460 l 1
 194 460 l 1
 141 159 l 2
163 460 m 1
 194 460 l 1
 57 -320 l 1
 26 -320 l 1
 163 460 l 1
EndSplineSet
EndChar

StartChar: paragraph
Encoding: 182 182 118
Width: 487
VWidth: 0
Flags: HMW
LayerCount: 2
Fore
SplineSet
407 674 m 1
 411 700 l 1
 541 700 l 1
 537 674 l 1
 407 674 l 1
522 700 m 1
 550 700 l 1
 388 -220 l 1
 360 -220 l 1
 522 700 l 1
411 700 m 1
 439 700 l 1
 277 -220 l 1
 249 -220 l 1
 411 700 l 1
336 270 m 1
 211 270 121 346 146 485 c 0
 171 624 286 700 411 700 c 1
 336 270 l 1
EndSplineSet
EndChar

StartChar: periodcentered
Encoding: 183 183 119
Width: 259
VWidth: 0
Flags: HMW
LayerCount: 2
Fore
SplineSet
146 226 m 0
 148 240 161 251 174 251 c 0
 187 251 196 240 194 226 c 0
 192 212 179 202 166 202 c 0
 153 202 144 212 146 226 c 0
EndSplineSet
EndChar

StartChar: uni00B9
Encoding: 185 185 120
Width: 470
VWidth: 0
Flags: HMW
LayerCount: 2
Fore
SplineSet
261 650 m 1
 264 670 l 1
 387 698 l 1
 312 274 l 1
 293 274 l 1
 364 674 l 1
 261 650 l 1
EndSplineSet
EndChar

StartChar: cedilla
Encoding: 184 184 121
Width: 350
Flags: HMW
LayerCount: 2
Fore
SplineSet
185 18 m 1
 211 18 l 1
 138 -70 l 1
 101 -94 l 1
 185 18 l 1
253 -126 m 1
 229 -126 l 1
 236 -88 210 -70 180 -70 c 0
 156 -70 127 -78 101 -94 c 1
 125 -74 l 1
 154 -58 166 -52 193 -52 c 0
 226 -52 262 -77 253 -126 c 1
253 -126 m 1
 242 -187 184 -220 129 -220 c 0
 92 -220 70 -210 47 -182 c 1
 65 -166 l 1
 87 -188 102 -197 133 -197 c 0
 176 -197 221 -172 229 -126 c 1
 253 -126 l 1
EndSplineSet
EndChar

StartChar: questiondown
Encoding: 191 191 122
Width: 546
VWidth: 0
Flags: HMW
LayerCount: 2
Fore
SplineSet
459 688 m 0
 457 674 444 663 431 663 c 0
 418 663 409 674 411 688 c 0
 413 702 427 712 440 712 c 0
 453 712 461 702 459 688 c 0
395 355 m 1
 359 355 l 1
 391 530 l 1
 415 530 l 1
 395 355 l 1
139 186 m 0
 122 90 174 20 285 20 c 0
 369 20 428 60 479 124 c 1
 502 107 l 1
 444 37 381 -10 276 -10 c 0
 151 -10 87 74 107 186 c 0
 126 291 244 377 370 377 c 1
 387 355 l 1
 260 355 155 276 139 186 c 0
EndSplineSet
EndChar

StartChar: multiply
Encoding: 215 215 123
Width: 583
VWidth: 0
Flags: HMW
LayerCount: 2
Fore
SplineSet
105 39 m 1
 87 60 l 1
 317 254 l 1
 155 449 l 1
 180 470 l 1
 340 274 l 1
 569 470 l 1
 587 449 l 1
 356 254 l 1
 518 60 l 1
 493 39 l 1
 333 235 l 1
 105 39 l 1
EndSplineSet
EndChar

StartChar: Oslash
Encoding: 216 216 124
Width: 790
VWidth: 0
Flags: HMW
LayerCount: 2
Fore
SplineSet
144 350 m 0
 111 162 214 24 394 24 c 0
 574 24 726 162 759 350 c 0
 792 538 689 676 509 676 c 0
 329 676 177 538 144 350 c 0
109 350 m 0
 146 558 318 708 515 708 c 0
 712 708 831 558 794 350 c 0
 757 142 586 -8 389 -8 c 0
 192 -8 72 142 109 350 c 0
835 738 m 1
 857 722 l 1
 74 -38 l 1
 53 -22 l 1
 835 738 l 1
EndSplineSet
EndChar

StartChar: Thorn
Encoding: 222 222 125
Width: 529
VWidth: 0
Flags: HMW
LayerCount: 2
Fore
SplineSet
274 140 m 1
 279 171 l 1
 393 171 497 243 516 350 c 0
 536 464 456 529 342 529 c 1
 348 560 l 1
 483 560 572 479 549 350 c 0
 526 221 409 140 274 140 c 1
122 140 m 1
 127 171 l 1
 279 171 l 1
 274 140 l 1
 122 140 l 1
190 529 m 1
 196 560 l 1
 348 560 l 1
 342 529 l 1
 190 529 l 1
203 700 m 1
 235 700 l 1
 112 0 l 1
 80 0 l 1
 203 700 l 1
EndSplineSet
EndChar

StartChar: divide
Encoding: 247 247 126
Width: 623
Flags: HMW
LayerCount: 2
Fore
SplineSet
365 450 m 0
 367 464 381 475 394 475 c 0
 407 475 415 464 413 450 c 0
 411 436 398 426 385 426 c 0
 372 426 363 436 365 450 c 0
293 42 m 0
 295 56 309 67 322 67 c 0
 335 67 343 56 341 42 c 0
 339 28 326 18 313 18 c 0
 300 18 291 28 293 42 c 0
101 232 m 1
 106 263 l 1
 606 263 l 1
 601 232 l 1
 101 232 l 1
EndSplineSet
EndChar

StartChar: oslash
Encoding: 248 248 127
Width: 546
VWidth: 0
Flags: HMW
LayerCount: 2
Fore
SplineSet
83 230 m 0
 108 369 226 470 359 470 c 0
 492 470 577 369 552 230 c 0
 527 91 407 -10 274 -10 c 0
 141 -10 58 91 83 230 c 0
115 230 m 0
 93 108 166 20 280 20 c 0
 394 20 499 108 521 230 c 0
 543 352 468 440 354 440 c 0
 240 440 137 352 115 230 c 0
539 495 m 1
 558 485 l 1
 75 -39 l 1
 57 -29 l 1
 539 495 l 1
EndSplineSet
EndChar

StartChar: circumflex
Encoding: 710 710 128
Width: 480
VWidth: 0
Flags: HMW
LayerCount: 2
Fore
SplineSet
363 696 m 1
 201 573 l 1
 184 590 l 1
 369 730 l 1
 504 590 l 1
 481 573 l 1
 363 696 l 1
EndSplineSet
EndChar

StartChar: ogonek
Encoding: 731 731 129
Width: 253
VWidth: 0
Flags: HMW
LayerCount: 2
Fore
SplineSet
177 -160 m 1
 188 -180 l 1
 169 -200 129 -220 86 -220 c 0
 16 -220 -17 -186 -8 -134 c 1
 24 -128 l 1
 16 -171 48 -192 92 -192 c 0
 128 -192 160 -176 177 -160 c 1
24 -128 m 1
 -8 -134 l 1
 4 -68 88 -22 164 14 c 1
 180 0 l 1
 112 -29 33 -77 24 -128 c 1
EndSplineSet
EndChar

StartChar: tilde
Encoding: 732 732 130
Width: 530
VWidth: 0
Flags: HMW
LayerCount: 2
Fore
SplineSet
243 642 m 1
 252 677 284 707 329 707 c 0
 387 707 390 660 444 660 c 0
 470 660 487 676 509 708 c 1
 526 693 l 1
 503 656 474 634 438 634 c 0
 383 634 370 681 325 681 c 0
 284 681 267 652 263 630 c 1
 243 642 l 1
EndSplineSet
EndChar

StartChar: ring
Encoding: 730 730 131
Width: 278
VWidth: 0
Flags: HMW
LayerCount: 2
Fore
SplineSet
175 785 m 0
 186 845 243 885 295 885 c 0
 347 885 390 845 379 785 c 0
 368 725 312 685 260 685 c 0
 208 685 164 725 175 785 c 0
198 785 m 0
 190 738 222 706 263 706 c 0
 304 706 348 738 356 785 c 0
 364 832 332 864 291 864 c 0
 250 864 206 832 198 785 c 0
EndSplineSet
EndChar

StartChar: dotaccent
Encoding: 729 729 132
Width: 259
VWidth: 0
Flags: HMW
LayerCount: 2
Fore
SplineSet
240 762 m 0
 242 776 256 787 269 787 c 0
 282 787 290 776 288 762 c 0
 286 748 273 738 260 738 c 0
 247 738 238 748 240 762 c 0
EndSplineSet
EndChar

StartChar: uni2010
Encoding: 8208 8208 133
Width: 210
VWidth: 0
Flags: HMW
LayerCount: 2
Fore
SplineSet
48 246 m 1
 53 275 l 1
 253 275 l 1
 248 246 l 1
 48 246 l 1
EndSplineSet
EndChar

StartChar: endash
Encoding: 8211 8211 134
Width: 740
VWidth: 0
Flags: HMW
LayerCount: 2
Fore
SplineSet
113 246 m 1
 118 275 l 1
 718 275 l 1
 713 246 l 1
 113 246 l 1
EndSplineSet
EndChar

StartChar: figuredash
Encoding: 8210 8210 135
Width: 590
VWidth: 0
Flags: HMW
LayerCount: 2
Fore
SplineSet
113 246 m 1
 118 275 l 1
 568 275 l 1
 563 246 l 1
 113 246 l 1
EndSplineSet
EndChar

StartChar: emdash
Encoding: 8212 8212 136
Width: 890
VWidth: 0
Flags: HMW
LayerCount: 2
Fore
SplineSet
113 246 m 1
 118 275 l 1
 868 275 l 1
 863 246 l 1
 113 246 l 1
EndSplineSet
EndChar

StartChar: minus
Encoding: 8722 8722 137
Width: 590
VWidth: 0
Flags: HMW
LayerCount: 2
Fore
SplineSet
113 246 m 1
 118 275 l 1
 568 275 l 1
 563 246 l 1
 113 246 l 1
EndSplineSet
EndChar

StartChar: quoteright
Encoding: 8217 8217 138
Width: 254
VWidth: 0
Flags: HMW
LayerCount: 2
Fore
SplineSet
277 700 m 1
 314 700 l 1
 177 470 l 1
 154 470 l 1
 277 700 l 1
EndSplineSet
EndChar

StartChar: quoteleft
Encoding: 8216 8216 139
Width: 240
VWidth: 0
Flags: HMW
LayerCount: 2
Fore
SplineSet
183 470 m 1
 146 470 l 1
 283 700 l 1
 306 700 l 1
 183 470 l 1
EndSplineSet
EndChar

StartChar: quotesinglbase
Encoding: 8218 8218 140
Width: 254
VWidth: 0
Flags: HMW
LayerCount: 2
Fore
SplineSet
157 80 m 1
 194 80 l 1
 58 -150 l 1
 34 -150 l 1
 157 80 l 1
EndSplineSet
EndChar

StartChar: quotedblleft
Encoding: 8220 8220 141
Width: 412
VWidth: 0
Flags: HMW
LayerCount: 2
Fore
SplineSet
197 470 m 1
 160 470 l 1
 297 700 l 1
 320 700 l 1
 197 470 l 1
355 470 m 1
 318 470 l 1
 455 700 l 1
 478 700 l 1
 355 470 l 1
EndSplineSet
EndChar

StartChar: quotedblright
Encoding: 8221 8221 142
Width: 412
VWidth: 0
Flags: HMW
LayerCount: 2
Fore
SplineSet
263 700 m 1
 300 700 l 1
 163 470 l 1
 140 470 l 1
 263 700 l 1
421 700 m 1
 458 700 l 1
 321 470 l 1
 298 470 l 1
 421 700 l 1
EndSplineSet
EndChar

StartChar: perthousand
Encoding: 8240 8240 143
Width: 1089
VWidth: 0
Flags: HMW
LayerCount: 2
Fore
SplineSet
777 143 m 0
 792 229 863 296 955 296 c 0
 1047 296 1094 229 1079 143 c 0
 1064 57 993 -10 901 -10 c 0
 809 -10 762 57 777 143 c 0
805 143 m 0
 793 75 830 16 906 16 c 0
 982 16 1039 75 1051 143 c 0
 1063 211 1027 270 951 270 c 0
 875 270 817 211 805 143 c 0
133 557 m 0
 148 643 219 710 311 710 c 0
 403 710 450 643 435 557 c 0
 420 471 349 404 257 404 c 0
 165 404 118 471 133 557 c 0
162 557 m 0
 150 489 186 430 262 430 c 0
 338 430 394 489 406 557 c 0
 418 625 383 684 307 684 c 0
 231 684 174 625 162 557 c 0
404 143 m 0
 419 229 490 296 582 296 c 0
 674 296 721 229 706 143 c 0
 691 57 620 -10 528 -10 c 0
 436 -10 389 57 404 143 c 0
433 143 m 0
 421 75 457 16 533 16 c 0
 609 16 665 75 677 143 c 0
 689 211 654 270 578 270 c 0
 502 270 445 211 433 143 c 0
693 700 m 1
 724 700 l 1
 146 0 l 1
 115 0 l 1
 693 700 l 1
EndSplineSet
EndChar

StartChar: guilsinglleft
Encoding: 8249 8249 144
Width: 332
VWidth: 0
Flags: HMW
LayerCount: 2
Fore
SplineSet
112 249 m 1
 85 255 l 1
 328 490 l 1
 345 472 l 1
 112 249 l 1
85 255 m 1
 115 264 l 1
 269 38 l 1
 246 20 l 1
 85 255 l 1
EndSplineSet
EndChar

StartChar: guilsinglright
Encoding: 8250 8250 145
Width: 350
VWidth: 0
Flags: HMW
LayerCount: 2
Fore
SplineSet
328 261 m 1
 355 255 l 1
 112 20 l 1
 95 38 l 1
 328 261 l 1
355 255 m 1
 325 246 l 1
 171 472 l 1
 194 490 l 1
 355 255 l 1
EndSplineSet
EndChar

StartChar: uni2031
Encoding: 8241 8241 146
Width: 1462
VWidth: 0
Flags: HMW
LayerCount: 2
Fore
SplineSet
1150 143 m 0
 1165 229 1236 296 1328 296 c 0
 1420 296 1467 229 1452 143 c 0
 1437 57 1366 -10 1274 -10 c 0
 1182 -10 1135 57 1150 143 c 0
1179 143 m 0
 1167 75 1203 16 1279 16 c 0
 1355 16 1411 75 1423 143 c 0
 1435 211 1400 270 1324 270 c 0
 1248 270 1191 211 1179 143 c 0
777 143 m 0
 792 229 863 296 955 296 c 0
 1047 296 1094 229 1079 143 c 0
 1064 57 993 -10 901 -10 c 0
 809 -10 762 57 777 143 c 0
805 143 m 0
 793 75 830 16 906 16 c 0
 982 16 1039 75 1051 143 c 0
 1063 211 1027 270 951 270 c 0
 875 270 817 211 805 143 c 0
133 557 m 0
 148 643 219 710 311 710 c 0
 403 710 450 643 435 557 c 0
 420 471 349 404 257 404 c 0
 165 404 118 471 133 557 c 0
162 557 m 0
 150 489 186 430 262 430 c 0
 338 430 394 489 406 557 c 0
 418 625 383 684 307 684 c 0
 231 684 174 625 162 557 c 0
404 143 m 0
 419 229 490 296 582 296 c 0
 674 296 721 229 706 143 c 0
 691 57 620 -10 528 -10 c 0
 436 -10 389 57 404 143 c 0
433 143 m 0
 421 75 457 16 533 16 c 0
 609 16 665 75 677 143 c 0
 689 211 654 270 578 270 c 0
 502 270 445 211 433 143 c 0
693 700 m 1
 724 700 l 1
 146 0 l 1
 115 0 l 1
 693 700 l 1
EndSplineSet
EndChar

StartChar: uni203D
Encoding: 8253 8253 147
Width: 557
VWidth: 0
Flags: HMW
LayerCount: 2
Fore
SplineSet
532 514 m 0
 549 610 497 680 386 680 c 0
 302 680 243 640 192 576 c 1
 169 593 l 1
 227 663 288 710 393 710 c 0
 518 710 583 626 563 514 c 0
 544 409 433 323 321 323 c 1
 305 345 l 1
 418 345 516 424 532 514 c 0
324 510 m 1
 362 510 l 1
 294 170 l 1
 272 170 l 1
 324 510 l 1
232 12 m 0
 234 26 248 37 261 37 c 0
 274 37 282 26 280 12 c 0
 278 -2 265 -12 252 -12 c 0
 239 -12 230 -2 232 12 c 0
EndSplineSet
EndChar

StartChar: Euro
Encoding: 8364 8364 148
Width: 664
VWidth: 0
Flags: HMW
LayerCount: 2
Fore
SplineSet
134 434 m 1
 137 455 l 1
 638 455 l 1
 635 434 l 1
 134 434 l 1
112 314 m 1
 116 335 l 1
 591 335 l 1
 587 314 l 1
 112 314 l 1
220 350 m 0
 186 158 266 21 416 21 c 0
 473 21 528 39 575 72 c 1
 567 31 l 1
 517 5 464 -10 410 -10 c 0
 236 -10 151 141 188 350 c 0
 225 559 363 710 537 710 c 0
 591 710 640 695 680 669 c 1
 673 628 l 1
 638 661 589 679 532 679 c 0
 374 679 254 542 220 350 c 0
EndSplineSet
EndChar

StartChar: fraction
Encoding: 8260 8260 149
Width: 705
VWidth: 0
Flags: HMW
LayerCount: 2
Fore
SplineSet
740 700 m 1
 768 700 l 1
 88 0 l 1
 60 0 l 1
 740 700 l 1
EndSplineSet
EndChar

StartChar: onequarter
Encoding: 188 188 150
Width: 754
VWidth: 0
Flags: HMW
LayerCount: 2
Fore
SplineSet
778 700 m 1
 806 700 l 1
 126 0 l 1
 98 0 l 1
 778 700 l 1
139 650 m 1
 142 670 l 1
 265 698 l 1
 190 274 l 1
 171 274 l 1
 242 674 l 1
 139 650 l 1
415 84 m 1
 435 102 l 1
 644 102 l 0
 648 102 l 0
 722 102 l 1
 719 84 l 1
 415 84 l 1
436 84 m 1
 415 84 l 1
 705 420 l 25
 712 420 l 1
 638 0 l 1
 618 0 l 1
 634 92 l 0
 635 95 l 0
 684 372 l 1
 436 84 l 1
EndSplineSet
EndChar

StartChar: onehalf
Encoding: 189 189 151
Width: 819
VWidth: 0
Flags: HMW
LayerCount: 2
Fore
SplineSet
778 700 m 1
 806 700 l 1
 126 0 l 1
 98 0 l 1
 778 700 l 1
139 650 m 1
 142 670 l 1
 265 698 l 1
 190 274 l 1
 171 274 l 1
 242 674 l 1
 139 650 l 1
495 2 m 1
 725 206 l 2
 758 236 789 266 797 311 c 0
 805 355 786 410 716 410 c 0
 650 410 597 356 583 278 c 1
 564 278 l 1
 580 367 642 429 720 429 c 0
 804 429 826 362 817 310 c 0
 809 263 775 227 738 195 c 2
 541 20 l 1
 778 20 l 1
 774 2 l 1
 495 2 l 1
EndSplineSet
EndChar

StartChar: threequarters
Encoding: 190 190 152
Width: 820
VWidth: 0
Flags: HMW
LayerCount: 2
Fore
SplineSet
845 700 m 1
 873 700 l 1
 193 0 l 1
 165 0 l 1
 845 700 l 1
233 494 m 1
 236 508 l 1
 290 508 353 542 363 598 c 0
 371 645 347 688 287 688 c 0
 230 688 185 650 175 596 c 1
 157 596 l 1
 168 661 221 706 290 706 c 0
 362 706 393 653 383 598 c 0
 372 535 301 494 233 494 c 1
212 274 m 0
 131 274 92 326 103 391 c 1
 123 391 l 1
 113 334 146 292 215 292 c 0
 280 292 328 332 338 388 c 0
 350 456 286 490 232 490 c 1
 235 503 l 1
 303 503 372 466 358 387 c 0
 346 320 287 274 212 274 c 0
482 84 m 1
 502 102 l 1
 710 102 l 0
 715 102 l 0
 788 102 l 1
 785 84 l 1
 482 84 l 1
503 84 m 1
 482 84 l 1
 772 420 l 25
 778 420 l 1
 704 0 l 1
 685 0 l 1
 701 92 l 0
 702 95 l 0
 751 372 l 1
 503 84 l 1
EndSplineSet
EndChar

StartChar: uni2150
Encoding: 8528 8528 153
Width: 842
VWidth: 0
Flags: HMW
LayerCount: 2
Fore
SplineSet
728 700 m 1
 756 700 l 1
 76 0 l 1
 48 0 l 1
 728 700 l 1
139 650 m 1
 142 670 l 1
 265 698 l 1
 190 274 l 1
 171 274 l 1
 242 674 l 1
 139 650 l 1
593 402 m 1
 596 420 l 1
 881 420 l 1
 592 0 l 1
 570 0 l 1
 849 402 l 1
 593 402 l 1
EndSplineSet
EndChar

StartChar: uni2151
Encoding: 8529 8529 154
Width: 784
VWidth: 0
Flags: HMW
LayerCount: 2
Fore
SplineSet
728 700 m 1
 756 700 l 1
 76 0 l 1
 48 0 l 1
 728 700 l 1
139 650 m 1
 142 670 l 1
 265 698 l 1
 190 274 l 1
 171 274 l 1
 242 674 l 1
 139 650 l 1
773 288 m 0
 785 358 746 410 678 410 c 0
 610 410 553 358 541 288 c 0
 529 222 572 172 632 172 c 0
 707 172 762 226 773 288 c 0
573 2 m 1
 548 2 l 1
 725 199 l 1
 725 198 l 1
 698 170 664 156 624 156 c 0
 556 156 510 215 523 288 c 0
 537 370 600 428 681 428 c 0
 762 428 806 370 792 288 c 0
 786 254 764 218 744 196 c 2
 573 2 l 1
EndSplineSet
EndChar

StartChar: uni2152
Encoding: 8530 8530 155
Width: 1080
VWidth: 0
Flags: HMW
LayerCount: 2
Fore
SplineSet
728 700 m 1
 756 700 l 1
 76 0 l 1
 48 0 l 1
 728 700 l 1
139 650 m 1
 142 670 l 1
 265 698 l 1
 190 274 l 1
 171 274 l 1
 242 674 l 1
 139 650 l 1
516 376 m 1
 520 398 l 1
 643 425 l 1
 568 1 l 1
 549 1 l 1
 620 401 l 1
 516 376 l 1
799 210 m 0
 780 102 807 12 882 12 c 0
 957 12 1018 102 1037 210 c 0
 1056 318 1027 408 952 408 c 0
 877 408 818 318 799 210 c 0
779 210 m 0
 800 331 869 426 955 426 c 0
 1041 426 1078 331 1057 210 c 0
 1036 89 965 -6 879 -6 c 0
 793 -6 758 89 779 210 c 0
EndSplineSet
EndChar

StartChar: onethird
Encoding: 8531 8531 156
Width: 755
VWidth: 0
Flags: HMW
LayerCount: 2
Fore
SplineSet
728 700 m 1
 756 700 l 1
 76 0 l 1
 48 0 l 1
 728 700 l 1
139 650 m 1
 142 670 l 1
 265 698 l 1
 190 274 l 1
 171 274 l 1
 242 674 l 1
 139 650 l 1
616 214 m 1
 618 228 l 1
 672 228 738 262 748 318 c 0
 756 365 732 408 672 408 c 0
 615 408 570 370 560 316 c 1
 540 316 l 1
 551 381 606 426 675 426 c 0
 747 426 777 373 767 318 c 0
 756 255 684 214 616 214 c 1
595 -6 m 0
 514 -6 475 46 486 111 c 1
 506 111 l 1
 496 54 529 12 598 12 c 0
 663 12 713 52 723 108 c 0
 735 176 669 210 615 210 c 1
 617 223 l 1
 685 223 756 186 742 107 c 0
 730 40 670 -6 595 -6 c 0
EndSplineSet
EndChar

StartChar: twothirds
Encoding: 8532 8532 157
Width: 882
VWidth: 0
Flags: HMW
LayerCount: 2
Fore
SplineSet
855 700 m 1
 883 700 l 1
 203 0 l 1
 175 0 l 1
 855 700 l 1
82 282 m 1
 312 486 l 2
 345 516 375 547 383 592 c 0
 391 636 374 690 304 690 c 0
 238 690 184 636 170 558 c 1
 150 558 l 1
 166 647 229 709 307 709 c 0
 391 709 412 642 403 590 c 0
 395 543 363 507 326 475 c 2
 127 300 l 1
 365 300 l 1
 362 282 l 1
 82 282 l 1
744 214 m 1
 746 228 l 1
 800 228 864 262 874 318 c 0
 882 365 858 408 798 408 c 0
 741 408 696 370 686 316 c 1
 668 316 l 1
 679 381 732 426 801 426 c 0
 873 426 904 373 894 318 c 0
 883 255 812 214 744 214 c 1
723 -6 m 0
 642 -6 603 46 614 111 c 1
 634 111 l 1
 624 54 657 12 726 12 c 0
 791 12 839 52 849 108 c 0
 861 176 797 210 743 210 c 1
 745 223 l 1
 813 223 883 186 869 107 c 0
 857 40 798 -6 723 -6 c 0
EndSplineSet
EndChar

StartChar: uni2155
Encoding: 8533 8533 158
Width: 744
VWidth: 0
Flags: HMW
LayerCount: 2
Fore
SplineSet
728 700 m 1
 756 700 l 1
 76 0 l 1
 48 0 l 1
 728 700 l 1
139 650 m 1
 142 670 l 1
 265 698 l 1
 190 274 l 1
 171 274 l 1
 242 674 l 1
 139 650 l 1
716 136 m 0
 699 41 630 -8 553 -8 c 0
 485 -8 451 28 436 80 c 1
 454 91 l 1
 467 43 498 10 556 10 c 0
 624 10 682 55 696 136 c 0
 708 204 669 252 609 252 c 0
 561 252 521 232 480 194 c 1
 501 220 l 1
 527 248 572 270 620 270 c 0
 688 270 730 215 716 136 c 0
587 400 m 1
 511 224 l 1
 480 194 l 1
 576 418 l 1
 774 418 l 1
 771 400 l 1
 587 400 l 1
EndSplineSet
EndChar

StartChar: uni2156
Encoding: 8534 8534 159
Width: 871
VWidth: 0
Flags: HMW
LayerCount: 2
Fore
SplineSet
855 700 m 1
 883 700 l 1
 203 0 l 1
 175 0 l 1
 855 700 l 1
82 282 m 1
 312 486 l 2
 345 516 375 547 383 592 c 0
 391 636 374 690 304 690 c 0
 238 690 184 636 170 558 c 1
 150 558 l 1
 166 647 229 709 307 709 c 0
 391 709 412 642 403 590 c 0
 395 543 363 507 326 475 c 2
 127 300 l 1
 365 300 l 1
 362 282 l 1
 82 282 l 1
844 136 m 0
 827 41 756 -8 679 -8 c 0
 611 -8 577 28 562 80 c 1
 581 91 l 1
 594 43 624 10 682 10 c 0
 750 10 809 55 823 136 c 0
 835 204 796 252 736 252 c 0
 688 252 649 232 608 194 c 1
 629 220 l 1
 655 248 698 270 746 270 c 0
 814 270 858 215 844 136 c 0
714 400 m 1
 639 224 l 1
 608 194 l 1
 702 418 l 1
 900 418 l 1
 897 400 l 1
 714 400 l 1
EndSplineSet
EndChar

StartChar: uni2157
Encoding: 8535 8535 160
Width: 831
VWidth: 0
Flags: HMW
LayerCount: 2
Fore
SplineSet
815 700 m 1
 843 700 l 1
 163 0 l 1
 135 0 l 1
 815 700 l 1
233 494 m 1
 236 508 l 1
 290 508 353 542 363 598 c 0
 371 645 347 688 287 688 c 0
 230 688 185 650 175 596 c 1
 157 596 l 1
 168 661 221 706 290 706 c 0
 362 706 393 653 383 598 c 0
 372 535 301 494 233 494 c 1
212 274 m 0
 131 274 92 326 103 391 c 1
 123 391 l 1
 113 334 146 292 215 292 c 0
 280 292 328 332 338 388 c 0
 350 456 286 490 232 490 c 1
 235 503 l 1
 303 503 372 466 358 387 c 0
 346 320 287 274 212 274 c 0
804 136 m 0
 787 41 716 -8 639 -8 c 0
 571 -8 537 28 522 80 c 1
 541 91 l 1
 554 43 584 10 642 10 c 0
 710 10 769 55 783 136 c 0
 795 204 756 252 696 252 c 0
 648 252 609 232 568 194 c 1
 589 220 l 1
 615 248 658 270 706 270 c 0
 774 270 818 215 804 136 c 0
674 400 m 1
 599 224 l 1
 568 194 l 1
 662 418 l 1
 860 418 l 1
 857 400 l 1
 674 400 l 1
EndSplineSet
EndChar

StartChar: uni2158
Encoding: 8536 8536 161
Width: 866
VWidth: 0
Flags: HMW
LayerCount: 2
Fore
SplineSet
850 700 m 1
 878 700 l 1
 198 0 l 1
 170 0 l 1
 850 700 l 1
98 364 m 1
 117 382 l 1
 326 382 l 0
 331 382 l 0
 403 382 l 1
 400 364 l 1
 98 364 l 1
118 364 m 1
 98 364 l 1
 387 700 l 25
 395 700 l 1
 321 280 l 1
 300 280 l 1
 317 372 l 0
 317 375 l 0
 366 652 l 1
 118 364 l 1
838 136 m 0
 821 41 752 -8 675 -8 c 0
 607 -8 573 28 558 80 c 1
 576 91 l 1
 589 43 620 10 678 10 c 0
 746 10 804 55 818 136 c 0
 830 204 791 252 731 252 c 0
 683 252 643 232 602 194 c 1
 623 220 l 1
 649 248 694 270 742 270 c 0
 810 270 852 215 838 136 c 0
709 400 m 1
 633 224 l 1
 602 194 l 1
 698 418 l 1
 896 418 l 1
 893 400 l 1
 709 400 l 1
EndSplineSet
EndChar

StartChar: uni2159
Encoding: 8537 8537 162
Width: 734
VWidth: 0
Flags: HMW
LayerCount: 2
Fore
SplineSet
728 700 m 1
 756 700 l 1
 76 0 l 1
 48 0 l 1
 728 700 l 1
139 650 m 1
 142 670 l 1
 265 698 l 1
 190 274 l 1
 171 274 l 1
 242 674 l 1
 139 650 l 1
469 132 m 0
 457 62 496 10 564 10 c 0
 632 10 688 62 700 132 c 0
 712 198 670 248 610 248 c 0
 535 248 480 194 469 132 c 0
669 418 m 1
 694 418 l 1
 517 221 l 1
 516 222 l 1
 543 250 579 264 619 264 c 0
 687 264 732 205 719 132 c 0
 705 50 642 -8 561 -8 c 0
 480 -8 436 50 450 132 c 0
 456 166 477 202 497 224 c 2
 669 418 l 1
EndSplineSet
EndChar

StartChar: uni215A
Encoding: 8538 8538 163
Width: 856
VWidth: 0
Flags: HMW
LayerCount: 2
Fore
SplineSet
850 700 m 1
 878 700 l 1
 198 0 l 1
 170 0 l 1
 850 700 l 1
377 416 m 0
 360 321 291 272 214 272 c 0
 146 272 112 308 97 360 c 1
 115 371 l 1
 128 323 159 290 217 290 c 0
 285 290 343 335 357 416 c 0
 369 484 331 532 271 532 c 0
 223 532 183 512 142 474 c 1
 162 500 l 1
 188 528 233 550 281 550 c 0
 349 550 391 495 377 416 c 0
248 680 m 1
 173 504 l 1
 142 474 l 1
 237 698 l 1
 435 698 l 1
 432 680 l 1
 248 680 l 1
591 132 m 0
 579 62 618 10 686 10 c 0
 754 10 810 62 822 132 c 0
 834 198 792 248 732 248 c 0
 657 248 602 194 591 132 c 0
791 418 m 1
 816 418 l 1
 639 221 l 1
 638 222 l 1
 665 250 701 264 741 264 c 0
 809 264 854 205 841 132 c 0
 827 50 764 -8 683 -8 c 0
 602 -8 558 50 572 132 c 0
 578 166 599 202 619 224 c 2
 791 418 l 1
EndSplineSet
EndChar

StartChar: oneeighth
Encoding: 8539 8539 164
Width: 760
VWidth: 0
Flags: HMW
LayerCount: 2
Fore
SplineSet
728 700 m 1
 756 700 l 1
 76 0 l 1
 48 0 l 1
 728 700 l 1
139 650 m 1
 142 670 l 1
 265 698 l 1
 190 274 l 1
 171 274 l 1
 242 674 l 1
 139 650 l 1
541 323 m 0
 551 378 605 426 667 426 c 0
 729 426 767 378 757 323 c 0
 746 262 686 218 630 218 c 0
 574 218 530 262 541 323 c 0
561 322 m 0
 552 270 593 232 633 232 c 0
 673 232 728 270 737 322 c 0
 745 370 716 408 664 408 c 0
 612 408 569 370 561 322 c 0
492 112 m 0
 504 180 570 226 632 226 c 0
 694 226 744 180 732 112 c 0
 721 47 666 -6 591 -6 c 0
 516 -6 481 47 492 112 c 0
510 114 m 0
 499 54 533 12 594 12 c 0
 655 12 703 54 714 114 c 0
 724 172 680 214 630 214 c 0
 580 214 520 172 510 114 c 0
EndSplineSet
EndChar

StartChar: threeeighths
Encoding: 8540 8540 165
Width: 847
VWidth: 0
Flags: HMW
LayerCount: 2
Fore
SplineSet
815 700 m 1
 843 700 l 1
 163 0 l 1
 135 0 l 1
 815 700 l 1
233 494 m 1
 236 508 l 1
 290 508 353 542 363 598 c 0
 371 645 347 688 287 688 c 0
 230 688 185 650 175 596 c 1
 157 596 l 1
 168 661 221 706 290 706 c 0
 362 706 393 653 383 598 c 0
 372 535 301 494 233 494 c 1
212 274 m 0
 131 274 92 326 103 391 c 1
 123 391 l 1
 113 334 146 292 215 292 c 0
 280 292 328 332 338 388 c 0
 350 456 286 490 232 490 c 1
 235 503 l 1
 303 503 372 466 358 387 c 0
 346 320 287 274 212 274 c 0
629 323 m 0
 639 378 692 426 754 426 c 0
 816 426 853 378 843 323 c 0
 832 262 773 218 717 218 c 0
 661 218 618 262 629 323 c 0
647 322 m 0
 638 270 680 232 720 232 c 0
 760 232 816 270 825 322 c 0
 833 370 803 408 751 408 c 0
 699 408 655 370 647 322 c 0
578 112 m 0
 590 180 657 226 719 226 c 0
 781 226 832 180 820 112 c 0
 809 47 753 -6 678 -6 c 0
 603 -6 567 47 578 112 c 0
598 114 m 0
 587 54 620 12 681 12 c 0
 742 12 789 54 800 114 c 0
 810 172 767 214 717 214 c 0
 667 214 608 172 598 114 c 0
EndSplineSet
EndChar

StartChar: fiveeighths
Encoding: 8541 8541 166
Width: 882
VWidth: 0
Flags: HMW
LayerCount: 2
Fore
SplineSet
850 700 m 1
 878 700 l 1
 198 0 l 1
 170 0 l 1
 850 700 l 1
377 416 m 0
 360 321 291 272 214 272 c 0
 146 272 112 308 97 360 c 1
 115 371 l 1
 128 323 159 290 217 290 c 0
 285 290 343 335 357 416 c 0
 369 484 331 532 271 532 c 0
 223 532 183 512 142 474 c 1
 162 500 l 1
 188 528 233 550 281 550 c 0
 349 550 391 495 377 416 c 0
248 680 m 1
 173 504 l 1
 142 474 l 1
 237 698 l 1
 435 698 l 1
 432 680 l 1
 248 680 l 1
663 323 m 0
 673 378 727 426 789 426 c 0
 851 426 889 378 879 323 c 0
 868 262 808 218 752 218 c 0
 696 218 652 262 663 323 c 0
683 322 m 0
 674 270 715 232 755 232 c 0
 795 232 850 270 859 322 c 0
 867 370 838 408 786 408 c 0
 734 408 691 370 683 322 c 0
614 112 m 0
 626 180 692 226 754 226 c 0
 816 226 866 180 854 112 c 0
 843 47 788 -6 713 -6 c 0
 638 -6 603 47 614 112 c 0
632 114 m 0
 621 54 655 12 716 12 c 0
 777 12 825 54 836 114 c 0
 846 172 802 214 752 214 c 0
 702 214 642 172 632 114 c 0
EndSplineSet
EndChar

StartChar: seveneighths
Encoding: 8542 8542 167
Width: 772
VWidth: 0
Flags: HMW
LayerCount: 2
Fore
SplineSet
740 700 m 1
 768 700 l 1
 88 0 l 1
 60 0 l 1
 740 700 l 1
154 682 m 1
 157 700 l 1
 442 700 l 1
 153 280 l 1
 131 280 l 1
 410 682 l 1
 154 682 l 1
553 323 m 0
 563 378 617 426 679 426 c 0
 741 426 779 378 769 323 c 0
 758 262 698 218 642 218 c 0
 586 218 542 262 553 323 c 0
573 322 m 0
 564 270 605 232 645 232 c 0
 685 232 740 270 749 322 c 0
 757 370 728 408 676 408 c 0
 624 408 581 370 573 322 c 0
504 112 m 0
 516 180 582 226 644 226 c 0
 706 226 756 180 744 112 c 0
 733 47 678 -6 603 -6 c 0
 528 -6 493 47 504 112 c 0
522 114 m 0
 511 54 545 12 606 12 c 0
 667 12 715 54 726 114 c 0
 736 172 692 214 642 214 c 0
 592 214 532 172 522 114 c 0
EndSplineSet
EndChar

StartChar: uni2074
Encoding: 8308 8308 168
Width: 375
VWidth: 0
Flags: HMW
LayerCount: 2
Fore
SplineSet
98 364 m 1
 117 382 l 1
 326 382 l 0
 331 382 l 0
 403 382 l 1
 400 364 l 1
 98 364 l 1
118 364 m 1
 98 364 l 1
 387 700 l 25
 395 700 l 1
 321 280 l 1
 300 280 l 1
 317 372 l 0
 317 375 l 0
 366 652 l 1
 118 364 l 1
EndSplineSet
EndChar

StartChar: uni2075
Encoding: 8309 8309 169
Width: 345
VWidth: 0
Flags: HMW
LayerCount: 2
Fore
SplineSet
377 416 m 0
 360 321 291 272 214 272 c 0
 146 272 112 308 97 360 c 1
 115 371 l 1
 128 323 159 290 217 290 c 0
 285 290 343 335 357 416 c 0
 369 484 331 532 271 532 c 0
 223 532 183 512 142 474 c 1
 162 500 l 1
 188 528 233 550 281 550 c 0
 349 550 391 495 377 416 c 0
248 680 m 1
 173 504 l 1
 142 474 l 1
 237 698 l 1
 435 698 l 1
 432 680 l 1
 248 680 l 1
EndSplineSet
EndChar

StartChar: uni2076
Encoding: 8310 8310 170
Width: 336
VWidth: 0
Flags: HMW
LayerCount: 2
Fore
SplineSet
131 412 m 0
 119 342 157 290 225 290 c 0
 293 290 350 342 362 412 c 0
 374 478 331 528 271 528 c 0
 196 528 142 474 131 412 c 0
330 698 m 1
 355 698 l 1
 178 501 l 1
 178 502 l 1
 205 530 240 544 280 544 c 0
 348 544 394 485 381 412 c 0
 367 330 303 272 222 272 c 0
 141 272 98 330 112 412 c 0
 118 446 139 482 159 504 c 2
 330 698 l 1
EndSplineSet
EndChar

StartChar: uni2077
Encoding: 8311 8311 171
Width: 352
VWidth: 0
Flags: HMW
LayerCount: 2
Fore
SplineSet
154 682 m 1
 157 700 l 1
 442 700 l 1
 153 280 l 1
 131 280 l 1
 410 682 l 1
 154 682 l 1
EndSplineSet
EndChar

StartChar: uni2078
Encoding: 8312 8312 172
Width: 308
VWidth: 0
Flags: HMW
LayerCount: 2
Fore
SplineSet
152 603 m 0
 162 658 216 706 278 706 c 0
 340 706 378 658 368 603 c 0
 357 542 298 498 242 498 c 0
 186 498 141 542 152 603 c 0
172 602 m 0
 163 550 204 512 244 512 c 0
 284 512 339 550 348 602 c 0
 356 650 327 688 275 688 c 0
 223 688 180 650 172 602 c 0
103 392 m 0
 115 460 181 506 243 506 c 0
 305 506 355 460 343 392 c 0
 332 327 277 274 202 274 c 0
 127 274 92 327 103 392 c 0
121 394 m 0
 110 334 144 292 205 292 c 0
 266 292 314 334 325 394 c 0
 335 452 291 494 241 494 c 0
 191 494 131 452 121 394 c 0
EndSplineSet
EndChar

StartChar: uni2079
Encoding: 8313 8313 173
Width: 336
VWidth: 0
Flags: HMW
LayerCount: 2
Fore
SplineSet
384 568 m 0
 396 638 358 690 290 690 c 0
 222 690 164 638 152 568 c 0
 140 502 184 452 244 452 c 0
 319 452 373 506 384 568 c 0
185 282 m 1
 160 282 l 1
 336 479 l 1
 336 478 l 1
 309 450 275 436 235 436 c 0
 167 436 121 495 134 568 c 0
 148 650 212 708 293 708 c 0
 374 708 417 650 403 568 c 0
 397 534 375 498 355 476 c 2
 185 282 l 1
EndSplineSet
EndChar

StartChar: uni2070
Encoding: 8304 8304 174
Width: 338
VWidth: 0
Flags: HMW
LayerCount: 2
Fore
SplineSet
140 490 m 0
 121 382 148 292 223 292 c 0
 298 292 359 382 378 490 c 0
 397 598 368 688 293 688 c 0
 218 688 159 598 140 490 c 0
120 490 m 0
 141 611 210 706 296 706 c 0
 382 706 419 611 398 490 c 0
 377 369 306 274 220 274 c 0
 134 274 99 369 120 490 c 0
EndSplineSet
EndChar

StartChar: uni2080
Encoding: 8320 8320 175
Width: 345
VWidth: 0
Flags: HMW
LayerCount: 2
Fore
SplineSet
91 210 m 0
 72 102 99 12 174 12 c 0
 249 12 310 102 329 210 c 0
 348 318 319 408 244 408 c 0
 169 408 110 318 91 210 c 0
71 210 m 0
 92 331 161 426 247 426 c 0
 333 426 370 331 349 210 c 0
 328 89 257 -6 171 -6 c 0
 85 -6 50 89 71 210 c 0
EndSplineSet
EndChar

StartChar: uni2084
Encoding: 8324 8324 176
Width: 375
VWidth: 0
Flags: HMW
LayerCount: 2
Fore
SplineSet
49 84 m 1
 68 102 l 1
 277 102 l 0
 282 102 l 0
 354 102 l 1
 351 84 l 1
 49 84 l 1
69 84 m 1
 49 84 l 1
 338 420 l 25
 346 420 l 1
 272 0 l 1
 251 0 l 1
 267 92 l 0
 268 95 l 0
 317 372 l 1
 69 84 l 1
EndSplineSet
EndChar

StartChar: uni2085
Encoding: 8325 8325 177
Width: 345
VWidth: 0
Flags: HMW
LayerCount: 2
Fore
SplineSet
328 136 m 0
 311 41 242 -8 165 -8 c 0
 97 -8 63 28 48 80 c 1
 66 91 l 1
 79 43 110 10 168 10 c 0
 236 10 294 55 308 136 c 0
 320 204 281 252 221 252 c 0
 173 252 133 232 92 194 c 1
 113 220 l 1
 139 248 184 270 232 270 c 0
 300 270 342 215 328 136 c 0
199 400 m 1
 123 224 l 1
 92 194 l 1
 188 418 l 1
 386 418 l 1
 383 400 l 1
 199 400 l 1
EndSplineSet
EndChar

StartChar: uni2086
Encoding: 8326 8326 178
Width: 336
VWidth: 0
Flags: HMW
LayerCount: 2
Fore
SplineSet
81 132 m 0
 69 62 107 10 175 10 c 0
 243 10 300 62 312 132 c 0
 324 198 282 248 222 248 c 0
 147 248 92 194 81 132 c 0
280 418 m 1
 306 418 l 1
 129 221 l 1
 128 222 l 1
 155 250 191 264 231 264 c 0
 299 264 344 205 331 132 c 0
 317 50 253 -8 172 -8 c 0
 91 -8 47 50 61 132 c 0
 67 166 89 202 109 224 c 2
 280 418 l 1
EndSplineSet
EndChar

StartChar: uni2087
Encoding: 8327 8327 179
Width: 352
VWidth: 0
Flags: HMW
LayerCount: 2
Fore
SplineSet
105 402 m 1
 108 420 l 1
 393 420 l 1
 104 0 l 1
 82 0 l 1
 361 402 l 1
 105 402 l 1
EndSplineSet
EndChar

StartChar: uni2088
Encoding: 8328 8328 180
Width: 308
VWidth: 0
Flags: HMW
LayerCount: 2
Fore
SplineSet
103 323 m 0
 113 378 167 426 229 426 c 0
 291 426 329 378 319 323 c 0
 308 262 248 218 192 218 c 0
 136 218 92 262 103 323 c 0
123 322 m 0
 114 270 155 232 195 232 c 0
 235 232 290 270 299 322 c 0
 307 370 278 408 226 408 c 0
 174 408 131 370 123 322 c 0
54 112 m 0
 66 180 132 226 194 226 c 0
 256 226 306 180 294 112 c 0
 283 47 228 -6 153 -6 c 0
 78 -6 43 47 54 112 c 0
72 114 m 0
 61 54 95 12 156 12 c 0
 217 12 265 54 276 114 c 0
 286 172 242 214 192 214 c 0
 142 214 82 172 72 114 c 0
EndSplineSet
EndChar

StartChar: uni2089
Encoding: 8329 8329 181
Width: 336
VWidth: 0
Flags: HMW
LayerCount: 2
Fore
SplineSet
330 288 m 0
 342 358 303 410 235 410 c 0
 167 410 111 358 99 288 c 0
 87 222 129 172 189 172 c 0
 264 172 319 226 330 288 c 0
130 2 m 1
 106 2 l 1
 281 199 l 1
 283 198 l 1
 256 170 221 156 181 156 c 0
 113 156 66 215 79 288 c 0
 93 370 157 428 238 428 c 0
 319 428 363 370 349 288 c 0
 343 254 321 218 301 196 c 2
 130 2 l 1
EndSplineSet
EndChar

StartChar: uni2081
Encoding: 8321 8321 182
Width: 295
VWidth: 0
Flags: HMW
LayerCount: 2
Fore
SplineSet
160 376 m 1
 164 398 l 1
 287 425 l 1
 212 1 l 1
 193 1 l 1
 264 401 l 1
 160 376 l 1
EndSplineSet
EndChar

StartChar: uni2082
Encoding: 8322 8322 183
Width: 336
VWidth: 0
Flags: HMW
LayerCount: 2
Fore
SplineSet
28 2 m 1
 258 206 l 2
 291 236 323 267 331 312 c 0
 339 356 320 410 250 410 c 0
 184 410 131 356 117 278 c 1
 97 278 l 1
 113 367 176 429 254 429 c 0
 338 429 359 362 350 310 c 0
 342 263 309 227 272 195 c 2
 74 20 l 1
 312 20 l 1
 308 2 l 1
 28 2 l 1
EndSplineSet
EndChar

StartChar: uni2083
Encoding: 8323 8323 184
Width: 316
VWidth: 0
Flags: HMW
LayerCount: 2
Fore
SplineSet
178 214 m 1
 180 228 l 1
 234 228 300 262 310 318 c 0
 318 365 294 408 234 408 c 0
 177 408 132 370 122 316 c 1
 102 316 l 1
 113 381 168 426 237 426 c 0
 309 426 339 373 329 318 c 0
 318 255 246 214 178 214 c 1
157 -6 m 0
 76 -6 37 46 48 111 c 1
 68 111 l 1
 58 54 91 12 160 12 c 0
 225 12 275 52 285 108 c 0
 297 176 231 210 177 210 c 1
 179 223 l 1
 247 223 318 186 304 107 c 0
 292 40 232 -6 157 -6 c 0
EndSplineSet
EndChar

StartChar: Agrave
Encoding: 192 192 185
Width: 618
VWidth: 0
Flags: HMW
LayerCount: 2
Fore
SplineSet
178 254 m 1
 192 284 l 1
 526 284 l 1
 531 254 l 1
 178 254 l 1
423 644 m 1
 207 273 l 1
 203 265 l 1
 49 0 l 1
 12 0 l 1
 436 721 l 1
 606 0 l 1
 569 0 l 1
 510 263 l 1
 508 271 l 1
 423 644 l 1
340 936 m 1
 371 954 l 1
 507 794 l 1
 488 781 l 1
 340 936 l 1
EndSplineSet
EndChar

StartChar: Aacute
Encoding: 193 193 186
Width: 618
VWidth: 0
Flags: HMW
LayerCount: 2
Fore
SplineSet
178 254 m 1
 192 284 l 1
 526 284 l 1
 531 254 l 1
 178 254 l 1
423 644 m 1
 207 273 l 1
 203 265 l 1
 49 0 l 1
 12 0 l 1
 436 721 l 1
 606 0 l 1
 569 0 l 1
 510 263 l 1
 508 271 l 1
 423 644 l 1
608 936 m 1
 406 781 l 1
 391 794 l 1
 583 954 l 1
 608 936 l 1
EndSplineSet
EndChar

StartChar: Acircumflex
Encoding: 194 194 187
Width: 618
VWidth: 0
Flags: HMW
LayerCount: 2
Fore
SplineSet
178 254 m 1
 192 284 l 1
 526 284 l 1
 531 254 l 1
 178 254 l 1
423 644 m 1
 207 273 l 1
 203 265 l 1
 49 0 l 1
 12 0 l 1
 436 721 l 1
 606 0 l 1
 569 0 l 1
 510 263 l 1
 508 271 l 1
 423 644 l 1
466 892 m 1
 305 769 l 1
 288 786 l 1
 472 926 l 1
 608 786 l 1
 585 769 l 1
 466 892 l 1
EndSplineSet
EndChar

StartChar: Atilde
Encoding: 195 195 188
Width: 618
VWidth: 0
Flags: HMW
LayerCount: 2
Fore
SplineSet
178 254 m 1
 192 284 l 1
 526 284 l 1
 531 254 l 1
 178 254 l 1
423 644 m 1
 207 273 l 1
 203 265 l 1
 49 0 l 1
 12 0 l 1
 436 721 l 1
 606 0 l 1
 569 0 l 1
 510 263 l 1
 508 271 l 1
 423 644 l 1
313 801 m 1
 322 836 354 866 399 866 c 0
 457 866 460 819 514 819 c 0
 540 819 557 835 579 867 c 1
 596 852 l 1
 573 815 544 793 508 793 c 0
 453 793 440 840 395 840 c 0
 354 840 337 811 333 789 c 1
 313 801 l 1
EndSplineSet
EndChar

StartChar: Adieresis
Encoding: 196 196 189
Width: 618
VWidth: 0
Flags: HMW
LayerCount: 2
Fore
SplineSet
178 254 m 1
 192 284 l 1
 526 284 l 1
 531 254 l 1
 178 254 l 1
423 644 m 1
 207 273 l 1
 203 265 l 1
 49 0 l 1
 12 0 l 1
 436 721 l 1
 606 0 l 1
 569 0 l 1
 510 263 l 1
 508 271 l 1
 423 644 l 1
529 819 m 0
 531 833 545 844 558 844 c 0
 571 844 579 833 577 819 c 0
 575 805 562 795 549 795 c 0
 536 795 527 805 529 819 c 0
329 819 m 0
 331 833 345 844 358 844 c 0
 371 844 379 833 377 819 c 0
 375 805 362 795 349 795 c 0
 336 795 327 805 329 819 c 0
EndSplineSet
EndChar

StartChar: Aring
Encoding: 197 197 190
Width: 618
VWidth: 0
Flags: HMW
LayerCount: 2
Fore
SplineSet
178 254 m 1
 192 284 l 1
 526 284 l 1
 531 254 l 1
 178 254 l 1
423 644 m 1
 207 273 l 1
 203 265 l 1
 49 0 l 1
 12 0 l 1
 436 721 l 1
 606 0 l 1
 569 0 l 1
 510 263 l 1
 508 271 l 1
 423 644 l 1
349 805 m 0
 360 865 417 905 469 905 c 0
 521 905 564 865 553 805 c 0
 542 745 485 705 433 705 c 0
 381 705 338 745 349 805 c 0
372 805 m 0
 364 758 396 726 437 726 c 0
 478 726 522 758 530 805 c 0
 538 852 506 884 465 884 c 0
 424 884 380 852 372 805 c 0
EndSplineSet
EndChar

StartChar: AE
Encoding: 198 198 191
Width: 915
VWidth: 0
Flags: HMW
LayerCount: 2
Fore
SplineSet
256 259 m 1
 261 290 l 1
 554 290 l 1
 549 259 l 1
 256 259 l 1
593 700 m 1
 621 688 l 1
 42 0 l 1
 5 0 l 1
 593 700 l 1
509 0 m 1
 514 31 l 1
 843 31 l 1
 838 0 l 1
 509 0 l 1
632 669 m 1
 593 700 l 1
 961 700 l 1
 956 669 l 1
 632 669 l 1
574 371 m 1
 580 402 l 1
 889 402 l 1
 883 371 l 1
 574 371 l 1
613 700 m 1
 646 700 l 1
 523 0 l 1
 490 0 l 1
 613 700 l 1
EndSplineSet
EndChar

StartChar: Ccedilla
Encoding: 199 199 192
Width: 685
VWidth: 0
Flags: HMW
LayerCount: 2
Fore
SplineSet
144 350 m 0
 111 161 216 26 388 26 c 0
 487 26 562 58 628 116 c 1
 620 70 l 1
 552 18 484 -8 382 -8 c 0
 188 -8 72 141 109 350 c 0
 146 559 314 708 508 708 c 0
 610 708 669 682 719 630 c 1
 711 586 l 1
 667 644 598 674 502 674 c 0
 330 674 178 541 144 350 c 0
385 16 m 1
 411 16 l 1
 337 -71 l 1
 301 -96 l 1
 385 16 l 1
452 -128 m 1
 427 -128 l 1
 434 -90 409 -72 379 -72 c 0
 355 -72 327 -80 301 -96 c 1
 325 -75 l 1
 354 -59 365 -54 392 -54 c 0
 425 -54 461 -79 452 -128 c 1
452 -128 m 1
 441 -189 384 -222 329 -222 c 0
 292 -222 270 -212 247 -184 c 1
 264 -168 l 1
 286 -190 302 -198 333 -198 c 0
 376 -198 419 -174 427 -128 c 1
 452 -128 l 1
EndSplineSet
EndChar

StartChar: Egrave
Encoding: 200 200 193
Width: 522
VWidth: 0
Flags: HMW
LayerCount: 2
Fore
SplineSet
102 0 m 1
 107 31 l 1
 450 31 l 1
 445 0 l 1
 102 0 l 1
220 669 m 1
 225 700 l 1
 568 700 l 1
 563 669 l 1
 220 669 l 1
167 371 m 1
 173 402 l 1
 496 402 l 1
 490 371 l 1
 167 371 l 1
210 700 m 1
 243 700 l 1
 120 0 l 1
 87 0 l 1
 210 700 l 1
281 924 m 1
 312 941 l 1
 448 781 l 1
 429 768 l 1
 281 924 l 1
EndSplineSet
EndChar

StartChar: Eacute
Encoding: 201 201 194
Width: 522
VWidth: 0
Flags: HMW
LayerCount: 2
Fore
SplineSet
102 0 m 1
 107 31 l 1
 450 31 l 1
 445 0 l 1
 102 0 l 1
220 669 m 1
 225 700 l 1
 568 700 l 1
 563 669 l 1
 220 669 l 1
167 371 m 1
 173 402 l 1
 496 402 l 1
 490 371 l 1
 167 371 l 1
210 700 m 1
 243 700 l 1
 120 0 l 1
 87 0 l 1
 210 700 l 1
577 924 m 1
 373 768 l 1
 360 781 l 1
 552 941 l 1
 577 924 l 1
EndSplineSet
EndChar

StartChar: Ecircumflex
Encoding: 202 202 195
Width: 522
VWidth: 0
Flags: HMW
LayerCount: 2
Fore
SplineSet
102 0 m 1
 107 31 l 1
 450 31 l 1
 445 0 l 1
 102 0 l 1
220 669 m 1
 225 700 l 1
 568 700 l 1
 563 669 l 1
 220 669 l 1
167 371 m 1
 173 402 l 1
 496 402 l 1
 490 371 l 1
 167 371 l 1
210 700 m 1
 243 700 l 1
 120 0 l 1
 87 0 l 1
 210 700 l 1
426 892 m 1
 264 768 l 1
 248 786 l 1
 432 926 l 1
 568 786 l 1
 544 768 l 1
 426 892 l 1
EndSplineSet
EndChar

StartChar: Edieresis
Encoding: 203 203 196
Width: 522
VWidth: 0
Flags: HMW
LayerCount: 2
Fore
SplineSet
102 0 m 1
 107 31 l 1
 450 31 l 1
 445 0 l 1
 102 0 l 1
220 669 m 1
 225 700 l 1
 568 700 l 1
 563 669 l 1
 220 669 l 1
167 371 m 1
 173 402 l 1
 496 402 l 1
 490 371 l 1
 167 371 l 1
210 700 m 1
 243 700 l 1
 120 0 l 1
 87 0 l 1
 210 700 l 1
488 813 m 0
 490 827 504 837 517 837 c 0
 530 837 538 827 536 813 c 0
 534 799 521 788 508 788 c 0
 495 788 486 799 488 813 c 0
288 813 m 0
 290 827 304 837 317 837 c 0
 330 837 338 827 336 813 c 0
 334 799 321 788 308 788 c 0
 295 788 286 799 288 813 c 0
EndSplineSet
EndChar

StartChar: Igrave
Encoding: 204 204 197
Width: 199
VWidth: 0
Flags: HMW
LayerCount: 2
Fore
SplineSet
207 700 m 1
 239 700 l 1
 116 0 l 1
 84 0 l 1
 207 700 l 1
115 924 m 1
 146 941 l 1
 282 781 l 1
 262 768 l 1
 115 924 l 1
EndSplineSet
EndChar

StartChar: Iacute
Encoding: 205 205 198
Width: 199
VWidth: 0
Flags: HMW
LayerCount: 2
Fore
SplineSet
207 700 m 1
 239 700 l 1
 116 0 l 1
 84 0 l 1
 207 700 l 1
411 924 m 1
 207 768 l 1
 194 781 l 1
 386 941 l 1
 411 924 l 1
EndSplineSet
EndChar

StartChar: Icircumflex
Encoding: 206 206 199
Width: 199
VWidth: 0
Flags: HMW
LayerCount: 2
Fore
SplineSet
207 700 m 1
 239 700 l 1
 116 0 l 1
 84 0 l 1
 207 700 l 1
257 892 m 1
 95 768 l 1
 79 786 l 1
 263 926 l 1
 399 786 l 1
 375 768 l 1
 257 892 l 1
EndSplineSet
EndChar

StartChar: Idieresis
Encoding: 207 207 200
Width: 199
VWidth: 0
Flags: HMW
LayerCount: 2
Fore
SplineSet
207 700 m 1
 239 700 l 1
 116 0 l 1
 84 0 l 1
 207 700 l 1
296 807 m 0
 298 821 312 831 325 831 c 0
 338 831 347 821 345 807 c 0
 343 793 329 782 316 782 c 0
 303 782 294 793 296 807 c 0
138 807 m 0
 140 821 154 831 167 831 c 0
 180 831 189 821 187 807 c 0
 185 793 171 782 158 782 c 0
 145 782 136 793 138 807 c 0
EndSplineSet
EndChar

StartChar: Ntilde
Encoding: 209 209 201
Width: 698
VWidth: 0
Flags: HMW
LayerCount: 2
Fore
SplineSet
184 656 m 1
 186 721 l 1
 623 40 l 1
 621 -21 l 1
 184 656 l 1
715 700 m 1
 748 700 l 1
 621 -21 l 1
 598 34 l 1
 715 700 l 1
186 721 m 1
 209 662 l 1
 92 0 l 1
 59 0 l 1
 186 721 l 1
356 781 m 1
 365 816 396 846 441 846 c 0
 499 846 503 799 557 799 c 0
 583 799 599 815 621 847 c 1
 639 832 l 1
 616 795 586 773 550 773 c 0
 495 773 483 820 438 820 c 0
 397 820 380 791 376 769 c 1
 356 781 l 1
EndSplineSet
EndChar

StartChar: Eth
Encoding: 208 208 202
Width: 680
VWidth: 0
Flags: HMW
LayerCount: 2
Fore
SplineSet
222 667 m 1
 227 700 l 1
 385 700 l 2
 589 700 701 559 664 350 c 1
 630 350 l 1
 664 541 566 667 380 667 c 2
 222 667 l 1
262 0 m 2
 104 0 l 1
 110 33 l 1
 268 33 l 2
 454 33 596 159 630 350 c 1
 664 350 l 1
 627 141 466 0 262 0 c 2
210 700 m 1
 243 700 l 1
 120 0 l 1
 87 0 l 1
 210 700 l 1
64 334 m 1
 69 364 l 1
 369 364 l 1
 364 334 l 1
 64 334 l 1
EndSplineSet
EndChar

StartChar: Ograve
Encoding: 210 210 203
Width: 778
VWidth: 0
Flags: HMW
LayerCount: 2
Fore
SplineSet
144 350 m 0
 111 162 214 24 394 24 c 0
 574 24 726 162 759 350 c 0
 792 538 689 676 509 676 c 0
 329 676 177 538 144 350 c 0
109 350 m 0
 146 558 318 708 515 708 c 0
 712 708 831 558 794 350 c 0
 757 142 586 -8 389 -8 c 0
 192 -8 72 142 109 350 c 0
422 924 m 1
 453 941 l 1
 589 781 l 1
 569 768 l 1
 422 924 l 1
EndSplineSet
EndChar

StartChar: Oacute
Encoding: 211 211 204
Width: 778
VWidth: 0
Flags: HMW
LayerCount: 2
Fore
SplineSet
144 350 m 0
 111 162 214 24 394 24 c 0
 574 24 726 162 759 350 c 0
 792 538 689 676 509 676 c 0
 329 676 177 538 144 350 c 0
109 350 m 0
 146 558 318 708 515 708 c 0
 712 708 831 558 794 350 c 0
 757 142 586 -8 389 -8 c 0
 192 -8 72 142 109 350 c 0
683 924 m 1
 481 768 l 1
 466 781 l 1
 658 941 l 1
 683 924 l 1
EndSplineSet
EndChar

StartChar: Ocircumflex
Encoding: 212 212 205
Width: 778
VWidth: 0
Flags: HMW
LayerCount: 2
Fore
SplineSet
144 350 m 0
 111 162 214 24 394 24 c 0
 574 24 726 162 759 350 c 0
 792 538 689 676 509 676 c 0
 329 676 177 538 144 350 c 0
109 350 m 0
 146 558 318 708 515 708 c 0
 712 708 831 558 794 350 c 0
 757 142 586 -8 389 -8 c 0
 192 -8 72 142 109 350 c 0
547 892 m 1
 385 768 l 1
 369 786 l 1
 553 926 l 1
 689 786 l 1
 665 768 l 1
 547 892 l 1
EndSplineSet
EndChar

StartChar: Otilde
Encoding: 213 213 206
Width: 778
VWidth: 0
Flags: HMW
LayerCount: 2
Fore
SplineSet
144 350 m 0
 111 162 214 24 394 24 c 0
 574 24 726 162 759 350 c 0
 792 538 689 676 509 676 c 0
 329 676 177 538 144 350 c 0
109 350 m 0
 146 558 318 708 515 708 c 0
 712 708 831 558 794 350 c 0
 757 142 586 -8 389 -8 c 0
 192 -8 72 142 109 350 c 0
392 794 m 1
 401 829 434 860 479 860 c 0
 537 860 540 812 594 812 c 0
 620 812 637 828 659 860 c 1
 675 846 l 1
 652 809 623 786 587 786 c 0
 532 786 520 834 475 834 c 0
 434 834 416 804 412 782 c 1
 392 794 l 1
EndSplineSet
EndChar

StartChar: Odieresis
Encoding: 214 214 207
Width: 778
VWidth: 0
Flags: HMW
LayerCount: 2
Fore
SplineSet
144 350 m 0
 111 162 214 24 394 24 c 0
 574 24 726 162 759 350 c 0
 792 538 689 676 509 676 c 0
 329 676 177 538 144 350 c 0
109 350 m 0
 146 558 318 708 515 708 c 0
 712 708 831 558 794 350 c 0
 757 142 586 -8 389 -8 c 0
 192 -8 72 142 109 350 c 0
616 814 m 0
 618 828 631 838 644 838 c 0
 657 838 666 828 664 814 c 0
 662 800 648 790 635 790 c 0
 622 790 614 800 616 814 c 0
402 814 m 0
 404 828 417 838 430 838 c 0
 443 838 452 828 450 814 c 0
 448 800 434 790 421 790 c 0
 408 790 400 800 402 814 c 0
EndSplineSet
EndChar

StartChar: Ugrave
Encoding: 217 217 208
Width: 591
VWidth: 0
Flags: HMW
LayerCount: 2
Fore
SplineSet
205 700 m 1
 238 700 l 1
 154 223 l 2
 132 99 186 22 300 22 c 0
 414 22 493 99 515 223 c 2
 599 700 l 1
 632 700 l 1
 548 223 l 2
 523 84 432 -10 294 -10 c 0
 156 -10 96 84 121 223 c 2
 205 700 l 1
325 924 m 1
 356 941 l 1
 492 781 l 1
 472 768 l 1
 325 924 l 1
EndSplineSet
EndChar

StartChar: Uacute
Encoding: 218 218 209
Width: 591
VWidth: 0
Flags: HMW
LayerCount: 2
Fore
SplineSet
205 700 m 1
 238 700 l 1
 154 223 l 2
 132 99 186 22 300 22 c 0
 414 22 493 99 515 223 c 2
 599 700 l 1
 632 700 l 1
 548 223 l 2
 523 84 432 -10 294 -10 c 0
 156 -10 96 84 121 223 c 2
 205 700 l 1
593 924 m 1
 389 768 l 1
 376 781 l 1
 568 941 l 1
 593 924 l 1
EndSplineSet
EndChar

StartChar: Ucircumflex
Encoding: 219 219 210
Width: 591
VWidth: 0
Flags: HMW
LayerCount: 2
Fore
SplineSet
205 700 m 1
 238 700 l 1
 154 223 l 2
 132 99 186 22 300 22 c 0
 414 22 493 99 515 223 c 2
 599 700 l 1
 632 700 l 1
 548 223 l 2
 523 84 432 -10 294 -10 c 0
 156 -10 96 84 121 223 c 2
 205 700 l 1
453 892 m 1
 291 768 l 1
 275 786 l 1
 459 926 l 1
 595 786 l 1
 571 768 l 1
 453 892 l 1
EndSplineSet
EndChar

StartChar: Udieresis
Encoding: 220 220 211
Width: 591
VWidth: 0
Flags: HMW
LayerCount: 2
Fore
SplineSet
205 700 m 1
 238 700 l 1
 154 223 l 2
 132 99 186 22 300 22 c 0
 414 22 493 99 515 223 c 2
 599 700 l 1
 632 700 l 1
 548 223 l 2
 523 84 432 -10 294 -10 c 0
 156 -10 96 84 121 223 c 2
 205 700 l 1
504 793 m 0
 506 807 519 817 532 817 c 0
 545 817 554 807 552 793 c 0
 550 779 536 768 523 768 c 0
 510 768 502 779 504 793 c 0
318 793 m 0
 320 807 333 817 346 817 c 0
 359 817 368 807 366 793 c 0
 364 779 350 768 337 768 c 0
 324 768 316 779 318 793 c 0
EndSplineSet
EndChar

StartChar: Yacute
Encoding: 221 221 212
Width: 523
VWidth: 0
Flags: HMW
LayerCount: 2
Fore
SplineSet
295 300 m 1
 327 300 l 1
 274 0 l 1
 242 0 l 1
 295 300 l 1
597 700 m 1
 634 700 l 1
 302 248 l 1
 135 700 l 1
 173 700 l 1
 313 310 l 1
 597 700 l 1
573 924 m 1
 369 768 l 1
 356 781 l 1
 548 941 l 1
 573 924 l 1
EndSplineSet
EndChar

StartChar: agrave
Encoding: 224 224 213
Width: 549
VWidth: 0
Flags: HMW
LayerCount: 2
Fore
SplineSet
524 460 m 5
 554 460 l 5
 473 0 l 5
 443 0 l 5
 524 460 l 5
83 230 m 4
 109 378 221 470 343 470 c 4
 464 470 520 358 497 230 c 4
 474 102 379 -10 258 -10 c 4
 136 -10 57 82 83 230 c 4
114 230 m 4
 91 100 162 20 269 20 c 4
 366 20 463 117 483 230 c 4
 503 343 440 440 343 440 c 4
 236 440 137 360 114 230 c 4
269 692 m 5
 300 710 l 5
 436 550 l 5
 418 537 l 5
 269 692 l 5
EndSplineSet
Substitution2: "alt a" agrave.alt
EndChar

StartChar: aacute
Encoding: 225 225 214
Width: 549
VWidth: 0
Flags: HMW
LayerCount: 2
Fore
SplineSet
524 460 m 5
 554 460 l 5
 473 0 l 5
 443 0 l 5
 524 460 l 5
83 230 m 4
 109 378 221 470 343 470 c 4
 464 470 520 358 497 230 c 4
 474 102 379 -10 258 -10 c 4
 136 -10 57 82 83 230 c 4
114 230 m 4
 91 100 162 20 269 20 c 4
 366 20 463 117 483 230 c 4
 503 343 440 440 343 440 c 4
 236 440 137 360 114 230 c 4
488 692 m 5
 285 537 l 5
 271 550 l 5
 463 710 l 5
 488 692 l 5
EndSplineSet
Substitution2: "alt a" aacute.alt
EndChar

StartChar: acircumflex
Encoding: 226 226 215
Width: 549
VWidth: 0
Flags: HMW
LayerCount: 2
Fore
SplineSet
524 460 m 5
 554 460 l 5
 473 0 l 5
 443 0 l 5
 524 460 l 5
83 230 m 4
 109 378 221 470 343 470 c 4
 464 470 520 358 497 230 c 4
 474 102 379 -10 258 -10 c 4
 136 -10 57 82 83 230 c 4
114 230 m 4
 91 100 162 20 269 20 c 4
 366 20 463 117 483 230 c 4
 503 343 440 440 343 440 c 4
 236 440 137 360 114 230 c 4
384 667 m 5
 221 544 l 5
 205 561 l 5
 390 701 l 5
 525 561 l 5
 502 544 l 5
 384 667 l 5
EndSplineSet
Substitution2: "alt a" acircumflex.alt
EndChar

StartChar: atilde
Encoding: 227 227 216
Width: 549
VWidth: 0
Flags: HMW
LayerCount: 2
Fore
SplineSet
524 460 m 5
 554 460 l 5
 473 0 l 5
 443 0 l 5
 524 460 l 5
83 230 m 4
 109 378 221 470 343 470 c 4
 464 470 520 358 497 230 c 4
 474 102 379 -10 258 -10 c 4
 136 -10 57 82 83 230 c 4
114 230 m 4
 91 100 162 20 269 20 c 4
 366 20 463 117 483 230 c 4
 503 343 440 440 343 440 c 4
 236 440 137 360 114 230 c 4
226 556 m 5
 235 591 266 621 311 621 c 4
 369 621 373 574 427 574 c 4
 453 574 470 590 492 622 c 5
 510 607 l 5
 487 570 458 548 422 548 c 4
 367 548 354 595 309 595 c 4
 268 595 251 566 247 544 c 5
 226 556 l 5
EndSplineSet
Substitution2: "alt a" atilde.alt
EndChar

StartChar: adieresis
Encoding: 228 228 217
Width: 549
VWidth: 0
Flags: HMW
LayerCount: 2
Fore
SplineSet
524 460 m 5
 554 460 l 5
 473 0 l 5
 443 0 l 5
 524 460 l 5
83 230 m 4
 109 378 221 470 343 470 c 4
 464 470 520 358 497 230 c 4
 474 102 379 -10 258 -10 c 4
 136 -10 57 82 83 230 c 4
114 230 m 4
 91 100 162 20 269 20 c 4
 366 20 463 117 483 230 c 4
 503 343 440 440 343 440 c 4
 236 440 137 360 114 230 c 4
452 589 m 4
 454 603 467 613 480 613 c 4
 493 613 503 603 501 589 c 4
 499 575 485 565 472 565 c 4
 459 565 450 575 452 589 c 4
252 589 m 4
 254 603 267 613 280 613 c 4
 293 613 303 603 301 589 c 4
 299 575 285 565 272 565 c 4
 259 565 250 575 252 589 c 4
EndSplineSet
Substitution2: "alt a" adieresis.alt
EndChar

StartChar: aring
Encoding: 229 229 218
Width: 549
VWidth: 0
Flags: HMW
LayerCount: 2
Fore
SplineSet
524 460 m 5
 554 460 l 5
 473 0 l 5
 443 0 l 5
 524 460 l 5
83 230 m 4
 109 378 221 470 343 470 c 4
 464 470 520 358 497 230 c 4
 474 102 379 -10 258 -10 c 4
 136 -10 57 82 83 230 c 4
114 230 m 4
 91 100 162 20 269 20 c 4
 366 20 463 117 483 230 c 4
 503 343 440 440 343 440 c 4
 236 440 137 360 114 230 c 4
275 630 m 4
 286 690 343 730 395 730 c 4
 447 730 490 690 479 630 c 4
 468 570 411 530 359 530 c 4
 307 530 264 570 275 630 c 4
297 630 m 4
 289 583 322 551 363 551 c 4
 404 551 448 583 456 630 c 4
 464 677 432 709 391 709 c 4
 350 709 305 677 297 630 c 4
EndSplineSet
Substitution2: "alt a" aring.alt
EndChar

StartChar: germandbls
Encoding: 223 223 219
Width: 542
VWidth: 0
Flags: HMW
LayerCount: 2
Fore
SplineSet
187 606 m 1
 218 606 l 1
 111 0 l 1
 80 0 l 1
 187 606 l 1
315 439 m 1
 319 461 l 1
 429 461 515 505 532 603 c 0
 547 690 515 760 397 760 c 0
 309 760 234 696 218 606 c 1
 187 606 l 1
 206 715 297 790 402 790 c 0
 537 790 583 715 564 606 c 0
 545 501 470 439 315 439 c 1
262 20 m 1
 377 20 484 104 506 228 c 0
 529 361 424 432 314 432 c 1
 318 453 l 1
 473 453 560 357 537 225 c 0
 512 86 391 -10 256 -10 c 1
 262 20 l 1
EndSplineSet
EndChar

StartChar: ae
Encoding: 230 230 220
Width: 825
VWidth: 0
Flags: HMW
LayerCount: 2
Fore
SplineSet
91 133 m 0
 80 70 113 18 201 18 c 0
 287 18 367 85 382 171 c 1
 399 155 l 1
 383 66 294 -10 196 -10 c 0
 90 -10 46 50 60 130 c 0
 77 228 168 282 276 282 c 0
 357 282 393 246 405 232 c 1
 401 211 l 1
 379 233 336 257 271 257 c 0
 175 257 105 210 91 133 c 0
159 382 m 1
 148 406 l 1
 185 434 241 470 324 470 c 0
 415 470 447 408 433 330 c 2
 401 150 l 1
 378 150 l 1
 408 320 l 2
 419 385 395 442 317 442 c 0
 244 442 191 406 159 382 c 1
414 222 m 1
 419 250 l 1
 820 250 l 1
 825 222 l 1
 414 222 l 1
798 250 m 2
 819 370 745 442 655 442 c 0
 540 442 447 353 427 242 c 1
 425 234 l 1
 403 107 466 20 570 20 c 0
 672 20 729 66 777 124 c 1
 799 107 l 1
 741 37 680 -10 561 -10 c 0
 443 -10 371 91 396 230 c 0
 399 247 407 263 413 279 c 0
 452 392 543 470 666 470 c 0
 755 470 858 393 832 248 c 0
 831 240 827 230 825 222 c 1
 795 230 l 1
 798 250 l 2
EndSplineSet
EndChar

StartChar: ccedilla
Encoding: 231 231 221
Width: 485
VWidth: 0
Flags: HMW
LayerCount: 2
Fore
SplineSet
109 230 m 0
 87 108 162 20 276 20 c 0
 350 20 418 58 444 88 c 1
 436 48 l 1
 406 19 340 -10 270 -10 c 0
 137 -10 53 91 78 230 c 0
 103 369 222 470 355 470 c 0
 425 470 481 440 501 412 c 1
 494 372 l 1
 478 402 424 440 350 440 c 0
 236 440 131 352 109 230 c 0
273 15 m 1
 299 15 l 1
 225 -72 l 1
 189 -97 l 1
 273 15 l 1
340 -129 m 1
 316 -129 l 1
 323 -91 297 -74 267 -74 c 0
 243 -74 215 -81 189 -97 c 1
 213 -76 l 1
 242 -60 253 -55 280 -55 c 0
 313 -55 349 -80 340 -129 c 1
340 -129 m 1
 329 -190 272 -223 217 -223 c 0
 180 -223 157 -213 134 -185 c 1
 152 -169 l 1
 174 -191 190 -200 221 -200 c 0
 264 -200 308 -175 316 -129 c 1
 340 -129 l 1
EndSplineSet
EndChar

StartChar: egrave
Encoding: 232 232 222
Width: 519
VWidth: 0
Flags: HMW
LayerCount: 2
Fore
SplineSet
104 222 m 1
 109 250 l 1
 512 250 l 1
 515 222 l 1
 104 222 l 1
488 252 m 2
 507 361 442 442 342 442 c 0
 242 442 138 366 116 240 c 1
 115 232 l 1
 93 108 155 20 265 20 c 0
 367 20 428 74 467 124 c 1
 489 107 l 1
 444 53 379 -10 256 -10 c 0
 131 -10 58 93 83 232 c 0
 87 256 93 278 103 300 c 0
 145 400 239 470 347 470 c 0
 463 470 545 379 522 248 c 0
 521 240 517 230 515 222 c 1
 485 230 l 1
 488 252 l 2
244 691 m 1
 275 708 l 1
 411 548 l 1
 391 536 l 1
 244 691 l 1
EndSplineSet
EndChar

StartChar: eacute
Encoding: 233 233 223
Width: 519
VWidth: 0
Flags: HMW
LayerCount: 2
Fore
SplineSet
104 222 m 1
 109 250 l 1
 512 250 l 1
 515 222 l 1
 104 222 l 1
488 252 m 2
 507 361 442 442 342 442 c 0
 242 442 138 366 116 240 c 1
 115 232 l 1
 93 108 155 20 265 20 c 0
 367 20 428 74 467 124 c 1
 489 107 l 1
 444 53 379 -10 256 -10 c 0
 131 -10 58 93 83 232 c 0
 87 256 93 278 103 300 c 0
 145 400 239 470 347 470 c 0
 463 470 545 379 522 248 c 0
 521 240 517 230 515 222 c 1
 485 230 l 1
 488 252 l 2
529 691 m 1
 327 536 l 1
 312 548 l 1
 504 708 l 1
 529 691 l 1
EndSplineSet
EndChar

StartChar: ecircumflex
Encoding: 234 234 224
Width: 519
VWidth: 0
Flags: HMW
LayerCount: 2
Fore
SplineSet
104 222 m 1
 109 250 l 1
 512 250 l 1
 515 222 l 1
 104 222 l 1
488 252 m 2
 507 361 442 442 342 442 c 0
 242 442 138 366 116 240 c 1
 115 232 l 1
 93 108 155 20 265 20 c 0
 367 20 428 74 467 124 c 1
 489 107 l 1
 444 53 379 -10 256 -10 c 0
 131 -10 58 93 83 232 c 0
 87 256 93 278 103 300 c 0
 145 400 239 470 347 470 c 0
 463 470 545 379 522 248 c 0
 521 240 517 230 515 222 c 1
 485 230 l 1
 488 252 l 2
382 667 m 1
 220 544 l 1
 203 561 l 1
 388 701 l 1
 523 561 l 1
 500 544 l 1
 382 667 l 1
EndSplineSet
EndChar

StartChar: edieresis
Encoding: 235 235 225
Width: 519
VWidth: 0
Flags: HMW
LayerCount: 2
Fore
SplineSet
104 222 m 1
 109 250 l 1
 512 250 l 1
 515 222 l 1
 104 222 l 1
488 252 m 2
 507 361 442 442 342 442 c 0
 242 442 138 366 116 240 c 1
 115 232 l 1
 93 108 155 20 265 20 c 0
 367 20 428 74 467 124 c 1
 489 107 l 1
 444 53 379 -10 256 -10 c 0
 131 -10 58 93 83 232 c 0
 87 256 93 278 103 300 c 0
 145 400 239 470 347 470 c 0
 463 470 545 379 522 248 c 0
 521 240 517 230 515 222 c 1
 485 230 l 1
 488 252 l 2
440 568 m 0
 442 582 455 592 468 592 c 0
 481 592 490 582 488 568 c 0
 486 554 473 544 460 544 c 0
 447 544 438 554 440 568 c 0
240 568 m 0
 242 582 255 592 268 592 c 0
 281 592 290 582 288 568 c 0
 286 554 273 544 260 544 c 0
 247 544 238 554 240 568 c 0
EndSplineSet
EndChar

StartChar: igrave
Encoding: 236 236 226
Width: 211
VWidth: 0
Flags: HMW
LayerCount: 2
Fore
SplineSet
171 460 m 1
 202 460 l 1
 121 0 l 1
 90 0 l 1
 171 460 l 1
71 691 m 1
 102 708 l 1
 238 548 l 1
 219 536 l 1
 71 691 l 1
EndSplineSet
EndChar

StartChar: dotlessi
Encoding: 305 305 227
Width: 211
VWidth: 0
Flags: HMW
LayerCount: 2
Fore
SplineSet
171 460 m 1
 202 460 l 1
 121 0 l 1
 90 0 l 1
 171 460 l 1
EndSplineSet
EndChar

StartChar: kgreenlandic
Encoding: 312 312 228
Width: 392
VWidth: 0
Flags: HMW
LayerCount: 2
Fore
SplineSet
158 460 m 1
 189 460 l 1
 108 0 l 1
 77 0 l 1
 158 460 l 1
407 460 m 1
 448 460 l 1
 186 270 l 1
 386 0 l 1
 346 0 l 1
 146 270 l 1
 407 460 l 1
EndSplineSet
EndChar

StartChar: iacute
Encoding: 237 237 229
Width: 211
VWidth: 0
Flags: HMW
LayerCount: 2
Fore
SplineSet
171 460 m 1
 202 460 l 1
 121 0 l 1
 90 0 l 1
 171 460 l 1
384 691 m 1
 183 536 l 1
 167 548 l 1
 359 708 l 1
 384 691 l 1
EndSplineSet
EndChar

StartChar: icircumflex
Encoding: 238 238 230
Width: 211
VWidth: 0
Flags: HMW
LayerCount: 2
Fore
SplineSet
171 460 m 1
 202 460 l 1
 121 0 l 1
 90 0 l 1
 171 460 l 1
222 656 m 1
 60 533 l 1
 43 550 l 1
 228 690 l 1
 363 550 l 1
 340 533 l 1
 222 656 l 1
EndSplineSet
EndChar

StartChar: idieresis
Encoding: 239 239 231
Width: 211
VWidth: 0
Flags: HMW
LayerCount: 2
Fore
SplineSet
171 460 m 1
 202 460 l 1
 121 0 l 1
 90 0 l 1
 171 460 l 1
267 563 m 0
 269 577 283 588 296 588 c 0
 309 588 317 577 315 563 c 0
 313 549 300 539 287 539 c 0
 274 539 265 549 267 563 c 0
95 563 m 0
 97 577 111 588 124 588 c 0
 137 588 145 577 143 563 c 0
 141 549 128 539 115 539 c 0
 102 539 93 549 95 563 c 0
EndSplineSet
EndChar

StartChar: ntilde
Encoding: 241 241 232
Width: 490
VWidth: 0
Flags: HMW
LayerCount: 2
Fore
SplineSet
194 460 m 1
 113 0 l 1
 82 0 l 1
 163 460 l 1
 194 460 l 1
431 308 m 2
 445 388 422 440 340 440 c 0
 256 440 177 366 162 280 c 1
 147 280 l 1
 166 389 256 470 351 470 c 0
 446 470 480 409 463 311 c 2
 408 0 l 1
 377 0 l 1
 431 308 l 2
206 556 m 1
 215 591 246 621 291 621 c 0
 349 621 353 574 407 574 c 0
 433 574 450 590 472 622 c 1
 489 607 l 1
 466 570 437 548 401 548 c 0
 346 548 334 595 289 595 c 0
 248 595 230 566 226 544 c 1
 206 556 l 1
EndSplineSet
EndChar

StartChar: ograve
Encoding: 242 242 233
Width: 553
VWidth: 0
Flags: HMW
LayerCount: 2
Fore
SplineSet
83 230 m 0
 108 369 226 470 359 470 c 0
 492 470 577 369 552 230 c 0
 527 91 407 -10 274 -10 c 0
 141 -10 58 91 83 230 c 0
115 230 m 0
 93 108 166 20 280 20 c 0
 394 20 499 108 521 230 c 0
 543 352 468 440 354 440 c 0
 240 440 137 352 115 230 c 0
256 691 m 1
 287 708 l 1
 423 548 l 1
 404 536 l 1
 256 691 l 1
EndSplineSet
EndChar

StartChar: oacute
Encoding: 243 243 234
Width: 553
VWidth: 0
Flags: HMW
LayerCount: 2
Fore
SplineSet
83 230 m 0
 108 369 226 470 359 470 c 0
 492 470 577 369 552 230 c 0
 527 91 407 -10 274 -10 c 0
 141 -10 58 91 83 230 c 0
115 230 m 0
 93 108 166 20 280 20 c 0
 394 20 499 108 521 230 c 0
 543 352 468 440 354 440 c 0
 240 440 137 352 115 230 c 0
542 691 m 1
 339 536 l 1
 325 548 l 1
 517 708 l 1
 542 691 l 1
EndSplineSet
EndChar

StartChar: ocircumflex
Encoding: 244 244 235
Width: 553
VWidth: 0
Flags: HMW
LayerCount: 2
Fore
SplineSet
83 230 m 0
 108 369 226 470 359 470 c 0
 492 470 577 369 552 230 c 0
 527 91 407 -10 274 -10 c 0
 141 -10 58 91 83 230 c 0
115 230 m 0
 93 108 166 20 280 20 c 0
 394 20 499 108 521 230 c 0
 543 352 468 440 354 440 c 0
 240 440 137 352 115 230 c 0
395 673 m 1
 233 550 l 1
 216 567 l 1
 401 707 l 1
 536 567 l 1
 513 550 l 1
 395 673 l 1
EndSplineSet
EndChar

StartChar: otilde
Encoding: 245 245 236
Width: 553
VWidth: 0
Flags: HMW
LayerCount: 2
Fore
SplineSet
83 230 m 0
 108 369 226 470 359 470 c 0
 492 470 577 369 552 230 c 0
 527 91 407 -10 274 -10 c 0
 141 -10 58 91 83 230 c 0
115 230 m 0
 93 108 166 20 280 20 c 0
 394 20 499 108 521 230 c 0
 543 352 468 440 354 440 c 0
 240 440 137 352 115 230 c 0
237 556 m 1
 246 591 278 621 323 621 c 0
 381 621 385 574 439 574 c 0
 465 574 482 590 504 622 c 1
 521 607 l 1
 498 570 469 548 433 548 c 0
 378 548 364 595 319 595 c 0
 278 595 262 566 258 544 c 1
 237 556 l 1
EndSplineSet
EndChar

StartChar: odieresis
Encoding: 246 246 237
Width: 553
VWidth: 0
Flags: HMW
LayerCount: 2
Fore
SplineSet
83 230 m 0
 108 369 226 470 359 470 c 0
 492 470 577 369 552 230 c 0
 527 91 407 -10 274 -10 c 0
 141 -10 58 91 83 230 c 0
115 230 m 0
 93 108 166 20 280 20 c 0
 394 20 499 108 521 230 c 0
 543 352 468 440 354 440 c 0
 240 440 137 352 115 230 c 0
454 577 m 0
 456 591 469 602 482 602 c 0
 495 602 504 591 502 577 c 0
 500 563 487 553 474 553 c 0
 461 553 452 563 454 577 c 0
254 577 m 0
 256 591 269 602 282 602 c 0
 295 602 304 591 302 577 c 0
 300 563 287 553 274 553 c 0
 261 553 252 563 254 577 c 0
EndSplineSet
EndChar

StartChar: ugrave
Encoding: 249 249 238
Width: 490
VWidth: 0
Flags: HMW
LayerCount: 2
Fore
SplineSet
377 0 m 1
 458 460 l 1
 489 460 l 1
 408 0 l 1
 377 0 l 1
141 159 m 2
 126 73 150 20 232 20 c 0
 316 20 394 94 409 180 c 1
 424 180 l 1
 405 71 315 -10 220 -10 c 0
 125 -10 91 51 110 156 c 2
 163 460 l 1
 194 460 l 1
 141 159 l 2
223 698 m 1
 254 716 l 1
 390 556 l 1
 371 543 l 1
 223 698 l 1
EndSplineSet
EndChar

StartChar: uacute
Encoding: 250 250 239
Width: 490
VWidth: 0
Flags: HMW
LayerCount: 2
Fore
SplineSet
377 0 m 1
 458 460 l 1
 489 460 l 1
 408 0 l 1
 377 0 l 1
141 159 m 2
 126 73 150 20 232 20 c 0
 316 20 394 94 409 180 c 1
 424 180 l 1
 405 71 315 -10 220 -10 c 0
 125 -10 91 51 110 156 c 2
 163 460 l 1
 194 460 l 1
 141 159 l 2
513 698 m 1
 310 543 l 1
 296 556 l 1
 488 716 l 1
 513 698 l 1
EndSplineSet
EndChar

StartChar: ucircumflex
Encoding: 251 251 240
Width: 490
VWidth: 0
Flags: HMW
LayerCount: 2
Fore
SplineSet
377 0 m 1
 458 460 l 1
 489 460 l 1
 408 0 l 1
 377 0 l 1
141 159 m 2
 126 73 150 20 232 20 c 0
 316 20 394 94 409 180 c 1
 424 180 l 1
 405 71 315 -10 220 -10 c 0
 125 -10 91 51 110 156 c 2
 163 460 l 1
 194 460 l 1
 141 159 l 2
362 666 m 1
 200 543 l 1
 184 560 l 1
 368 700 l 1
 504 560 l 1
 480 543 l 1
 362 666 l 1
EndSplineSet
EndChar

StartChar: udieresis
Encoding: 252 252 241
Width: 490
VWidth: 0
Flags: HMW
LayerCount: 2
Fore
SplineSet
377 0 m 1
 458 460 l 1
 489 460 l 1
 408 0 l 1
 377 0 l 1
141 159 m 2
 126 73 150 20 232 20 c 0
 316 20 394 94 409 180 c 1
 424 180 l 1
 405 71 315 -10 220 -10 c 0
 125 -10 91 51 110 156 c 2
 163 460 l 1
 194 460 l 1
 141 159 l 2
407 574 m 0
 409 588 423 598 436 598 c 0
 449 598 458 588 456 574 c 0
 454 560 441 550 428 550 c 0
 415 550 405 560 407 574 c 0
235 574 m 0
 237 588 251 598 264 598 c 0
 277 598 286 588 284 574 c 0
 282 560 269 550 256 550 c 0
 243 550 233 560 235 574 c 0
EndSplineSet
EndChar

StartChar: yacute
Encoding: 253 253 242
Width: 429
VWidth: 0
Flags: HMW
LayerCount: 2
Fore
SplineSet
503 460 m 1
 83 -220 l 1
 49 -220 l 1
 206 34 l 1
 88 460 l 1
 125 460 l 1
 235 44 l 1
 218 45 l 1
 469 460 l 1
 503 460 l 1
484 691 m 1
 283 536 l 1
 267 548 l 1
 459 708 l 1
 484 691 l 1
EndSplineSet
EndChar

StartChar: thorn
Encoding: 254 254 243
Width: 549
VWidth: 0
Flags: HMW
LayerCount: 2
Fore
SplineSet
69 -220 m 1
 38 -220 l 1
 215 780 l 1
 246 780 l 1
 69 -220 l 1
549 230 m 0
 523 82 410 -10 288 -10 c 0
 167 -10 112 102 135 230 c 0
 158 358 252 470 373 470 c 0
 495 470 575 378 549 230 c 0
517 230 m 0
 540 360 470 440 363 440 c 0
 266 440 169 343 149 230 c 0
 129 117 192 20 289 20 c 0
 396 20 494 100 517 230 c 0
EndSplineSet
EndChar

StartChar: ydieresis
Encoding: 255 255 244
Width: 429
VWidth: 0
Flags: HMW
LayerCount: 2
Fore
SplineSet
503 460 m 1
 83 -220 l 1
 49 -220 l 1
 206 34 l 1
 88 460 l 1
 125 460 l 1
 235 44 l 1
 218 45 l 1
 469 460 l 1
 503 460 l 1
377 568 m 0
 379 582 391 592 404 592 c 0
 417 592 427 582 425 568 c 0
 423 554 409 544 396 544 c 0
 383 544 375 554 377 568 c 0
205 568 m 0
 207 582 219 592 232 592 c 0
 245 592 255 582 253 568 c 0
 251 554 237 544 224 544 c 0
 211 544 203 554 205 568 c 0
EndSplineSet
EndChar

StartChar: Amacron
Encoding: 256 256 245
Width: 618
VWidth: 0
Flags: HMW
LayerCount: 2
Fore
SplineSet
178 254 m 1
 192 284 l 1
 526 284 l 1
 531 254 l 1
 178 254 l 1
423 644 m 1
 207 273 l 1
 203 265 l 1
 49 0 l 1
 12 0 l 1
 436 721 l 1
 606 0 l 1
 569 0 l 1
 510 263 l 1
 508 271 l 1
 423 644 l 1
274 795 m 1
 279 824 l 1
 629 824 l 1
 624 795 l 1
 274 795 l 1
EndSplineSet
EndChar

StartChar: amacron
Encoding: 257 257 246
Width: 549
VWidth: 0
Flags: HMW
LayerCount: 2
Fore
SplineSet
524 460 m 5
 554 460 l 5
 473 0 l 5
 443 0 l 5
 524 460 l 5
83 230 m 4
 109 378 221 470 343 470 c 4
 464 470 520 358 497 230 c 4
 474 102 379 -10 258 -10 c 4
 136 -10 57 82 83 230 c 4
114 230 m 4
 91 100 162 20 269 20 c 4
 366 20 463 117 483 230 c 4
 503 343 440 440 343 440 c 4
 236 440 137 360 114 230 c 4
184 544 m 5
 189 574 l 5
 539 574 l 5
 534 544 l 5
 184 544 l 5
EndSplineSet
Substitution2: "alt a" amacron.alt
EndChar

StartChar: breve
Encoding: 728 728 247
Width: 546
VWidth: 0
Flags: HMW
LayerCount: 2
Fore
SplineSet
265 850 m 1
 294 850 l 1
 284 796 317 736 403 736 c 0
 489 736 542 796 552 850 c 1
 581 850 l 1
 569 781 503 710 398 710 c 0
 293 710 253 781 265 850 c 1
EndSplineSet
EndChar

StartChar: Abreve
Encoding: 258 258 248
Width: 618
VWidth: 0
Flags: HMW
LayerCount: 2
Fore
SplineSet
178 254 m 1
 192 284 l 1
 526 284 l 1
 531 254 l 1
 178 254 l 1
423 644 m 1
 207 273 l 1
 203 265 l 1
 49 0 l 1
 12 0 l 1
 436 721 l 1
 606 0 l 1
 569 0 l 1
 510 263 l 1
 508 271 l 1
 423 644 l 1
315 928 m 1
 344 928 l 1
 334 874 367 814 453 814 c 0
 539 814 592 874 602 928 c 1
 631 928 l 1
 619 859 553 788 448 788 c 0
 343 788 303 859 315 928 c 1
EndSplineSet
EndChar

StartChar: abreve
Encoding: 259 259 249
Width: 549
VWidth: 0
Flags: HMW
LayerCount: 2
Fore
SplineSet
524 460 m 5
 554 460 l 5
 473 0 l 5
 443 0 l 5
 524 460 l 5
83 230 m 4
 109 378 221 470 343 470 c 4
 464 470 520 358 497 230 c 4
 474 102 379 -10 258 -10 c 4
 136 -10 57 82 83 230 c 4
114 230 m 4
 91 100 162 20 269 20 c 4
 366 20 463 117 483 230 c 4
 503 343 440 440 343 440 c 4
 236 440 137 360 114 230 c 4
223 684 m 5
 251 684 l 5
 241 630 276 570 361 570 c 4
 446 570 500 630 510 684 c 5
 539 684 l 5
 527 615 461 544 356 544 c 4
 251 544 211 615 223 684 c 5
EndSplineSet
Substitution2: "alt a" abreve.alt
EndChar

StartChar: Aogonek
Encoding: 260 260 250
Width: 618
VWidth: 0
Flags: HMW
LayerCount: 2
Fore
SplineSet
178 254 m 1
 192 284 l 1
 526 284 l 1
 531 254 l 1
 178 254 l 1
423 644 m 1
 207 273 l 1
 203 265 l 1
 49 0 l 1
 12 0 l 1
 436 721 l 1
 606 0 l 1
 569 0 l 1
 510 263 l 1
 508 271 l 1
 423 644 l 1
600 -160 m 1
 611 -180 l 1
 592 -200 552 -220 509 -220 c 0
 439 -220 406 -186 415 -134 c 1
 447 -128 l 1
 439 -171 472 -192 516 -192 c 0
 552 -192 583 -176 600 -160 c 1
447 -128 m 1
 415 -134 l 1
 427 -68 512 -22 588 14 c 1
 603 0 l 1
 535 -29 456 -77 447 -128 c 1
EndSplineSet
EndChar

StartChar: aogonek
Encoding: 261 261 251
Width: 549
VWidth: 0
Flags: HMW
LayerCount: 2
Fore
SplineSet
524 460 m 5
 554 460 l 5
 473 0 l 5
 443 0 l 5
 524 460 l 5
83 230 m 4
 109 378 221 470 343 470 c 4
 464 470 520 358 497 230 c 4
 474 102 379 -10 258 -10 c 4
 136 -10 57 82 83 230 c 4
114 230 m 4
 91 100 162 20 269 20 c 4
 366 20 463 117 483 230 c 4
 503 343 440 440 343 440 c 4
 236 440 137 360 114 230 c 4
470 -160 m 5
 481 -180 l 5
 462 -200 422 -220 379 -220 c 4
 309 -220 276 -186 285 -134 c 5
 317 -128 l 5
 309 -171 341 -192 385 -192 c 4
 421 -192 452 -176 470 -160 c 5
317 -128 m 5
 285 -134 l 5
 297 -68 382 -22 458 14 c 5
 473 0 l 5
 405 -29 326 -77 317 -128 c 5
EndSplineSet
Substitution2: "alt a" aogonek.alt
EndChar

StartChar: Cacute
Encoding: 262 262 252
Width: 685
VWidth: 0
Flags: HMW
LayerCount: 2
Fore
SplineSet
144 350 m 0
 111 161 216 26 388 26 c 0
 487 26 562 58 628 116 c 1
 620 70 l 1
 552 18 484 -8 382 -8 c 0
 188 -8 72 141 109 350 c 0
 146 559 314 708 508 708 c 0
 610 708 669 682 719 630 c 1
 711 586 l 1
 667 644 598 674 502 674 c 0
 330 674 178 541 144 350 c 0
680 924 m 1
 477 768 l 1
 463 781 l 1
 655 941 l 1
 680 924 l 1
EndSplineSet
EndChar

StartChar: cacute
Encoding: 263 263 253
Width: 485
VWidth: 0
Flags: HMW
LayerCount: 2
Fore
SplineSet
109 230 m 0
 87 108 162 20 276 20 c 0
 350 20 418 58 444 88 c 1
 436 48 l 1
 406 19 340 -10 270 -10 c 0
 137 -10 53 91 78 230 c 0
 103 369 222 470 355 470 c 0
 425 470 481 440 501 412 c 1
 494 372 l 1
 478 402 424 440 350 440 c 0
 236 440 131 352 109 230 c 0
534 692 m 1
 333 537 l 1
 317 550 l 1
 509 710 l 1
 534 692 l 1
EndSplineSet
EndChar

StartChar: Ccircumflex
Encoding: 264 264 254
Width: 685
VWidth: 0
Flags: HMW
LayerCount: 2
Fore
SplineSet
144 350 m 0
 111 161 216 26 388 26 c 0
 487 26 562 58 628 116 c 1
 620 70 l 1
 552 18 484 -8 382 -8 c 0
 188 -8 72 141 109 350 c 0
 146 559 314 708 508 708 c 0
 610 708 669 682 719 630 c 1
 711 586 l 1
 667 644 598 674 502 674 c 0
 330 674 178 541 144 350 c 0
540 892 m 1
 378 768 l 1
 362 786 l 1
 546 926 l 1
 682 786 l 1
 658 768 l 1
 540 892 l 1
EndSplineSet
EndChar

StartChar: ccircumflex
Encoding: 265 265 255
Width: 485
VWidth: 0
Flags: HMW
LayerCount: 2
Fore
SplineSet
109 230 m 0
 87 108 162 20 276 20 c 0
 350 20 418 58 444 88 c 1
 436 48 l 1
 406 19 340 -10 270 -10 c 0
 137 -10 53 91 78 230 c 0
 103 369 222 470 355 470 c 0
 425 470 481 440 501 412 c 1
 494 372 l 1
 478 402 424 440 350 440 c 0
 236 440 131 352 109 230 c 0
387 653 m 1
 225 530 l 1
 208 547 l 1
 393 687 l 1
 528 547 l 1
 505 530 l 1
 387 653 l 1
EndSplineSet
EndChar

StartChar: Cdotaccent
Encoding: 266 266 256
Width: 685
VWidth: 0
Flags: HMW
LayerCount: 2
Fore
SplineSet
144 350 m 0
 111 161 216 26 388 26 c 0
 487 26 562 58 628 116 c 1
 620 70 l 1
 552 18 484 -8 382 -8 c 0
 188 -8 72 141 109 350 c 0
 146 559 314 708 508 708 c 0
 610 708 669 682 719 630 c 1
 711 586 l 1
 667 644 598 674 502 674 c 0
 330 674 178 541 144 350 c 0
500 800 m 0
 502 814 515 824 528 824 c 0
 541 824 550 814 548 800 c 0
 546 786 533 776 520 776 c 0
 507 776 498 786 500 800 c 0
EndSplineSet
EndChar

StartChar: cdotaccent
Encoding: 267 267 257
Width: 485
VWidth: 0
Flags: HMW
LayerCount: 2
Fore
SplineSet
109 230 m 0
 87 108 162 20 276 20 c 0
 350 20 418 58 444 88 c 1
 436 48 l 1
 406 19 340 -10 270 -10 c 0
 137 -10 53 91 78 230 c 0
 103 369 222 470 355 470 c 0
 425 470 481 440 501 412 c 1
 494 372 l 1
 478 402 424 440 350 440 c 0
 236 440 131 352 109 230 c 0
347 561 m 0
 349 575 362 586 375 586 c 0
 388 586 397 575 395 561 c 0
 393 547 380 537 367 537 c 0
 354 537 345 547 347 561 c 0
EndSplineSet
EndChar

StartChar: Ccaron
Encoding: 268 268 258
Width: 685
VWidth: 0
Flags: HMW
LayerCount: 2
Fore
SplineSet
144 350 m 0
 111 161 216 26 388 26 c 0
 487 26 562 58 628 116 c 1
 620 70 l 1
 552 18 484 -8 382 -8 c 0
 188 -8 72 141 109 350 c 0
 146 559 314 708 508 708 c 0
 610 708 669 682 719 630 c 1
 711 586 l 1
 667 644 598 674 502 674 c 0
 330 674 178 541 144 350 c 0
526 810 m 1
 687 933 l 1
 705 916 l 1
 520 776 l 1
 385 916 l 1
 409 933 l 1
 526 810 l 1
EndSplineSet
EndChar

StartChar: ccaron
Encoding: 269 269 259
Width: 485
VWidth: 0
Flags: HMW
LayerCount: 2
Fore
SplineSet
109 230 m 0
 87 108 162 20 276 20 c 0
 350 20 418 58 444 88 c 1
 436 48 l 1
 406 19 340 -10 270 -10 c 0
 137 -10 53 91 78 230 c 0
 103 369 222 470 355 470 c 0
 425 470 481 440 501 412 c 1
 494 372 l 1
 478 402 424 440 350 440 c 0
 236 440 131 352 109 230 c 0
374 578 m 1
 535 702 l 1
 553 684 l 1
 368 544 l 1
 233 684 l 1
 256 702 l 1
 374 578 l 1
EndSplineSet
EndChar

StartChar: Dcaron
Encoding: 270 270 260
Width: 648
VWidth: 0
Flags: HMW
LayerCount: 2
Fore
SplineSet
222 667 m 1
 227 700 l 1
 385 700 l 2
 589 700 701 559 664 350 c 1
 630 350 l 1
 664 541 568 667 380 667 c 2
 222 667 l 1
262 0 m 2
 104 0 l 1
 110 33 l 1
 268 33 l 2
 456 33 596 158 630 350 c 1
 664 350 l 1
 627 141 466 0 262 0 c 2
210 700 m 1
 243 700 l 1
 120 0 l 1
 87 0 l 1
 210 700 l 1
407 810 m 1
 568 933 l 1
 586 916 l 1
 401 776 l 1
 266 916 l 1
 289 933 l 1
 407 810 l 1
EndSplineSet
EndChar

StartChar: dcaron
Encoding: 271 271 261
Width: 570
VWidth: 0
Flags: HMW
LayerCount: 2
Fore
SplineSet
580 780 m 1
 610 780 l 1
 472 0 l 1
 442 0 l 1
 580 780 l 1
83 230 m 0
 109 378 221 470 343 470 c 0
 463 470 520 358 497 230 c 0
 474 102 378 -10 258 -10 c 0
 136 -10 57 82 83 230 c 0
115 230 m 0
 92 100 162 20 268 20 c 0
 366 20 463 117 483 230 c 0
 503 343 440 440 342 440 c 0
 236 440 138 360 115 230 c 0
780 769 m 1
 809 756 l 1
 655 506 l 1
 635 514 l 1
 780 769 l 1
EndSplineSet
EndChar

StartChar: Dcroat
Encoding: 272 272 262
Width: 680
VWidth: 0
Flags: HMW
LayerCount: 2
Fore
SplineSet
222 667 m 1
 227 700 l 1
 385 700 l 2
 589 700 701 559 664 350 c 1
 630 350 l 1
 664 541 566 667 380 667 c 2
 222 667 l 1
262 0 m 2
 104 0 l 1
 110 33 l 1
 268 33 l 2
 454 33 596 159 630 350 c 1
 664 350 l 1
 627 141 466 0 262 0 c 2
210 700 m 1
 243 700 l 1
 120 0 l 1
 87 0 l 1
 210 700 l 1
64 334 m 1
 69 364 l 1
 369 364 l 1
 364 334 l 1
 64 334 l 1
EndSplineSet
EndChar

StartChar: dcroat
Encoding: 273 273 263
Width: 549
VWidth: 0
Flags: HMW
LayerCount: 2
Fore
SplineSet
407 636 m 1
 412 665 l 1
 712 665 l 1
 707 636 l 1
 407 636 l 1
580 780 m 1
 610 780 l 1
 472 0 l 1
 442 0 l 1
 580 780 l 1
83 230 m 0
 109 379 221 470 343 470 c 0
 458 470 521 365 497 230 c 0
 473 95 373 -10 258 -10 c 0
 136 -10 57 81 83 230 c 0
115 230 m 0
 92 100 162 20 268 20 c 0
 370 20 464 124 483 230 c 0
 502 336 444 440 342 440 c 0
 236 440 138 360 115 230 c 0
EndSplineSet
EndChar

StartChar: Emacron
Encoding: 274 274 264
Width: 522
VWidth: 0
Flags: HMW
LayerCount: 2
Fore
SplineSet
102 0 m 1
 107 31 l 1
 450 31 l 1
 445 0 l 1
 102 0 l 1
220 669 m 1
 225 700 l 1
 568 700 l 1
 563 669 l 1
 220 669 l 1
167 371 m 1
 173 402 l 1
 496 402 l 1
 490 371 l 1
 167 371 l 1
210 700 m 1
 243 700 l 1
 120 0 l 1
 87 0 l 1
 210 700 l 1
249 816 m 1
 254 845 l 1
 604 845 l 1
 599 816 l 1
 249 816 l 1
EndSplineSet
EndChar

StartChar: emacron
Encoding: 275 275 265
Width: 519
VWidth: 0
Flags: HMW
LayerCount: 2
Fore
SplineSet
104 222 m 1
 109 250 l 1
 512 250 l 1
 515 222 l 1
 104 222 l 1
488 252 m 2
 507 361 442 442 342 442 c 0
 242 442 138 366 116 240 c 1
 115 232 l 1
 93 108 155 20 265 20 c 0
 367 20 428 74 467 124 c 1
 489 107 l 1
 444 53 379 -10 256 -10 c 0
 131 -10 58 93 83 232 c 0
 87 256 93 278 103 300 c 0
 145 400 239 470 347 470 c 0
 463 470 545 379 522 248 c 0
 521 240 517 230 515 222 c 1
 485 230 l 1
 488 252 l 2
190 576 m 1
 195 605 l 1
 545 605 l 1
 540 576 l 1
 190 576 l 1
EndSplineSet
EndChar

StartChar: Ebreve
Encoding: 276 276 266
Width: 522
VWidth: 0
Flags: HMW
LayerCount: 2
Fore
SplineSet
102 0 m 1
 107 31 l 1
 450 31 l 1
 445 0 l 1
 102 0 l 1
220 669 m 1
 225 700 l 1
 568 700 l 1
 563 669 l 1
 220 669 l 1
167 371 m 1
 173 402 l 1
 496 402 l 1
 490 371 l 1
 167 371 l 1
210 700 m 1
 243 700 l 1
 120 0 l 1
 87 0 l 1
 210 700 l 1
275 908 m 1
 304 908 l 1
 294 854 327 795 413 795 c 0
 499 795 552 854 562 908 c 1
 591 908 l 1
 579 839 513 768 408 768 c 0
 303 768 263 839 275 908 c 1
EndSplineSet
EndChar

StartChar: ebreve
Encoding: 277 277 267
Width: 519
VWidth: 0
Flags: HMW
LayerCount: 2
Fore
SplineSet
104 222 m 1
 109 250 l 1
 512 250 l 1
 515 222 l 1
 104 222 l 1
488 252 m 2
 507 361 442 442 342 442 c 0
 242 442 138 366 116 240 c 1
 115 232 l 1
 93 108 155 20 265 20 c 0
 367 20 428 74 467 124 c 1
 489 107 l 1
 444 53 379 -10 256 -10 c 0
 131 -10 58 93 83 232 c 0
 87 256 93 278 103 300 c 0
 145 400 239 470 347 470 c 0
 463 470 545 379 522 248 c 0
 521 240 517 230 515 222 c 1
 485 230 l 1
 488 252 l 2
227 684 m 1
 255 684 l 1
 245 630 279 570 365 570 c 0
 451 570 505 630 515 684 c 1
 543 684 l 1
 531 615 465 544 360 544 c 0
 255 544 215 615 227 684 c 1
EndSplineSet
EndChar

StartChar: Edotaccent
Encoding: 278 278 268
Width: 522
VWidth: 0
Flags: HMW
LayerCount: 2
Fore
SplineSet
102 0 m 1
 107 31 l 1
 450 31 l 1
 445 0 l 1
 102 0 l 1
220 669 m 1
 225 700 l 1
 568 700 l 1
 563 669 l 1
 220 669 l 1
167 371 m 1
 173 402 l 1
 496 402 l 1
 490 371 l 1
 167 371 l 1
210 700 m 1
 243 700 l 1
 120 0 l 1
 87 0 l 1
 210 700 l 1
382 793 m 0
 384 807 397 817 410 817 c 0
 423 817 432 807 430 793 c 0
 428 779 414 768 401 768 c 0
 388 768 380 779 382 793 c 0
EndSplineSet
EndChar

StartChar: edotaccent
Encoding: 279 279 269
Width: 519
VWidth: 0
Flags: HMW
LayerCount: 2
Fore
SplineSet
104 222 m 1
 109 250 l 1
 512 250 l 1
 515 222 l 1
 104 222 l 1
488 252 m 2
 507 361 442 442 342 442 c 0
 242 442 138 366 116 240 c 1
 115 232 l 1
 93 108 155 20 265 20 c 0
 367 20 428 74 467 124 c 1
 489 107 l 1
 444 53 379 -10 256 -10 c 0
 131 -10 58 93 83 232 c 0
 87 256 93 278 103 300 c 0
 145 400 239 470 347 470 c 0
 463 470 545 379 522 248 c 0
 521 240 517 230 515 222 c 1
 485 230 l 1
 488 252 l 2
340 568 m 0
 342 582 355 592 368 592 c 0
 381 592 390 582 388 568 c 0
 386 554 373 544 360 544 c 0
 347 544 338 554 340 568 c 0
EndSplineSet
EndChar

StartChar: Eogonek
Encoding: 280 280 270
Width: 522
VWidth: 0
Flags: HMW
LayerCount: 2
Fore
SplineSet
102 0 m 1
 107 31 l 1
 450 31 l 1
 445 0 l 1
 102 0 l 1
220 669 m 1
 225 700 l 1
 568 700 l 1
 563 669 l 1
 220 669 l 1
167 371 m 1
 173 402 l 1
 496 402 l 1
 490 371 l 1
 167 371 l 1
210 700 m 1
 243 700 l 1
 120 0 l 1
 87 0 l 1
 210 700 l 1
440 -160 m 1
 451 -180 l 1
 432 -200 392 -220 349 -220 c 0
 279 -220 246 -186 255 -134 c 1
 287 -128 l 1
 279 -171 312 -192 356 -192 c 0
 392 -192 423 -176 440 -160 c 1
287 -128 m 1
 255 -134 l 1
 267 -68 352 -22 428 14 c 1
 443 0 l 1
 375 -29 296 -77 287 -128 c 1
EndSplineSet
EndChar

StartChar: eogonek
Encoding: 281 281 271
Width: 519
VWidth: 0
Flags: HMW
LayerCount: 2
Fore
SplineSet
104 222 m 1
 109 250 l 1
 512 250 l 1
 515 222 l 1
 104 222 l 1
488 252 m 2
 507 361 442 442 342 442 c 0
 242 442 138 366 116 240 c 1
 115 232 l 1
 93 108 155 20 265 20 c 0
 367 20 428 74 467 124 c 1
 489 107 l 1
 444 53 379 -10 256 -10 c 0
 131 -10 58 93 83 232 c 0
 87 256 93 278 103 300 c 0
 145 400 239 470 347 470 c 0
 463 470 545 379 522 248 c 0
 521 240 517 230 515 222 c 1
 485 230 l 1
 488 252 l 2
268 -168 m 1
 279 -187 l 1
 260 -207 221 -227 178 -227 c 0
 108 -227 75 -193 84 -141 c 1
 116 -135 l 1
 108 -178 140 -199 184 -199 c 0
 220 -199 251 -184 268 -168 c 1
116 -135 m 1
 84 -141 l 1
 96 -75 180 -30 256 6 c 1
 272 -8 l 1
 204 -37 125 -84 116 -135 c 1
EndSplineSet
EndChar

StartChar: Ecaron
Encoding: 282 282 272
Width: 522
VWidth: 0
Flags: HMW
LayerCount: 2
Fore
SplineSet
102 0 m 1
 107 31 l 1
 450 31 l 1
 445 0 l 1
 102 0 l 1
220 669 m 1
 225 700 l 1
 568 700 l 1
 563 669 l 1
 220 669 l 1
167 371 m 1
 173 402 l 1
 496 402 l 1
 490 371 l 1
 167 371 l 1
210 700 m 1
 243 700 l 1
 120 0 l 1
 87 0 l 1
 210 700 l 1
407 802 m 1
 569 926 l 1
 586 908 l 1
 401 768 l 1
 266 908 l 1
 289 926 l 1
 407 802 l 1
EndSplineSet
EndChar

StartChar: ecaron
Encoding: 283 283 273
Width: 519
VWidth: 0
Flags: HMW
LayerCount: 2
Fore
SplineSet
104 222 m 1
 109 250 l 1
 512 250 l 1
 515 222 l 1
 104 222 l 1
488 252 m 2
 507 361 442 442 342 442 c 0
 242 442 138 366 116 240 c 1
 115 232 l 1
 93 108 155 20 265 20 c 0
 367 20 428 74 467 124 c 1
 489 107 l 1
 444 53 379 -10 256 -10 c 0
 131 -10 58 93 83 232 c 0
 87 256 93 278 103 300 c 0
 145 400 239 470 347 470 c 0
 463 470 545 379 522 248 c 0
 521 240 517 230 515 222 c 1
 485 230 l 1
 488 252 l 2
366 578 m 1
 528 702 l 1
 545 684 l 1
 360 544 l 1
 225 684 l 1
 249 702 l 1
 366 578 l 1
EndSplineSet
EndChar

StartChar: Gcircumflex
Encoding: 284 284 274
Width: 768
VWidth: 0
Flags: HMW
LayerCount: 2
Fore
SplineSet
471 314 m 1
 477 344 l 1
 777 344 l 1
 747 314 l 1
 471 314 l 1
777 344 m 1
 744 157 591 -8 391 -8 c 0
 194 -8 72 141 109 350 c 0
 146 559 320 708 517 708 c 0
 646 708 728 648 772 558 c 1
 743 537 l 1
 709 617 629 676 511 676 c 0
 333 676 178 541 144 350 c 0
 111 161 217 24 396 24 c 0
 578 24 714 176 743 342 c 1
 777 344 l 1
549 892 m 1
 387 768 l 1
 371 786 l 1
 555 926 l 1
 691 786 l 1
 667 768 l 1
 549 892 l 1
EndSplineSet
EndChar

StartChar: gcircumflex
Encoding: 285 285 275
Width: 549
VWidth: 0
Flags: HMW
LayerCount: 2
Fore
SplineSet
497 230 m 1
 483 230 l 1
 504 350 432 440 348 440 c 0
 232 440 137 357 115 230 c 1
 83 230 l 1
 109 379 221 470 346 470 c 0
 447 470 523 379 497 230 c 1
483 230 m 1
 497 230 l 1
 471 81 362 -10 261 -10 c 0
 136 -10 57 81 83 230 c 1
 115 230 l 1
 93 103 158 20 274 20 c 0
 358 20 462 110 483 230 c 1
50 -30 m 1
 81 -30 l 1
 63 -131 121 -200 223 -200 c 0
 319 -200 419 -134 444 10 c 2
 523 460 l 1
 553 460 l 1
 474 10 l 2
 446 -149 332 -230 217 -230 c 0
 96 -230 29 -149 50 -30 c 1
375 653 m 1
 213 530 l 1
 196 547 l 1
 381 687 l 1
 516 547 l 1
 493 530 l 1
 375 653 l 1
EndSplineSet
EndChar

StartChar: Gbreve
Encoding: 286 286 276
Width: 768
VWidth: 0
Flags: HMW
LayerCount: 2
Fore
SplineSet
471 314 m 1
 477 344 l 1
 777 344 l 1
 747 314 l 1
 471 314 l 1
777 344 m 1
 744 157 591 -8 391 -8 c 0
 194 -8 72 141 109 350 c 0
 146 559 320 708 517 708 c 0
 646 708 728 648 772 558 c 1
 743 537 l 1
 709 617 629 676 511 676 c 0
 333 676 178 541 144 350 c 0
 111 161 217 24 396 24 c 0
 578 24 714 176 743 342 c 1
 777 344 l 1
397 922 m 1
 425 922 l 1
 415 868 449 809 535 809 c 0
 621 809 674 868 684 922 c 1
 713 922 l 1
 701 853 635 782 530 782 c 0
 425 782 385 853 397 922 c 1
EndSplineSet
EndChar

StartChar: gbreve
Encoding: 287 287 277
Width: 549
VWidth: 0
Flags: HMW
LayerCount: 2
Fore
SplineSet
497 230 m 1
 483 230 l 1
 504 350 432 440 348 440 c 0
 232 440 137 357 115 230 c 1
 83 230 l 1
 109 379 221 470 346 470 c 0
 447 470 523 379 497 230 c 1
483 230 m 1
 497 230 l 1
 471 81 362 -10 261 -10 c 0
 136 -10 57 81 83 230 c 1
 115 230 l 1
 93 103 158 20 274 20 c 0
 358 20 462 110 483 230 c 1
50 -30 m 1
 81 -30 l 1
 63 -131 121 -200 223 -200 c 0
 319 -200 419 -134 444 10 c 2
 523 460 l 1
 553 460 l 1
 474 10 l 2
 446 -149 332 -230 217 -230 c 0
 96 -230 29 -149 50 -30 c 1
223 684 m 1
 251 684 l 1
 241 630 275 570 361 570 c 0
 447 570 500 630 510 684 c 1
 539 684 l 1
 527 615 461 544 356 544 c 0
 251 544 211 615 223 684 c 1
EndSplineSet
EndChar

StartChar: Gdotaccent
Encoding: 288 288 278
Width: 768
VWidth: 0
Flags: HMW
LayerCount: 2
Fore
SplineSet
471 314 m 1
 477 344 l 1
 777 344 l 1
 747 314 l 1
 471 314 l 1
777 344 m 1
 744 157 591 -8 391 -8 c 0
 194 -8 72 141 109 350 c 0
 146 559 320 708 517 708 c 0
 646 708 728 648 772 558 c 1
 743 537 l 1
 709 617 629 676 511 676 c 0
 333 676 178 541 144 350 c 0
 111 161 217 24 396 24 c 0
 578 24 714 176 743 342 c 1
 777 344 l 1
508 793 m 0
 510 807 523 817 536 817 c 0
 549 817 558 807 556 793 c 0
 554 779 540 768 527 768 c 0
 514 768 506 779 508 793 c 0
EndSplineSet
EndChar

StartChar: gdotaccent
Encoding: 289 289 279
Width: 549
VWidth: 0
Flags: HMW
LayerCount: 2
Fore
SplineSet
497 230 m 1
 483 230 l 1
 504 350 432 440 348 440 c 0
 232 440 137 357 115 230 c 1
 83 230 l 1
 109 379 221 470 346 470 c 0
 447 470 523 379 497 230 c 1
483 230 m 1
 497 230 l 1
 471 81 362 -10 261 -10 c 0
 136 -10 57 81 83 230 c 1
 115 230 l 1
 93 103 158 20 274 20 c 0
 358 20 462 110 483 230 c 1
50 -30 m 1
 81 -30 l 1
 63 -131 121 -200 223 -200 c 0
 319 -200 419 -134 444 10 c 2
 523 460 l 1
 553 460 l 1
 474 10 l 2
 446 -149 332 -230 217 -230 c 0
 96 -230 29 -149 50 -30 c 1
337 574 m 4
 339 588 352 598 365 598 c 4
 378 598 387 588 385 574 c 4
 383 560 370 550 357 550 c 4
 344 550 335 560 337 574 c 4
EndSplineSet
EndChar

StartChar: uni0122
Encoding: 290 290 280
Width: 768
VWidth: 0
Flags: HMW
LayerCount: 2
Fore
SplineSet
471 314 m 1
 477 344 l 1
 777 344 l 1
 747 314 l 1
 471 314 l 1
777 344 m 1
 744 157 591 -8 391 -8 c 0
 194 -8 72 141 109 350 c 0
 146 559 320 708 517 708 c 0
 646 708 728 648 772 558 c 1
 743 537 l 1
 709 617 629 676 511 676 c 0
 333 676 178 541 144 350 c 0
 111 161 217 24 396 24 c 0
 578 24 714 176 743 342 c 1
 777 344 l 1
414 -68 m 1
 444 -81 l 1
 290 -331 l 1
 269 -324 l 1
 414 -68 l 1
EndSplineSet
EndChar

StartChar: Hcircumflex
Encoding: 292 292 281
Width: 667
VWidth: 0
Flags: HMW
LayerCount: 2
Fore
SplineSet
168 366 m 1
 173 397 l 1
 639 397 l 1
 634 366 l 1
 168 366 l 1
670 700 m 1
 703 700 l 1
 580 0 l 1
 547 0 l 1
 670 700 l 1
210 700 m 1
 243 700 l 1
 120 0 l 1
 87 0 l 1
 210 700 l 1
491 892 m 1
 329 768 l 1
 313 786 l 1
 497 926 l 1
 633 786 l 1
 609 768 l 1
 491 892 l 1
EndSplineSet
EndChar

StartChar: hcircumflex
Encoding: 293 293 282
Width: 490
VWidth: 0
Flags: HMW
LayerCount: 2
Fore
SplineSet
251 780 m 1
 113 0 l 1
 82 0 l 1
 220 780 l 1
 251 780 l 1
431 308 m 2
 445 388 422 440 340 440 c 0
 256 440 177 366 162 280 c 1
 147 280 l 1
 166 389 256 470 351 470 c 0
 446 470 480 409 463 311 c 2
 408 0 l 1
 377 0 l 1
 431 308 l 2
275 963 m 1
 112 840 l 1
 96 857 l 1
 281 997 l 1
 416 857 l 1
 392 840 l 1
 275 963 l 1
EndSplineSet
EndChar

StartChar: Itilde
Encoding: 296 296 283
Width: 199
VWidth: 0
Flags: HMW
LayerCount: 2
Fore
SplineSet
207 700 m 1
 239 700 l 1
 116 0 l 1
 84 0 l 1
 207 700 l 1
115 824 m 1
 124 859 156 889 201 889 c 0
 259 889 262 842 316 842 c 0
 342 842 359 858 381 890 c 1
 398 875 l 1
 375 838 346 816 310 816 c 0
 255 816 243 863 198 863 c 0
 157 863 139 834 135 812 c 1
 115 824 l 1
EndSplineSet
EndChar

StartChar: itilde
Encoding: 297 297 284
Width: 211
VWidth: 0
Flags: HMW
LayerCount: 2
Fore
SplineSet
171 460 m 1
 202 460 l 1
 121 0 l 1
 90 0 l 1
 171 460 l 1
80 584 m 1
 89 619 121 649 166 649 c 0
 224 649 228 602 282 602 c 0
 308 602 325 618 347 650 c 1
 364 635 l 1
 341 598 312 576 276 576 c 0
 221 576 207 623 162 623 c 0
 121 623 104 594 100 572 c 1
 80 584 l 1
EndSplineSet
EndChar

StartChar: Imacron
Encoding: 298 298 285
Width: 199
VWidth: 0
Flags: HMW
LayerCount: 2
Fore
SplineSet
207 700 m 1
 239 700 l 1
 116 0 l 1
 84 0 l 1
 207 700 l 1
92 816 m 1
 97 845 l 1
 447 845 l 1
 442 816 l 1
 92 816 l 1
EndSplineSet
EndChar

StartChar: imacron
Encoding: 299 299 286
Width: 211
VWidth: 0
Flags: HMW
LayerCount: 2
Fore
SplineSet
171 460 m 1
 202 460 l 1
 121 0 l 1
 90 0 l 1
 171 460 l 1
57 576 m 1
 62 605 l 1
 412 605 l 1
 407 576 l 1
 57 576 l 1
EndSplineSet
EndChar

StartChar: Ibreve
Encoding: 300 300 287
Width: 199
VWidth: 0
Flags: HMW
LayerCount: 2
Fore
SplineSet
207 700 m 1
 239 700 l 1
 116 0 l 1
 84 0 l 1
 207 700 l 1
100 910 m 1
 129 910 l 1
 119 856 152 796 238 796 c 0
 324 796 378 856 388 910 c 1
 416 910 l 1
 404 841 339 770 234 770 c 0
 129 770 88 841 100 910 c 1
EndSplineSet
EndChar

StartChar: ibreve
Encoding: 301 301 288
Width: 211
VWidth: 0
Flags: HMW
LayerCount: 2
Fore
SplineSet
171 460 m 1
 202 460 l 1
 121 0 l 1
 90 0 l 1
 171 460 l 1
66 670 m 1
 94 670 l 1
 84 616 118 556 204 556 c 0
 290 556 343 616 353 670 c 1
 382 670 l 1
 370 601 304 530 199 530 c 0
 94 530 54 601 66 670 c 1
EndSplineSet
EndChar

StartChar: Iogonek
Encoding: 302 302 289
Width: 199
VWidth: 0
Flags: HMW
LayerCount: 2
Fore
SplineSet
207 700 m 1
 239 700 l 1
 116 0 l 1
 84 0 l 1
 207 700 l 1
112 -165 m 1
 123 -185 l 1
 104 -205 64 -225 21 -225 c 0
 -49 -225 -82 -191 -73 -139 c 1
 -40 -133 l 1
 -48 -176 -17 -197 27 -197 c 0
 63 -197 95 -181 112 -165 c 1
-40 -133 m 1
 -73 -139 l 1
 -61 -73 24 -26 100 10 c 1
 115 -5 l 1
 47 -34 -31 -82 -40 -133 c 1
EndSplineSet
EndChar

StartChar: iogonek
Encoding: 303 303 290
Width: 211
VWidth: 0
Flags: HMW
LayerCount: 2
Fore
SplineSet
202 682 m 0
 204 695 216 705 230 705 c 0
 244 705 251 695 249 682 c 0
 247 669 236 658 222 658 c 0
 208 658 200 669 202 682 c 0
171 460 m 1
 202 460 l 1
 121 0 l 1
 90 0 l 1
 171 460 l 1
117 -165 m 1
 129 -185 l 1
 110 -205 69 -225 26 -225 c 0
 -44 -225 -76 -191 -67 -139 c 1
 -35 -133 l 1
 -43 -176 -11 -197 33 -197 c 0
 69 -197 100 -181 117 -165 c 1
-35 -133 m 1
 -67 -139 l 1
 -55 -73 30 -26 106 10 c 1
 121 -5 l 1
 53 -34 -26 -82 -35 -133 c 1
EndSplineSet
EndChar

StartChar: Idotaccent
Encoding: 304 304 291
Width: 199
VWidth: 0
Flags: HMW
LayerCount: 2
Fore
SplineSet
207 700 m 1
 239 700 l 1
 116 0 l 1
 84 0 l 1
 207 700 l 1
217 798 m 0
 219 812 232 822 245 822 c 0
 258 822 267 812 265 798 c 0
 263 784 249 774 236 774 c 0
 223 774 215 784 217 798 c 0
EndSplineSet
EndChar

StartChar: uni0136
Encoding: 310 310 292
Width: 487
VWidth: 0
Flags: HMW
LayerCount: 2
Fore
SplineSet
207 700 m 1
 239 700 l 1
 116 0 l 1
 84 0 l 1
 207 700 l 1
541 700 m 1
 583 700 l 1
 215 372 l 1
 476 0 l 1
 432 0 l 1
 174 372 l 1
 541 700 l 1
330 -71 m 1
 359 -84 l 1
 205 -334 l 1
 186 -326 l 1
 330 -71 l 1
EndSplineSet
EndChar

StartChar: uni0137
Encoding: 311 311 293
Width: 392
VWidth: 0
Flags: HMW
LayerCount: 2
Fore
SplineSet
215 780 m 1
 246 780 l 1
 108 0 l 1
 77 0 l 1
 215 780 l 1
407 460 m 1
 448 460 l 1
 186 270 l 1
 386 0 l 1
 346 0 l 1
 146 270 l 1
 407 460 l 1
265 -71 m 1
 295 -84 l 1
 141 -334 l 1
 121 -326 l 1
 265 -71 l 1
EndSplineSet
EndChar

StartChar: Lacute
Encoding: 313 313 294
Width: 436
VWidth: 0
Flags: HMW
LayerCount: 2
Fore
SplineSet
106 0 m 1
 111 31 l 1
 424 31 l 1
 419 0 l 1
 106 0 l 1
210 700 m 1
 243 700 l 1
 120 0 l 1
 87 0 l 1
 210 700 l 1
578 924 m 1
 375 768 l 1
 361 781 l 1
 553 941 l 1
 578 924 l 1
EndSplineSet
EndChar

StartChar: lacute
Encoding: 314 314 295
Width: 195
VWidth: 0
Flags: HMW
LayerCount: 2
Fore
SplineSet
220 780 m 1
 251 780 l 1
 113 0 l 1
 82 0 l 1
 220 780 l 1
435 995 m 1
 232 840 l 1
 218 852 l 1
 410 1012 l 1
 435 995 l 1
EndSplineSet
EndChar

StartChar: uni013B
Encoding: 315 315 296
Width: 436
VWidth: 0
Flags: HMW
LayerCount: 2
Fore
SplineSet
106 0 m 1
 111 31 l 1
 424 31 l 1
 419 0 l 1
 106 0 l 1
210 700 m 1
 243 700 l 1
 120 0 l 1
 87 0 l 1
 210 700 l 1
262 -60 m 1
 292 -72 l 1
 138 -322 l 1
 117 -315 l 1
 262 -60 l 1
EndSplineSet
EndChar

StartChar: uni013C
Encoding: 316 316 297
Width: 195
VWidth: 0
Flags: HMW
LayerCount: 2
Fore
SplineSet
220 780 m 1
 251 780 l 1
 113 0 l 1
 82 0 l 1
 220 780 l 1
107 -60 m 1
 137 -72 l 1
 -17 -322 l 1
 -38 -315 l 1
 107 -60 l 1
EndSplineSet
EndChar

StartChar: Lcaron
Encoding: 317 317 298
Width: 450
VWidth: 0
Flags: HMW
LayerCount: 2
Fore
SplineSet
106 0 m 1
 111 31 l 1
 424 31 l 1
 419 0 l 1
 106 0 l 1
210 700 m 1
 243 700 l 1
 120 0 l 1
 87 0 l 1
 210 700 l 1
460 699 m 1
 489 686 l 1
 335 436 l 1
 315 444 l 1
 460 699 l 1
EndSplineSet
EndChar

StartChar: lcaron
Encoding: 318 318 299
Width: 230
VWidth: 0
Flags: HMW
LayerCount: 2
Fore
SplineSet
220 780 m 1
 251 780 l 1
 113 0 l 1
 82 0 l 1
 220 780 l 1
448 769 m 1
 477 756 l 1
 323 506 l 1
 303 514 l 1
 448 769 l 1
EndSplineSet
EndChar

StartChar: Ldot
Encoding: 319 319 300
Width: 436
VWidth: 0
Flags: HMW
LayerCount: 2
Fore
SplineSet
106 0 m 1
 111 31 l 1
 424 31 l 1
 419 0 l 1
 106 0 l 1
210 700 m 1
 243 700 l 1
 120 0 l 1
 87 0 l 1
 210 700 l 1
347 402 m 0
 349 416 362 426 375 426 c 0
 388 426 397 416 395 402 c 0
 393 388 380 378 367 378 c 0
 354 378 345 388 347 402 c 0
EndSplineSet
EndChar

StartChar: ldot
Encoding: 320 320 301
Width: 370
VWidth: 0
Flags: HMW
LayerCount: 2
Fore
SplineSet
220 780 m 1
 251 780 l 1
 113 0 l 1
 82 0 l 1
 220 780 l 1
297 402 m 0
 299 416 312 426 325 426 c 0
 338 426 347 416 345 402 c 0
 343 388 330 378 317 378 c 0
 304 378 295 388 297 402 c 0
EndSplineSet
EndChar

StartChar: eth
Encoding: 240 240 302
Width: 548
VWidth: 0
Flags: HMW
LayerCount: 2
Fore
SplineSet
505 223 m 0
 523 326 465 418 340 418 c 0
 240 418 140 333 121 223 c 0
 100 106 164 20 278 20 c 0
 396 20 485 111 505 223 c 0
341 700 m 1
 513 378 l 2
 533 341 547 280 537 223 c 0
 513 86 407 -10 272 -10 c 0
 137 -10 65 86 89 223 c 0
 111 345 221 443 335 443 c 0
 401 443 450 420 480 374 c 1
 478 372 l 1
 301 700 l 1
 341 700 l 1
246 558 m 1
 251 585 l 1
 530 585 l 1
 525 558 l 1
 246 558 l 1
EndSplineSet
EndChar

StartChar: racute
Encoding: 341 341 303
Width: 305
VWidth: 0
Flags: HMW
LayerCount: 2
Fore
SplineSet
194 460 m 1
 113 0 l 1
 82 0 l 1
 163 460 l 1
 194 460 l 1
350 420 m 1
 334 433 318 440 296 440 c 0
 222 440 177 367 162 280 c 1
 147 280 l 1
 166 389 228 470 307 470 c 0
 333 470 356 461 372 445 c 1
 350 420 l 1
443 685 m 1
 239 530 l 1
 226 542 l 1
 418 702 l 1
 443 685 l 1
EndSplineSet
EndChar

StartChar: rcaron
Encoding: 345 345 304
Width: 305
VWidth: 0
Flags: HMW
LayerCount: 2
Fore
SplineSet
194 460 m 1
 113 0 l 1
 82 0 l 1
 163 460 l 1
 194 460 l 1
350 420 m 1
 334 433 318 440 296 440 c 0
 222 440 177 367 162 280 c 1
 147 280 l 1
 166 389 228 470 307 470 c 0
 333 470 356 461 372 445 c 1
 350 420 l 1
287 564 m 1
 448 688 l 1
 466 670 l 1
 281 530 l 1
 146 670 l 1
 169 688 l 1
 287 564 l 1
EndSplineSet
EndChar

StartChar: Rcaron
Encoding: 344 344 305
Width: 495
VWidth: 0
Flags: HMW
LayerCount: 2
Fore
SplineSet
258 326 m 1
 295 326 l 1
 468 0 l 1
 427 0 l 1
 258 326 l 1
210 700 m 1
 243 700 l 1
 120 0 l 1
 87 0 l 1
 210 700 l 1
220 670 m 1
 225 700 l 1
 347 700 l 2
 482 700 573 631 550 502 c 0
 527 373 413 304 278 304 c 2
 156 304 l 1
 161 334 l 1
 283 334 l 2
 403 334 497 390 517 502 c 0
 537 614 460 670 342 670 c 2
 220 670 l 1
377 802 m 1
 539 926 l 1
 556 908 l 1
 371 768 l 1
 236 908 l 1
 259 926 l 1
 377 802 l 1
EndSplineSet
EndChar

StartChar: uni0213
Encoding: 531 531 306
Width: 305
VWidth: 0
Flags: HMW
LayerCount: 2
Fore
SplineSet
194 460 m 1
 113 0 l 1
 82 0 l 1
 163 460 l 1
 194 460 l 1
350 420 m 1
 334 433 318 440 296 440 c 0
 222 440 177 367 162 280 c 1
 147 280 l 1
 166 389 228 470 307 470 c 0
 333 470 356 461 372 445 c 1
 350 420 l 1
126 544 m 1
 154 544 l 1
 164 598 218 658 304 658 c 0
 390 658 424 598 414 544 c 1
 442 544 l 1
 454 613 414 684 309 684 c 0
 204 684 138 613 126 544 c 1
EndSplineSet
EndChar

StartChar: uni0212
Encoding: 530 530 307
Width: 495
VWidth: 0
Flags: HMW
LayerCount: 2
Fore
SplineSet
258 326 m 1
 295 326 l 1
 468 0 l 1
 427 0 l 1
 258 326 l 1
210 700 m 1
 243 700 l 1
 120 0 l 1
 87 0 l 1
 210 700 l 1
220 670 m 1
 225 700 l 1
 347 700 l 2
 482 700 573 631 550 502 c 0
 527 373 413 304 278 304 c 2
 156 304 l 1
 161 334 l 1
 283 334 l 2
 403 334 497 390 517 502 c 0
 537 614 460 670 342 670 c 2
 220 670 l 1
240 768 m 1
 269 768 l 1
 279 822 333 882 419 882 c 0
 505 882 537 822 527 768 c 1
 556 768 l 1
 568 837 528 908 423 908 c 0
 318 908 252 837 240 768 c 1
EndSplineSet
EndChar

StartChar: OE
Encoding: 338 338 308
Width: 961
VWidth: 0
Flags: HMW
LayerCount: 2
Fore
SplineSet
596 372 m 1
 601 402 l 1
 935 402 l 1
 930 372 l 1
 596 372 l 1
636 688 m 1
 669 688 l 1
 550 12 l 1
 517 12 l 1
 636 688 l 1
889 31 m 1
 884 0 l 1
 390 0 l 2
 187 0 65 141 102 350 c 0
 139 559 309 700 513 700 c 2
 1007 700 l 1
 1002 669 l 1
 654 669 l 1
 638 669 l 1
 508 669 l 2
 326 669 167 538 134 350 c 0
 101 162 213 31 395 31 c 2
 521 31 l 1
 545 31 l 1
 889 31 l 1
EndSplineSet
EndChar

StartChar: oe
Encoding: 339 339 309
Width: 918
VWidth: 0
Flags: HMW
LayerCount: 2
Fore
SplineSet
887 250 m 2
 905 350 851 442 740 442 c 0
 625 442 533 347 514 240 c 1
 512 232 l 1
 490 105 555 20 666 20 c 0
 752 20 818 63 865 124 c 1
 887 106 l 1
 829 36 759 -10 660 -10 c 0
 528 -10 464 98 487 230 c 0
 490 247 493 263 499 279 c 0
 538 392 636 470 748 470 c 0
 858 470 943 379 920 248 c 0
 919 240 915 230 913 222 c 1
 883 230 l 1
 887 250 l 2
502 222 m 1
 507 250 l 1
 912 250 l 1
 913 222 l 1
 502 222 l 1
83 230 m 0
 109 379 221 470 339 470 c 0
 450 470 527 379 501 230 c 0
 475 81 365 -10 254 -10 c 0
 136 -10 57 81 83 230 c 0
115 230 m 0
 92 100 159 20 265 20 c 0
 356 20 457 103 479 230 c 0
 501 357 430 440 339 440 c 0
 233 440 138 360 115 230 c 0
EndSplineSet
EndChar

StartChar: a.alt
Encoding: 65536 -1 310
Width: 449
VWidth: 0
Flags: HMW
LayerCount: 2
Fore
SplineSet
92 135 m 0
 77 51 133 18 201 18 c 0
 288 18 366 80 381 166 c 1
 387 151 l 1
 371 62 290 -10 190 -10 c 0
 109 -10 43 34 60 132 c 0
 78 232 175 282 272 282 c 0
 353 282 389 250 405 232 c 1
 401 211 l 1
 375 236 334 257 269 257 c 0
 187 257 106 216 92 135 c 0
159 382 m 1
 148 406 l 1
 187 435 245 470 321 470 c 0
 415 470 456 412 440 323 c 2
 383 0 l 1
 352 0 l 1
 409 323 l 2
 422 397 389 442 316 442 c 0
 250 442 196 412 159 382 c 1
EndSplineSet
EndChar

StartChar: Jcircumflex
Encoding: 308 308 312
Width: 209
VWidth: 0
Flags: HMW
LayerCount: 2
Fore
SplineSet
-134 -142 m 1
 -117 -166 -84 -188 -41 -188 c 0
 31 -188 64 -151 82 -50 c 2
 214 700 l 1
 246 700 l 1
 112 -60 l 2
 93 -169 46 -220 -48 -220 c 0
 -101 -220 -145 -186 -156 -166 c 1
 -134 -142 l 1
282 916 m 1
 120 793 l 1
 103 810 l 1
 288 950 l 1
 423 810 l 1
 400 793 l 1
 282 916 l 1
EndSplineSet
EndChar

StartChar: jcircumflex
Encoding: 309 309 313
Width: 201
VWidth: 0
Flags: HMW
LayerCount: 2
Fore
SplineSet
-98 -150 m 1
 -86 -171 -66 -189 -36 -189 c 0
 29 -189 57 -131 67 -72 c 2
 161 460 l 1
 192 460 l 1
 98 -76 l 2
 84 -157 41 -220 -43 -220 c 0
 -86 -220 -110 -194 -121 -174 c 1
 -98 -150 l 1
239 676 m 1
 78 553 l 1
 61 570 l 1
 245 710 l 1
 381 570 l 1
 358 553 l 1
 239 676 l 1
EndSplineSet
EndChar

StartChar: Nacute
Encoding: 323 323 314
Width: 698
VWidth: 0
Flags: HMW
LayerCount: 2
Fore
SplineSet
184 656 m 1
 186 721 l 1
 623 40 l 1
 621 -21 l 1
 184 656 l 1
715 700 m 1
 748 700 l 1
 621 -21 l 1
 598 34 l 1
 715 700 l 1
186 721 m 1
 209 662 l 1
 92 0 l 1
 59 0 l 1
 186 721 l 1
639 913 m 1
 436 758 l 1
 422 770 l 1
 614 930 l 1
 639 913 l 1
EndSplineSet
EndChar

StartChar: nacute
Encoding: 324 324 315
Width: 490
VWidth: 0
Flags: HMW
LayerCount: 2
Fore
SplineSet
194 460 m 1
 113 0 l 1
 82 0 l 1
 163 460 l 1
 194 460 l 1
431 308 m 2
 445 388 422 440 340 440 c 0
 256 440 177 366 162 280 c 1
 147 280 l 1
 166 389 256 470 351 470 c 0
 446 470 480 409 463 311 c 2
 408 0 l 1
 377 0 l 1
 431 308 l 2
508 692 m 1
 305 537 l 1
 291 550 l 1
 483 710 l 1
 508 692 l 1
EndSplineSet
EndChar

StartChar: uni0145
Encoding: 325 325 316
Width: 698
VWidth: 0
Flags: HMW
LayerCount: 2
Fore
SplineSet
184 656 m 1
 186 721 l 1
 623 40 l 1
 621 -21 l 1
 184 656 l 1
715 700 m 1
 748 700 l 1
 621 -21 l 1
 598 34 l 1
 715 700 l 1
186 721 m 1
 209 662 l 1
 92 0 l 1
 59 0 l 1
 186 721 l 1
352 -42 m 1
 381 -54 l 1
 227 -304 l 1
 207 -297 l 1
 352 -42 l 1
EndSplineSet
EndChar

StartChar: uni0146
Encoding: 326 326 317
Width: 490
VWidth: 0
Flags: HMW
LayerCount: 2
Fore
SplineSet
194 460 m 1
 113 0 l 1
 82 0 l 1
 163 460 l 1
 194 460 l 1
431 308 m 2
 445 388 422 440 340 440 c 0
 256 440 177 366 162 280 c 1
 147 280 l 1
 166 389 256 470 351 470 c 0
 446 470 480 409 463 311 c 2
 408 0 l 1
 377 0 l 1
 431 308 l 2
250 -46 m 1
 280 -58 l 1
 126 -308 l 1
 105 -301 l 1
 250 -46 l 1
EndSplineSet
EndChar

StartChar: Ncaron
Encoding: 327 327 318
Width: 698
VWidth: 0
Flags: HMW
LayerCount: 2
Fore
SplineSet
184 656 m 1
 186 721 l 1
 623 40 l 1
 621 -21 l 1
 184 656 l 1
715 700 m 1
 748 700 l 1
 621 -21 l 1
 598 34 l 1
 715 700 l 1
186 721 m 1
 209 662 l 1
 92 0 l 1
 59 0 l 1
 186 721 l 1
500 808 m 1
 662 932 l 1
 679 914 l 1
 494 774 l 1
 359 914 l 1
 382 932 l 1
 500 808 l 1
EndSplineSet
EndChar

StartChar: ncaron
Encoding: 328 328 319
Width: 490
VWidth: 0
Flags: HMW
LayerCount: 2
Fore
SplineSet
194 460 m 1
 113 0 l 1
 82 0 l 1
 163 460 l 1
 194 460 l 1
431 308 m 2
 445 388 422 440 340 440 c 0
 256 440 177 366 162 280 c 1
 147 280 l 1
 166 389 256 470 351 470 c 0
 446 470 480 409 463 311 c 2
 408 0 l 1
 377 0 l 1
 431 308 l 2
344 564 m 1
 505 688 l 1
 523 670 l 1
 338 530 l 1
 203 670 l 1
 227 688 l 1
 344 564 l 1
EndSplineSet
EndChar

StartChar: Omacron
Encoding: 332 332 320
Width: 778
VWidth: 0
Flags: HMW
LayerCount: 2
Fore
SplineSet
144 350 m 0
 111 162 214 24 394 24 c 0
 574 24 726 162 759 350 c 0
 792 538 689 676 509 676 c 0
 329 676 177 538 144 350 c 0
109 350 m 0
 146 558 318 708 515 708 c 0
 712 708 831 558 794 350 c 0
 757 142 586 -8 389 -8 c 0
 192 -8 72 142 109 350 c 0
352 782 m 1
 357 812 l 1
 707 812 l 1
 702 782 l 1
 352 782 l 1
EndSplineSet
EndChar

StartChar: omacron
Encoding: 333 333 321
Width: 553
VWidth: 0
Flags: HMW
LayerCount: 2
Fore
SplineSet
83 230 m 0
 108 369 226 470 359 470 c 0
 492 470 577 369 552 230 c 0
 527 91 407 -10 274 -10 c 0
 141 -10 58 91 83 230 c 0
115 230 m 0
 93 108 166 20 280 20 c 0
 394 20 499 108 521 230 c 0
 543 352 468 440 354 440 c 0
 240 440 137 352 115 230 c 0
198 544 m 1
 203 574 l 1
 553 574 l 1
 548 544 l 1
 198 544 l 1
EndSplineSet
EndChar

StartChar: Obreve
Encoding: 334 334 322
Width: 778
VWidth: 0
Flags: HMW
LayerCount: 2
Fore
SplineSet
144 350 m 0
 111 162 214 24 394 24 c 0
 574 24 726 162 759 350 c 0
 792 538 689 676 509 676 c 0
 329 676 177 538 144 350 c 0
109 350 m 0
 146 558 318 708 515 708 c 0
 712 708 831 558 794 350 c 0
 757 142 586 -8 389 -8 c 0
 192 -8 72 142 109 350 c 0
392 908 m 1
 420 908 l 1
 410 854 444 795 530 795 c 0
 616 795 669 854 679 908 c 1
 708 908 l 1
 696 839 630 768 525 768 c 0
 420 768 380 839 392 908 c 1
EndSplineSet
EndChar

StartChar: obreve
Encoding: 335 335 323
Width: 553
VWidth: 0
Flags: HMW
LayerCount: 2
Fore
SplineSet
83 230 m 0
 108 369 226 470 359 470 c 0
 492 470 577 369 552 230 c 0
 527 91 407 -10 274 -10 c 0
 141 -10 58 91 83 230 c 0
115 230 m 0
 93 108 166 20 280 20 c 0
 394 20 499 108 521 230 c 0
 543 352 468 440 354 440 c 0
 240 440 137 352 115 230 c 0
236 670 m 1
 265 670 l 1
 255 616 288 556 374 556 c 0
 460 556 514 616 524 670 c 1
 552 670 l 1
 540 601 474 530 369 530 c 0
 264 530 224 601 236 670 c 1
EndSplineSet
EndChar

StartChar: Racute
Encoding: 340 340 324
Width: 495
VWidth: 0
Flags: HMW
LayerCount: 2
Fore
SplineSet
258 326 m 1
 295 326 l 1
 468 0 l 1
 427 0 l 1
 258 326 l 1
210 700 m 1
 243 700 l 1
 120 0 l 1
 87 0 l 1
 210 700 l 1
220 670 m 1
 225 700 l 1
 347 700 l 2
 482 700 573 631 550 502 c 0
 527 373 413 304 278 304 c 2
 156 304 l 1
 161 334 l 1
 283 334 l 2
 403 334 497 390 517 502 c 0
 537 614 460 670 342 670 c 2
 220 670 l 1
539 924 m 1
 335 768 l 1
 322 781 l 1
 514 941 l 1
 539 924 l 1
EndSplineSet
EndChar

StartChar: uni0156
Encoding: 342 342 325
Width: 495
VWidth: 0
Flags: HMW
LayerCount: 2
Fore
SplineSet
258 326 m 1
 295 326 l 1
 468 0 l 1
 427 0 l 1
 258 326 l 1
210 700 m 1
 243 700 l 1
 120 0 l 1
 87 0 l 1
 210 700 l 1
220 670 m 1
 225 700 l 1
 347 700 l 2
 482 700 573 631 550 502 c 0
 527 373 413 304 278 304 c 2
 156 304 l 1
 161 334 l 1
 283 334 l 2
 403 334 497 390 517 502 c 0
 537 614 460 670 342 670 c 2
 220 670 l 1
265 -60 m 1
 295 -72 l 1
 141 -322 l 1
 121 -315 l 1
 265 -60 l 1
EndSplineSet
EndChar

StartChar: uni0157
Encoding: 343 343 326
Width: 305
VWidth: 0
Flags: HMW
LayerCount: 2
Fore
SplineSet
194 460 m 1
 113 0 l 1
 82 0 l 1
 163 460 l 1
 194 460 l 1
350 420 m 1
 334 433 318 440 296 440 c 0
 222 440 177 367 162 280 c 1
 147 280 l 1
 166 389 228 470 307 470 c 0
 333 470 356 461 372 445 c 1
 350 420 l 1
93 -60 m 1
 123 -72 l 1
 -31 -322 l 1
 -52 -315 l 1
 93 -60 l 1
EndSplineSet
EndChar

StartChar: Scedilla
Encoding: 350 350 327
Width: 506
VWidth: 0
Flags: HMW
LayerCount: 2
Fore
SplineSet
104 206 m 1
 120 116 160 23 271 23 c 0
 386 23 442 88 458 178 c 0
 475 277 396 324 324 352 c 0
 252 380 154 434 174 546 c 0
 191 645 285 708 385 708 c 0
 498 708 546 624 554 553 c 1
 523 538 l 1
 512 602 478 676 380 676 c 0
 296 676 223 622 209 544 c 0
 193 454 276 408 355 376 c 0
 430 347 513 294 493 180 c 0
 474 75 404 -8 265 -8 c 0
 143 -8 90 88 74 190 c 1
 104 206 l 1
267 17 m 1
 293 17 l 1
 220 -70 l 1
 183 -95 l 1
 267 17 l 1
335 -127 m 1
 311 -127 l 1
 318 -89 291 -72 261 -72 c 0
 237 -72 209 -79 183 -95 c 1
 207 -74 l 1
 236 -58 248 -53 275 -53 c 0
 308 -53 344 -78 335 -127 c 1
335 -127 m 1
 324 -188 266 -221 211 -221 c 0
 174 -221 152 -211 129 -183 c 1
 147 -167 l 1
 169 -189 184 -198 215 -198 c 0
 258 -198 303 -173 311 -127 c 1
 335 -127 l 1
EndSplineSet
EndChar

StartChar: scedilla
Encoding: 351 351 328
Width: 403
VWidth: 0
Flags: HMW
LayerCount: 2
Fore
SplineSet
89 151 m 1
 91 85 121 20 206 20 c 0
 272 20 322 57 333 119 c 0
 344 180 294 206 234 226 c 0
 168 248 111 272 126 356 c 0
 139 428 210 468 282 468 c 0
 360 468 399 423 408 372 c 1
 379 357 l 1
 369 400 338 439 276 439 c 0
 218 439 166 410 156 354 c 0
 144 286 200 268 260 248 c 0
 322 226 377 191 365 121 c 0
 350 36 283 -10 198 -10 c 0
 99 -10 61 63 60 138 c 1
 89 151 l 1
201 16 m 1
 229 16 l 1
 153 -72 l 1
 118 -96 l 1
 201 16 l 1
269 -128 m 1
 245 -128 l 1
 252 -90 225 -73 195 -73 c 0
 171 -73 144 -80 118 -96 c 1
 141 -76 l 1
 170 -60 181 -54 208 -54 c 0
 241 -54 278 -79 269 -128 c 1
269 -128 m 1
 258 -189 200 -222 145 -222 c 0
 108 -222 87 -212 64 -184 c 1
 80 -168 l 1
 102 -190 118 -199 149 -199 c 0
 192 -199 237 -174 245 -128 c 1
 269 -128 l 1
EndSplineSet
EndChar

StartChar: Zcaron
Encoding: 381 381 329
Width: 538
VWidth: 0
Flags: HMW
LayerCount: 2
Fore
SplineSet
156 668 m 1
 161 700 l 1
 645 700 l 1
 82 32 l 1
 514 32 l 1
 508 0 l 1
 18 0 l 1
 582 668 l 1
 156 668 l 1
421 802 m 1
 583 926 l 1
 600 908 l 1
 415 768 l 1
 280 908 l 1
 303 926 l 1
 421 802 l 1
EndSplineSet
EndChar

StartChar: zcaron
Encoding: 382 382 330
Width: 439
VWidth: 0
Flags: HMW
LayerCount: 2
Fore
SplineSet
58 30 m 1
 419 30 l 1
 414 0 l 1
 18 0 l 1
 58 30 l 1
123 460 m 1
 495 460 l 1
 458 430 l 1
 118 430 l 1
 123 460 l 1
459 460 m 1
 495 460 l 1
 54 0 l 1
 18 0 l 1
 459 460 l 1
344 564 m 1
 505 688 l 1
 523 670 l 1
 338 530 l 1
 203 670 l 1
 227 688 l 1
 344 564 l 1
EndSplineSet
EndChar

StartChar: Ydieresis
Encoding: 376 376 331
Width: 523
VWidth: 0
Flags: HMW
LayerCount: 2
Fore
SplineSet
295 300 m 1
 327 300 l 1
 274 0 l 1
 242 0 l 1
 295 300 l 1
597 700 m 1
 634 700 l 1
 302 248 l 1
 135 700 l 1
 173 700 l 1
 313 310 l 1
 597 700 l 1
470 793 m 0
 472 807 486 817 499 817 c 0
 512 817 522 807 520 793 c 0
 518 779 503 768 490 768 c 0
 477 768 468 779 470 793 c 0
284 793 m 0
 286 807 300 817 313 817 c 0
 326 817 336 807 334 793 c 0
 332 779 317 768 304 768 c 0
 291 768 282 779 284 793 c 0
EndSplineSet
EndChar

StartChar: Scaron
Encoding: 352 352 332
Width: 506
VWidth: 0
Flags: HMW
LayerCount: 2
Fore
SplineSet
104 206 m 1
 120 116 160 23 271 23 c 0
 386 23 442 88 458 178 c 0
 475 277 396 324 324 352 c 0
 252 380 154 434 174 546 c 0
 191 645 285 708 385 708 c 0
 498 708 546 624 554 553 c 1
 523 538 l 1
 512 602 478 676 380 676 c 0
 296 676 223 622 209 544 c 0
 193 454 276 408 355 376 c 0
 430 347 513 294 493 180 c 0
 474 75 404 -8 265 -8 c 0
 143 -8 90 88 74 190 c 1
 104 206 l 1
403 810 m 1
 565 933 l 1
 582 916 l 1
 397 776 l 1
 262 916 l 1
 286 933 l 1
 403 810 l 1
EndSplineSet
EndChar

StartChar: scaron
Encoding: 353 353 333
Width: 403
VWidth: 0
Flags: HMW
LayerCount: 2
Fore
SplineSet
89 151 m 1
 91 85 121 20 206 20 c 0
 272 20 322 57 333 119 c 0
 344 180 294 206 234 226 c 0
 168 248 111 272 126 356 c 0
 139 428 210 468 282 468 c 0
 360 468 399 423 408 372 c 1
 379 357 l 1
 369 400 338 439 276 439 c 0
 218 439 166 410 156 354 c 0
 144 286 200 268 260 248 c 0
 322 226 377 191 365 121 c 0
 350 36 283 -10 198 -10 c 0
 99 -10 61 63 60 138 c 1
 89 151 l 1
298 564 m 1
 459 688 l 1
 477 670 l 1
 292 530 l 1
 157 670 l 1
 181 688 l 1
 298 564 l 1
EndSplineSet
EndChar

StartChar: Lslash
Encoding: 321 321 334
Width: 397
VWidth: 0
Flags: HMW
LayerCount: 2
Fore
SplineSet
61 373 m 1
 55 395 l 1
 355 565 l 1
 361 543 l 1
 61 373 l 1
97 0 m 1
 102 31 l 1
 393 31 l 1
 388 0 l 1
 97 0 l 1
203 700 m 1
 236 700 l 1
 113 0 l 1
 80 0 l 1
 203 700 l 1
EndSplineSet
EndChar

StartChar: lslash
Encoding: 322 322 335
Width: 181
VWidth: 0
Flags: HMW
LayerCount: 2
Fore
SplineSet
62 373 m 1
 55 395 l 1
 282 545 l 1
 289 523 l 1
 62 373 l 1
213 780 m 1
 244 780 l 1
 106 0 l 1
 75 0 l 1
 213 780 l 1
EndSplineSet
EndChar

StartChar: uni0218
Encoding: 536 536 336
Width: 506
VWidth: 0
Flags: HMW
LayerCount: 2
Fore
SplineSet
104 206 m 1
 120 116 160 23 271 23 c 0
 386 23 442 88 458 178 c 0
 475 277 396 324 324 352 c 0
 252 380 154 434 174 546 c 0
 191 645 285 708 385 708 c 0
 498 708 546 624 554 553 c 1
 523 538 l 1
 512 602 478 676 380 676 c 0
 296 676 223 622 209 544 c 0
 193 454 276 408 355 376 c 0
 430 347 513 294 493 180 c 0
 474 75 404 -8 265 -8 c 0
 143 -8 90 88 74 190 c 1
 104 206 l 1
288 -68 m 1
 318 -81 l 1
 164 -331 l 1
 143 -324 l 1
 288 -68 l 1
EndSplineSet
EndChar

StartChar: uni0219
Encoding: 537 537 337
Width: 403
VWidth: 0
Flags: HMW
LayerCount: 2
Fore
SplineSet
89 151 m 1
 91 85 121 20 206 20 c 0
 272 20 322 57 333 119 c 0
 344 180 294 206 234 226 c 0
 168 248 111 272 126 356 c 0
 139 428 210 468 282 468 c 0
 360 468 399 423 408 372 c 1
 379 357 l 1
 369 400 338 439 276 439 c 0
 218 439 166 410 156 354 c 0
 144 286 200 268 260 248 c 0
 322 226 377 191 365 121 c 0
 350 36 283 -10 198 -10 c 0
 99 -10 61 63 60 138 c 1
 89 151 l 1
222 -70 m 1
 252 -82 l 1
 97 -332 l 1
 77 -325 l 1
 222 -70 l 1
EndSplineSet
EndChar

StartChar: pi
Encoding: 960 960 338
Width: 491
VWidth: 0
Flags: HMW
LayerCount: 2
Fore
SplineSet
168 444 m 1
 199 444 l 1
 121 0 l 1
 90 0 l 1
 168 444 l 1
111 460 m 1
 532 460 l 1
 527 430 l 1
 106 430 l 1
 111 460 l 1
418 444 m 1
 449 444 l 1
 393 127 l 2
 378 40 384 22 428 22 c 1
 422 -9 l 1
 359 -9 342 12 361 121 c 2
 418 444 l 1
EndSplineSet
EndChar

StartChar: trademark
Encoding: 8482 8482 339
Width: 665
VWidth: 0
Flags: HMW
LayerCount: 2
Fore
SplineSet
157 684 m 1
 159 700 l 1
 363 700 l 1
 361 684 l 1
 267 684 l 1
 208 350 l 1
 192 350 l 1
 251 684 l 1
 157 684 l 1
700 662 m 1
 719 710 l 1
 694 350 l 1
 678 350 l 1
 700 662 l 1
439 710 m 1
 441 662 l 1
 354 350 l 1
 337 350 l 1
 439 710 l 1
719 710 m 1
 710 671 l 1
 524 396 l 1
 434 671 l 1
 439 710 l 1
 530 430 l 1
 719 710 l 1
EndSplineSet
EndChar

StartChar: uni2219
Encoding: 8729 8729 340
Width: 272
VWidth: 0
Flags: HMW
LayerCount: 2
Fore
SplineSet
189 439 m 0
 191 453 205 463 218 463 c 0
 231 463 239 453 237 439 c 0
 235 425 222 414 209 414 c 0
 196 414 187 425 189 439 c 0
EndSplineSet
EndChar

StartChar: agrave.alt
Encoding: 65537 -1 341
Width: 450
VWidth: 0
Flags: HMW
LayerCount: 2
Fore
SplineSet
92 135 m 4
 77 51 133 18 201 18 c 4
 288 18 366 80 381 166 c 5
 387 151 l 5
 371 62 290 -10 190 -10 c 4
 109 -10 43 34 60 132 c 4
 78 232 175 282 272 282 c 4
 353 282 389 250 405 232 c 5
 401 211 l 5
 375 236 334 257 269 257 c 4
 187 257 106 216 92 135 c 4
159 382 m 5
 148 406 l 5
 187 435 245 470 321 470 c 4
 415 470 456 412 440 323 c 6
 383 0 l 5
 352 0 l 5
 409 323 l 6
 422 397 389 442 316 442 c 4
 250 442 196 412 159 382 c 5
218 699 m 5
 249 716 l 5
 385 556 l 5
 366 544 l 5
 218 699 l 5
EndSplineSet
EndChar

StartChar: aacute.alt
Encoding: 65538 -1 342
Width: 450
VWidth: 0
Flags: HMW
LayerCount: 2
Fore
SplineSet
92 135 m 4
 77 51 133 18 201 18 c 4
 288 18 366 80 381 166 c 5
 387 151 l 5
 371 62 290 -10 190 -10 c 4
 109 -10 43 34 60 132 c 4
 78 232 175 282 272 282 c 4
 353 282 389 250 405 232 c 5
 401 211 l 5
 375 236 334 257 269 257 c 4
 187 257 106 216 92 135 c 4
159 382 m 5
 148 406 l 5
 187 435 245 470 321 470 c 4
 415 470 456 412 440 323 c 6
 383 0 l 5
 352 0 l 5
 409 323 l 6
 422 397 389 442 316 442 c 4
 250 442 196 412 159 382 c 5
489 699 m 5
 288 544 l 5
 272 556 l 5
 464 716 l 5
 489 699 l 5
EndSplineSet
EndChar

StartChar: acircumflex.alt
Encoding: 65539 -1 343
Width: 450
VWidth: 0
Flags: HMW
LayerCount: 2
Fore
SplineSet
92 135 m 4
 77 51 133 18 201 18 c 4
 288 18 366 80 381 166 c 5
 387 151 l 5
 371 62 290 -10 190 -10 c 4
 109 -10 43 34 60 132 c 4
 78 232 175 282 272 282 c 4
 353 282 389 250 405 232 c 5
 401 211 l 5
 375 236 334 257 269 257 c 4
 187 257 106 216 92 135 c 4
159 382 m 5
 148 406 l 5
 187 435 245 470 321 470 c 4
 415 470 456 412 440 323 c 6
 383 0 l 5
 352 0 l 5
 409 323 l 6
 422 397 389 442 316 442 c 4
 250 442 196 412 159 382 c 5
354 660 m 5
 193 537 l 5
 176 554 l 5
 360 694 l 5
 496 554 l 5
 473 537 l 5
 354 660 l 5
EndSplineSet
EndChar

StartChar: atilde.alt
Encoding: 65540 -1 344
Width: 450
VWidth: 0
Flags: HMW
LayerCount: 2
Fore
SplineSet
92 135 m 4
 77 51 133 18 201 18 c 4
 288 18 366 80 381 166 c 5
 387 151 l 5
 371 62 290 -10 190 -10 c 4
 109 -10 43 34 60 132 c 4
 78 232 175 282 272 282 c 4
 353 282 389 250 405 232 c 5
 401 211 l 5
 375 236 334 257 269 257 c 4
 187 257 106 216 92 135 c 4
159 382 m 5
 148 406 l 5
 187 435 245 470 321 470 c 4
 415 470 456 412 440 323 c 6
 383 0 l 5
 352 0 l 5
 409 323 l 6
 422 397 389 442 316 442 c 4
 250 442 196 412 159 382 c 5
196 577 m 5
 205 612 236 642 281 642 c 4
 339 642 343 595 397 595 c 4
 423 595 439 611 461 643 c 5
 479 628 l 5
 456 591 426 569 390 569 c 4
 335 569 323 616 278 616 c 4
 237 616 219 587 215 565 c 5
 196 577 l 5
EndSplineSet
EndChar

StartChar: adieresis.alt
Encoding: 65541 -1 345
Width: 450
VWidth: 0
Flags: HMW
LayerCount: 2
Fore
SplineSet
92 135 m 4
 77 51 133 18 201 18 c 4
 288 18 366 80 381 166 c 5
 387 151 l 5
 371 62 290 -10 190 -10 c 4
 109 -10 43 34 60 132 c 4
 78 232 175 282 272 282 c 4
 353 282 389 250 405 232 c 5
 401 211 l 5
 375 236 334 257 269 257 c 4
 187 257 106 216 92 135 c 4
159 382 m 5
 148 406 l 5
 187 435 245 470 321 470 c 4
 415 470 456 412 440 323 c 6
 383 0 l 5
 352 0 l 5
 409 323 l 6
 422 397 389 442 316 442 c 4
 250 442 196 412 159 382 c 5
392 568 m 4
 394 582 407 592 420 592 c 4
 433 592 442 582 440 568 c 4
 438 554 425 544 412 544 c 4
 399 544 390 554 392 568 c 4
220 568 m 4
 222 582 235 592 248 592 c 4
 261 592 270 582 268 568 c 4
 266 554 253 544 240 544 c 4
 227 544 218 554 220 568 c 4
EndSplineSet
EndChar

StartChar: aring.alt
Encoding: 65542 -1 346
Width: 450
VWidth: 0
Flags: HMW
LayerCount: 2
Fore
SplineSet
92 135 m 4
 77 51 133 18 201 18 c 4
 288 18 366 80 381 166 c 5
 387 151 l 5
 371 62 290 -10 190 -10 c 4
 109 -10 43 34 60 132 c 4
 78 232 175 282 272 282 c 4
 353 282 389 250 405 232 c 5
 401 211 l 5
 375 236 334 257 269 257 c 4
 187 257 106 216 92 135 c 4
159 382 m 5
 148 406 l 5
 187 435 245 470 321 470 c 4
 415 470 456 412 440 323 c 6
 383 0 l 5
 352 0 l 5
 409 323 l 6
 422 397 389 442 316 442 c 4
 250 442 196 412 159 382 c 5
247 630 m 4
 258 690 315 730 367 730 c 4
 419 730 462 690 451 630 c 4
 440 570 383 530 331 530 c 4
 279 530 236 570 247 630 c 4
269 630 m 4
 261 583 294 551 335 551 c 4
 376 551 420 583 428 630 c 4
 436 677 404 709 363 709 c 4
 322 709 277 677 269 630 c 4
EndSplineSet
EndChar

StartChar: amacron.alt
Encoding: 65543 -1 347
Width: 450
VWidth: 0
Flags: HMW
LayerCount: 2
Fore
SplineSet
92 135 m 4
 77 51 133 18 201 18 c 4
 288 18 366 80 381 166 c 5
 387 151 l 5
 371 62 290 -10 190 -10 c 4
 109 -10 43 34 60 132 c 4
 78 232 175 282 272 282 c 4
 353 282 389 250 405 232 c 5
 401 211 l 5
 375 236 334 257 269 257 c 4
 187 257 106 216 92 135 c 4
159 382 m 5
 148 406 l 5
 187 435 245 470 321 470 c 4
 415 470 456 412 440 323 c 6
 383 0 l 5
 352 0 l 5
 409 323 l 6
 422 397 389 442 316 442 c 4
 250 442 196 412 159 382 c 5
159 550 m 5
 164 580 l 5
 514 580 l 5
 509 550 l 5
 159 550 l 5
EndSplineSet
EndChar

StartChar: abreve.alt
Encoding: 65544 -1 348
Width: 450
VWidth: 0
Flags: HMW
LayerCount: 2
Fore
SplineSet
92 135 m 4
 77 51 133 18 201 18 c 4
 288 18 366 80 381 166 c 5
 387 151 l 5
 371 62 290 -10 190 -10 c 4
 109 -10 43 34 60 132 c 4
 78 232 175 282 272 282 c 4
 353 282 389 250 405 232 c 5
 401 211 l 5
 375 236 334 257 269 257 c 4
 187 257 106 216 92 135 c 4
159 382 m 5
 148 406 l 5
 187 435 245 470 321 470 c 4
 415 470 456 412 440 323 c 6
 383 0 l 5
 352 0 l 5
 409 323 l 6
 422 397 389 442 316 442 c 4
 250 442 196 412 159 382 c 5
191 677 m 5
 220 677 l 5
 210 623 243 564 329 564 c 4
 415 564 469 623 479 677 c 5
 507 677 l 5
 495 608 430 537 325 537 c 4
 220 537 179 608 191 677 c 5
EndSplineSet
EndChar

StartChar: aogonek.alt
Encoding: 65545 -1 349
Width: 450
VWidth: 0
Flags: HMW
LayerCount: 2
Fore
SplineSet
92 135 m 4
 77 51 133 18 201 18 c 4
 288 18 366 80 381 166 c 5
 387 151 l 5
 371 62 290 -10 190 -10 c 4
 109 -10 43 34 60 132 c 4
 78 232 175 282 272 282 c 4
 353 282 389 250 405 232 c 5
 401 211 l 5
 375 236 334 257 269 257 c 4
 187 257 106 216 92 135 c 4
159 382 m 5
 148 406 l 5
 187 435 245 470 321 470 c 4
 415 470 456 412 440 323 c 6
 383 0 l 5
 352 0 l 5
 409 323 l 6
 422 397 389 442 316 442 c 4
 250 442 196 412 159 382 c 5
380 -160 m 5
 391 -180 l 5
 372 -200 332 -220 289 -220 c 4
 219 -220 186 -186 195 -134 c 5
 227 -128 l 5
 219 -171 252 -192 296 -192 c 4
 332 -192 363 -176 380 -160 c 5
227 -128 m 5
 195 -134 l 5
 207 -68 292 -22 368 14 c 5
 383 0 l 5
 315 -29 236 -77 227 -128 c 5
EndSplineSet
EndChar

StartChar: dagger
Encoding: 8224 8224 350
Width: 521
VWidth: 0
Flags: HMW
LayerCount: 2
Fore
SplineSet
185 540 m 1
 526 540 l 1
 521 510 l 1
 180 510 l 1
 185 540 l 1
368 700 m 1
 399 700 l 1
 250 -150 l 1
 219 -150 l 1
 368 700 l 1
EndSplineSet
EndChar

StartChar: daggerdbl
Encoding: 8225 8225 351
Width: 521
VWidth: 0
Flags: HMW
LayerCount: 2
Fore
SplineSet
111 120 m 1
 452 120 l 1
 447 90 l 1
 106 90 l 1
 111 120 l 1
185 540 m 1
 526 540 l 1
 521 510 l 1
 180 510 l 1
 185 540 l 1
368 700 m 1
 399 700 l 1
 250 -150 l 1
 219 -150 l 1
 368 700 l 1
EndSplineSet
EndChar

StartChar: ellipsis
Encoding: 8230 8230 352
Width: 838
VWidth: 0
Flags: HMW
LayerCount: 2
Fore
SplineSet
114 12 m 0
 116 26 130 37 143 37 c 0
 156 37 165 26 163 12 c 0
 161 -2 147 -12 134 -12 c 0
 121 -12 112 -2 114 12 c 0
397 12 m 0
 399 26 413 37 426 37 c 0
 439 37 448 26 446 12 c 0
 444 -2 430 -12 417 -12 c 0
 404 -12 395 -2 397 12 c 0
680 12 m 0
 682 26 696 37 709 37 c 0
 722 37 730 26 728 12 c 0
 726 -2 713 -12 700 -12 c 0
 687 -12 678 -2 680 12 c 0
EndSplineSet
EndChar

StartChar: uniFF10
Encoding: 65296 65296 353
Width: 559
VWidth: 0
Flags: HMW
LayerCount: 2
Fore
SplineSet
142 350 m 0
 110 170 159 21 284 21 c 0
 409 21 508 170 540 350 c 0
 572 530 525 679 400 679 c 0
 275 679 174 530 142 350 c 0
110 350 m 0
 146 552 261 710 405 710 c 0
 549 710 610 552 574 350 c 0
 538 148 422 -10 278 -10 c 0
 134 -10 74 148 110 350 c 0
EndSplineSet
EndChar

StartChar: uniFF11
Encoding: 65297 65297 354
Width: 559
VWidth: 0
Flags: HMW
LayerCount: 2
Fore
SplineSet
260 626 m 1
 266 660 l 1
 472 706 l 1
 348 0 l 1
 316 0 l 1
 433 666 l 1
 260 626 l 1
EndSplineSet
EndChar

StartChar: uniFF12
Encoding: 65298 65298 355
Width: 559
VWidth: 0
Flags: HMW
LayerCount: 2
Fore
SplineSet
38 0 m 1
 421 340 l 2
 478 390 528 439 541 515 c 0
 554 589 522 680 406 680 c 0
 295 680 207 590 184 460 c 1
 152 460 l 1
 178 609 280 711 411 711 c 0
 551 711 588 600 573 513 c 0
 559 434 507 376 445 322 c 2
 113 31 l 1
 509 31 l 1
 504 0 l 1
 38 0 l 1
EndSplineSet
EndChar

StartChar: uniFF13
Encoding: 65299 65299 356
Width: 559
VWidth: 0
Flags: HMW
LayerCount: 2
Fore
SplineSet
317 357 m 1
 321 379 l 1
 411 379 519 438 535 530 c 0
 549 608 509 680 409 680 c 0
 313 680 238 615 222 526 c 1
 191 526 l 1
 210 635 298 710 413 710 c 0
 533 710 586 623 570 531 c 0
 551 425 431 357 317 357 c 1
282 -10 m 0
 147 -10 82 76 101 185 c 1
 133 185 l 1
 116 91 173 21 288 21 c 0
 396 21 477 87 494 181 c 0
 514 295 406 350 316 350 c 1
 320 372 l 1
 434 372 550 310 527 178 c 0
 507 66 407 -10 282 -10 c 0
EndSplineSet
EndChar

StartChar: uniFF14
Encoding: 65300 65300 357
Width: 559
VWidth: 0
Flags: HMW
LayerCount: 2
Fore
SplineSet
47 140 m 1
 80 170 l 1
 428 170 l 0
 435 170 l 0
 556 170 l 1
 551 140 l 1
 47 140 l 1
83 140 m 1
 47 140 l 1
 529 700 l 25
 541 700 l 1
 418 0 l 1
 384 0 l 1
 411 152 l 0
 412 159 l 0
 493 620 l 1
 83 140 l 1
EndSplineSet
EndChar

StartChar: uniFF15
Encoding: 65301 65301 358
Width: 559
VWidth: 0
Flags: HMW
LayerCount: 2
Fore
SplineSet
541 230 m 0
 513 71 394 -10 266 -10 c 0
 151 -10 96 50 72 137 c 1
 102 155 l 1
 122 75 176 21 272 21 c 0
 386 21 483 96 507 230 c 0
 527 344 460 422 360 422 c 0
 279 422 216 391 148 327 c 1
 183 369 l 1
 226 415 297 452 377 452 c 0
 490 452 564 362 541 230 c 0
324 670 m 1
 200 376 l 1
 148 327 l 1
 305 700 l 1
 635 700 l 1
 630 670 l 1
 324 670 l 1
EndSplineSet
EndChar

StartChar: uniFF16
Encoding: 65302 65302 359
Width: 559
VWidth: 0
Flags: HMW
LayerCount: 2
Fore
SplineSet
126 223 m 0
 105 106 170 20 284 20 c 0
 398 20 490 106 511 223 c 0
 530 333 461 418 361 418 c 0
 236 418 144 326 126 223 c 0
459 700 m 1
 499 700 l 1
 207 372 l 1
 205 374 l 1
 251 420 308 443 374 443 c 0
 488 443 565 345 543 223 c 0
 519 86 413 -10 278 -10 c 0
 143 -10 71 86 95 223 c 0
 105 280 141 341 175 378 c 2
 459 700 l 1
EndSplineSet
EndChar

StartChar: uniFF17
Encoding: 65303 65303 360
Width: 559
VWidth: 0
Flags: HMW
LayerCount: 2
Fore
SplineSet
172 669 m 1
 177 700 l 1
 653 700 l 1
 170 0 l 1
 136 0 l 1
 598 669 l 1
 172 669 l 1
EndSplineSet
EndChar

StartChar: uniFF18
Encoding: 65304 65304 361
Width: 559
VWidth: 0
Flags: HMW
LayerCount: 2
Fore
SplineSet
195 538 m 0
 211 630 302 710 405 710 c 0
 508 710 569 630 553 538 c 0
 535 436 438 364 344 364 c 0
 250 364 177 436 195 538 c 0
226 535 m 0
 211 448 281 386 348 386 c 0
 415 386 506 448 521 535 c 0
 535 615 486 680 400 680 c 0
 314 680 240 615 226 535 c 0
112 186 m 0
 132 301 243 378 347 378 c 0
 451 378 533 301 513 186 c 0
 494 77 403 -10 278 -10 c 0
 153 -10 93 77 112 186 c 0
144 190 m 0
 126 90 182 20 284 20 c 0
 386 20 464 90 482 190 c 0
 499 287 427 356 343 356 c 0
 259 356 161 287 144 190 c 0
EndSplineSet
EndChar

StartChar: uniFF19
Encoding: 65305 65305 362
Width: 559
VWidth: 0
Flags: HMW
LayerCount: 2
Fore
SplineSet
556 477 m 0
 577 594 514 680 400 680 c 0
 286 680 192 594 171 477 c 0
 152 367 222 282 322 282 c 0
 447 282 538 374 556 477 c 0
224 0 m 1
 183 0 l 1
 476 328 l 1
 477 326 l 1
 431 280 373 257 307 257 c 0
 193 257 118 355 140 477 c 0
 164 614 270 710 405 710 c 0
 540 710 612 614 588 477 c 0
 578 420 542 359 508 322 c 2
 224 0 l 1
EndSplineSet
EndChar

StartChar: caron
Encoding: 711 711 363
Width: 480
VWidth: 0
Flags: HMW
LayerCount: 2
Fore
SplineSet
347 604 m 1
 508 728 l 1
 525 710 l 1
 341 570 l 1
 205 710 l 1
 228 728 l 1
 347 604 l 1
EndSplineSet
EndChar

StartChar: napostrophe
Encoding: 329 329 364
Width: 621
VWidth: 0
Flags: HMW
LayerCount: 2
Fore
SplineSet
290 460 m 1
 209 0 l 1
 178 0 l 1
 259 460 l 1
 290 460 l 1
527 308 m 2
 541 388 518 440 436 440 c 0
 352 440 273 366 258 280 c 1
 243 280 l 1
 262 389 352 470 447 470 c 0
 542 470 576 409 559 311 c 2
 504 0 l 1
 473 0 l 1
 527 308 l 2
283 700 m 1
 320 700 l 1
 183 470 l 1
 160 470 l 1
 283 700 l 1
EndSplineSet
EndChar

StartChar: IJ
Encoding: 306 306 365
Width: 490
VWidth: 0
Flags: HMW
LayerCount: 2
Fore
SplineSet
116 -142 m 1
 133 -166 166 -188 209 -188 c 0
 281 -188 314 -151 332 -50 c 2
 464 700 l 1
 496 700 l 1
 362 -60 l 2
 343 -169 296 -220 202 -220 c 0
 149 -220 105 -186 94 -166 c 1
 116 -142 l 1
207 700 m 1
 239 700 l 1
 116 0 l 1
 84 0 l 1
 207 700 l 1
EndSplineSet
EndChar

StartChar: ij
Encoding: 307 307 366
Width: 510
VWidth: 0
Flags: HMW
LayerCount: 2
Fore
SplineSet
452 682 m 0
 454 695 466 705 480 705 c 0
 494 705 501 695 499 682 c 0
 497 669 486 658 472 658 c 0
 458 658 450 669 452 682 c 0
162 -150 m 1
 174 -171 194 -189 224 -189 c 0
 289 -189 317 -131 327 -72 c 2
 421 460 l 1
 452 460 l 1
 358 -76 l 2
 344 -157 301 -220 217 -220 c 0
 174 -220 150 -194 139 -174 c 1
 162 -150 l 1
202 682 m 0
 204 695 216 705 230 705 c 0
 244 705 251 695 249 682 c 0
 247 669 236 658 222 658 c 0
 208 658 200 669 202 682 c 0
171 460 m 1
 202 460 l 1
 121 0 l 1
 90 0 l 1
 171 460 l 1
EndSplineSet
EndChar

StartChar: uni0237
Encoding: 567 567 367
Width: 201
VWidth: 0
Flags: HMW
LayerCount: 2
Fore
SplineSet
-98 -150 m 1
 -86 -171 -66 -189 -36 -189 c 0
 29 -189 57 -131 67 -72 c 2
 161 460 l 1
 192 460 l 1
 98 -76 l 2
 84 -157 41 -220 -43 -220 c 0
 -86 -220 -110 -194 -121 -174 c 1
 -98 -150 l 1
EndSplineSet
EndChar

StartChar: Sacute
Encoding: 346 346 368
Width: 506
VWidth: 0
Flags: HMW
LayerCount: 2
Fore
SplineSet
104 206 m 1
 120 116 160 23 271 23 c 0
 386 23 442 88 458 178 c 0
 475 277 396 324 324 352 c 0
 252 380 154 434 174 546 c 0
 191 645 285 708 385 708 c 0
 498 708 546 624 554 553 c 1
 523 538 l 1
 512 602 478 676 380 676 c 0
 296 676 223 622 209 544 c 0
 193 454 276 408 355 376 c 0
 430 347 513 294 493 180 c 0
 474 75 404 -8 265 -8 c 0
 143 -8 90 88 74 190 c 1
 104 206 l 1
586 924 m 1
 383 768 l 1
 369 781 l 1
 561 941 l 1
 586 924 l 1
EndSplineSet
EndChar

StartChar: sacute
Encoding: 347 347 369
Width: 403
VWidth: 0
Flags: HMW
LayerCount: 2
Fore
SplineSet
89 151 m 1
 91 85 121 20 206 20 c 0
 272 20 322 57 333 119 c 0
 344 180 294 206 234 226 c 0
 168 248 111 272 126 356 c 0
 139 428 210 468 282 468 c 0
 360 468 399 423 408 372 c 1
 379 357 l 1
 369 400 338 439 276 439 c 0
 218 439 166 410 156 354 c 0
 144 286 200 268 260 248 c 0
 322 226 377 191 365 121 c 0
 350 36 283 -10 198 -10 c 0
 99 -10 61 63 60 138 c 1
 89 151 l 1
483 685 m 1
 280 530 l 1
 265 542 l 1
 457 702 l 1
 483 685 l 1
EndSplineSet
EndChar

StartChar: Scircumflex
Encoding: 348 348 370
Width: 506
VWidth: 0
Flags: HMW
LayerCount: 2
Fore
SplineSet
104 206 m 1
 120 116 160 23 271 23 c 0
 386 23 442 88 458 178 c 0
 475 277 396 324 324 352 c 0
 252 380 154 434 174 546 c 0
 191 645 285 708 385 708 c 0
 498 708 546 624 554 553 c 1
 523 538 l 1
 512 602 478 676 380 676 c 0
 296 676 223 622 209 544 c 0
 193 454 276 408 355 376 c 0
 430 347 513 294 493 180 c 0
 474 75 404 -8 265 -8 c 0
 143 -8 90 88 74 190 c 1
 104 206 l 1
417 892 m 1
 255 768 l 1
 239 786 l 1
 423 926 l 1
 559 786 l 1
 535 768 l 1
 417 892 l 1
EndSplineSet
EndChar

StartChar: scircumflex
Encoding: 349 349 371
Width: 403
VWidth: 0
Flags: HMW
LayerCount: 2
Fore
SplineSet
89 151 m 1
 91 85 121 20 206 20 c 0
 272 20 322 57 333 119 c 0
 344 180 294 206 234 226 c 0
 168 248 111 272 126 356 c 0
 139 428 210 468 282 468 c 0
 360 468 399 423 408 372 c 1
 379 357 l 1
 369 400 338 439 276 439 c 0
 218 439 166 410 156 354 c 0
 144 286 200 268 260 248 c 0
 322 226 377 191 365 121 c 0
 350 36 283 -10 198 -10 c 0
 99 -10 61 63 60 138 c 1
 89 151 l 1
314 653 m 1
 151 530 l 1
 135 547 l 1
 320 687 l 1
 455 547 l 1
 432 530 l 1
 314 653 l 1
EndSplineSet
EndChar

StartChar: uni1E9E
Encoding: 7838 7838 372
Width: 681
VWidth: 0
Flags: HMW
LayerCount: 2
Fore
SplineSet
152 407 m 1
 184 407 l 1
 112 0 l 1
 80 0 l 1
 152 407 l 1
433 357 m 1
 437 379 l 1
 553 379 635 440 651 530 c 0
 668 624 590 680 486 680 c 0
 331 680 215 581 184 407 c 1
 152 407 l 1
 186 601 316 710 491 710 c 0
 610 710 706 648 686 534 c 0
 667 425 568 357 433 357 c 1
406 -10 m 0
 285 -10 212 76 231 185 c 1
 265 185 l 1
 249 93 311 21 412 21 c 0
 513 21 594 93 611 188 c 0
 630 294 547 348 431 348 c 1
 435 370 l 1
 570 370 667 310 645 185 c 0
 625 73 524 -10 406 -10 c 0
EndSplineSet
EndChar

StartChar: Zacute
Encoding: 377 377 373
Width: 538
VWidth: 0
Flags: HW
LayerCount: 2
Fore
SplineSet
156 668 m 1
 161 700 l 1
 645 700 l 1
 81 32 l 1
 514 32 l 1
 508 0 l 1
 18 0 l 1
 583 668 l 1
 156 668 l 1
587.166992188 922 m 5
 385.166992188 768 l 5
 370.166992188 780 l 5
 562.166992188 940 l 5
 587.166992188 922 l 5
EndSplineSet
EndChar

StartChar: zacute
Encoding: 378 378 374
Width: 439
VWidth: 0
Flags: HW
LayerCount: 2
Fore
SplineSet
432 430 m 1
 118 430 l 1
 123 460 l 1
 495 460 l 1
 81 30 l 1
 419 30 l 1
 414 0 l 1
 18 0 l 1
 432 430 l 1
493.51953125 684 m 5
 291.51953125 530 l 5
 276.51953125 542 l 5
 468.51953125 702 l 5
 493.51953125 684 l 5
EndSplineSet
EndChar

StartChar: Zdotaccent
Encoding: 379 379 375
Width: 538
VWidth: 0
Flags: HW
LayerCount: 2
Fore
SplineSet
156 668 m 1
 161 700 l 1
 645 700 l 1
 81 32 l 1
 514 32 l 1
 508 0 l 1
 18 0 l 1
 583 668 l 1
 156 668 l 1
395.3984375 792 m 0
 397.3984375 806 411.3984375 817 424.3984375 817 c 0
 437.3984375 817 445.3984375 806 443.3984375 792 c 0
 441.3984375 778 428.3984375 768 415.3984375 768 c 0
 402.3984375 768 393.3984375 778 395.3984375 792 c 0
EndSplineSet
EndChar

StartChar: zdotaccent
Encoding: 380 380 376
Width: 439
VWidth: 0
Flags: HW
LayerCount: 2
Fore
SplineSet
432 430 m 1
 118 430 l 1
 123 460 l 1
 495 460 l 1
 81 30 l 1
 419 30 l 1
 414 0 l 1
 18 0 l 1
 432 430 l 1
301.750976562 554 m 0
 303.750976562 568 317.750976562 579 330.750976562 579 c 0
 343.750976562 579 351.750976562 568 349.750976562 554 c 0
 347.750976562 540 334.750976562 530 321.750976562 530 c 0
 308.750976562 530 299.750976562 540 301.750976562 554 c 0
EndSplineSet
EndChar
